<?xml version="1.0" encoding="utf-8"?>
<!-- Generator: Adobe Illustrator 22.0.1, SVG Export Plug-In . SVG Version: 6.00 Build 0)  -->
<svg version="1.1" id="Capa_1" xmlns="http://www.w3.org/2000/svg" xmlns:xlink="http://www.w3.org/1999/xlink" x="0px" y="0px"
	 viewBox="-2255.722 2638.943 24 24" enable-background="new -2255.722 2638.943 24 24" xml:space="preserve">
<g>
	<g>
		<g>
			<linearGradient id="SVGID_1_" gradientUnits="userSpaceOnUse" x1="-2239.4336" y1="2646.1716" x2="-2238.4675" y2="2646.1716">
				<stop  offset="0" style="stop-color:#80d34c"/>
				<stop  offset="1" style="stop-color:#80d34c"/>
			</linearGradient>
			<path fill="url(#SVGID_1_)" d="M-2238.54,2646.192c-0.069-0.073-0.14-0.148-0.212-0.219c-0.071-0.071-0.146-0.143-0.22-0.212
				c-0.113-0.102-0.286-0.094-0.389,0.017c-0.103,0.112-0.095,0.287,0.016,0.389c0.07,0.064,0.138,0.129,0.204,0.195
				c0.065,0.065,0.131,0.135,0.195,0.204c0.054,0.058,0.129,0.089,0.203,0.089c0.066,0,0.133-0.023,0.186-0.071
				C-2238.444,2646.479-2238.438,2646.306-2238.54,2646.192z"/>
		</g>
	</g>
	<g>
		<g>
			<linearGradient id="SVGID_2_" gradientUnits="userSpaceOnUse" x1="-2250.75" y1="2649.7368" x2="-2239.822" y2="2649.7368">
				<stop  offset="0" style="stop-color:#80d34c"/>
				<stop  offset="1" style="stop-color:#80d34c"/>
			</linearGradient>
			<path fill="url(#SVGID_2_)" d="M-2239.949,2645.01c-1.328-0.845-2.926-1.221-4.501-1.059c-1.597,0.166-3.104,0.884-4.241,2.022
				c-1.254,1.252-1.982,2.915-2.053,4.685c-0.071,1.756,0.511,3.464,1.639,4.806c0.054,0.063,0.132,0.096,0.211,0.096
				c0.063,0,0.125-0.021,0.177-0.063c0.116-0.098,0.131-0.271,0.034-0.389c-1.04-1.236-1.577-2.807-1.511-4.428
				c0.065-1.629,0.738-3.162,1.892-4.317c1.048-1.05,2.438-1.71,3.91-1.862c1.452-0.15,2.925,0.195,4.147,0.974
				c0.129,0.083,0.298,0.044,0.38-0.085C-2239.783,2645.262-2239.821,2645.091-2239.949,2645.01z"/>
		</g>
	</g>
	<g>
		<g>
			<linearGradient id="SVGID_3_" gradientUnits="userSpaceOnUse" x1="-2248.3394" y1="2652.5076" x2="-2236.6934" y2="2652.5076">
				<stop  offset="0" style="stop-color:#80d34c"/>
				<stop  offset="1" style="stop-color:#80d34c"/>
			</linearGradient>
			<path fill="url(#SVGID_3_)" d="M-2237.789,2647.17c-0.082-0.129-0.252-0.166-0.38-0.083c-0.128,0.081-0.166,0.25-0.084,0.379
				c0.779,1.223,1.125,2.696,0.975,4.147c-0.153,1.473-0.814,2.861-1.863,3.908c-1.154,1.154-2.688,1.827-4.318,1.893
				c-1.619,0.065-3.192-0.472-4.428-1.511c-0.116-0.096-0.29-0.083-0.388,0.033c-0.098,0.118-0.082,0.291,0.034,0.389
				c1.268,1.067,2.862,1.646,4.518,1.646c0.095,0,0.192-0.002,0.288-0.006c1.769-0.073,3.432-0.801,4.684-2.054
				c1.138-1.136,1.856-2.644,2.021-4.242C-2236.567,2650.097-2236.944,2648.497-2237.789,2647.17z"/>
		</g>
	</g>
</g>
<linearGradient id="SVGID_4_" gradientUnits="userSpaceOnUse" x1="-2255.0417" y1="2661.8335" x2="-2249.7888" y2="2661.8335">
	<stop  offset="0" style="stop-color:#80d34c"/>
	<stop  offset="1" style="stop-color:#80d34c"/>
</linearGradient>
<line fill="none" stroke="url(#SVGID_4_)" stroke-width="0.5" stroke-linecap="round" stroke-linejoin="round" stroke-miterlimit="10" x1="-2254.792" y1="2661.833" x2="-2250.039" y2="2661.833"/>
<linearGradient id="SVGID_5_" gradientUnits="userSpaceOnUse" x1="-2248.9844" y1="2661.8335" x2="-2245.426" y2="2661.8335">
	<stop  offset="0" style="stop-color:#80d34c"/>
	<stop  offset="1" style="stop-color:#80d34c"/>
</linearGradient>
<line fill="none" stroke="url(#SVGID_5_)" stroke-width="0.5" stroke-linecap="round" stroke-linejoin="round" stroke-miterlimit="10" x1="-2248.734" y1="2661.833" x2="-2245.676" y2="2661.833"/>
<linearGradient id="SVGID_6_" gradientUnits="userSpaceOnUse" x1="-2244.573" y1="2661.8335" x2="-2242.7773" y2="2661.8335">
	<stop  offset="0" style="stop-color:#80d34c"/>
	<stop  offset="1" style="stop-color:#80d34c"/>
</linearGradient>
<line fill="none" stroke="url(#SVGID_6_)" stroke-width="0.5" stroke-linecap="round" stroke-linejoin="round" stroke-miterlimit="10" x1="-2244.323" y1="2661.833" x2="-2243.027" y2="2661.833"/>
<linearGradient id="SVGID_7_" gradientUnits="userSpaceOnUse" x1="-2242.0417" y1="2661.8335" x2="-2232.0361" y2="2661.8335">
	<stop  offset="0" style="stop-color:#80d34c"/>
	<stop  offset="1" style="stop-color:#80d34c"/>
</linearGradient>
<line fill="none" stroke="url(#SVGID_7_)" stroke-width="0.5" stroke-linecap="round" stroke-linejoin="round" stroke-miterlimit="10" x1="-2241.792" y1="2661.833" x2="-2232.286" y2="2661.833"/>
<g opacity="0.5">
	
		<line fill="none" stroke="#F6A531" stroke-width="0.5" stroke-linecap="round" stroke-linejoin="round" stroke-miterlimit="10" x1="-2236.958" y1="2641.834" x2="-2237.959" y2="2640.833"/>
	
		<line fill="none" stroke="#F6A531" stroke-width="0.5" stroke-linecap="round" stroke-linejoin="round" stroke-miterlimit="10" x1="-2237.959" y1="2641.834" x2="-2236.958" y2="2640.833"/>
</g>
<g opacity="0.5">
	
		<line fill="none" stroke="#2754A2" stroke-width="0.5" stroke-linecap="round" stroke-linejoin="round" stroke-miterlimit="10" x1="-2252.123" y1="2646.673" x2="-2253.125" y2="2645.671"/>
	
		<line fill="none" stroke="#2754A2" stroke-width="0.5" stroke-linecap="round" stroke-linejoin="round" stroke-miterlimit="10" x1="-2253.125" y1="2646.673" x2="-2252.123" y2="2645.671"/>
</g>
<g opacity="0.5">
	
		<line fill="none" stroke="#F6A531" stroke-width="0.5" stroke-linecap="round" stroke-linejoin="round" stroke-miterlimit="10" x1="-2234.291" y1="2654.73" x2="-2235.292" y2="2653.728"/>
	
		<line fill="none" stroke="#F6A531" stroke-width="0.5" stroke-linecap="round" stroke-linejoin="round" stroke-miterlimit="10" x1="-2235.292" y1="2654.73" x2="-2234.291" y2="2653.728"/>
</g>
<g opacity="0.5">
	
		<line fill="none" stroke="#2754A2" stroke-width="0.5" stroke-linecap="round" stroke-linejoin="round" stroke-miterlimit="10" x1="-2253.79" y1="2656.06" x2="-2254.792" y2="2655.059"/>
	
		<line fill="none" stroke="#2754A2" stroke-width="0.5" stroke-linecap="round" stroke-linejoin="round" stroke-miterlimit="10" x1="-2254.792" y1="2656.06" x2="-2253.79" y2="2655.059"/>
</g>
<circle opacity="0.5" fill="none" stroke="#2754A2" stroke-width="0.5" stroke-linecap="round" stroke-linejoin="round" stroke-miterlimit="10" cx="-2235.771" cy="2645.646" r="0.979"/>
<circle opacity="0.5" fill="none" stroke="#2754A2" stroke-width="0.5" stroke-linecap="round" stroke-linejoin="round" stroke-miterlimit="10" cx="-2251.003" cy="2659.353" r="0.726"/>
<circle opacity="0.5" fill="none" stroke="#F6A531" stroke-width="0.5" stroke-linecap="round" stroke-linejoin="round" stroke-miterlimit="10" cx="-2247.205" cy="2641.816" r="0.583"/>
<circle opacity="0.5" fill="none" stroke="#F6A531" stroke-width="0.5" stroke-linecap="round" stroke-linejoin="round" stroke-miterlimit="10" cx="-2253.999" cy="2640.917" r="0.292"/>
<circle opacity="0.5" fill="none" stroke="#F6A531" stroke-width="0.5" stroke-linecap="round" stroke-linejoin="round" stroke-miterlimit="10" cx="-2233.693" cy="2658.627" r="0.292"/>
<circle opacity="0.5" fill="none" stroke="#F6A531" stroke-width="0.5" stroke-linecap="round" stroke-linejoin="round" stroke-miterlimit="10" cx="-2243.645" cy="2640.548" r="0.077"/>
<circle opacity="0.5" fill="none" stroke="#F6A531" stroke-width="0.5" stroke-linecap="round" stroke-linejoin="round" stroke-miterlimit="10" cx="-2232.708" cy="2642.5" r="0.077"/>
<circle opacity="0.5" fill="none" stroke="#F6A531" stroke-width="0.5" stroke-linecap="round" stroke-linejoin="round" stroke-miterlimit="10" cx="-2234.292" cy="2650.457" r="0.077"/>
<g>
	<g>
		<g>
			<linearGradient id="SVGID_8_" gradientUnits="userSpaceOnUse" x1="-2248.0247" y1="2650.9504" x2="-2239.1836" y2="2650.9504">
				<stop  offset="0" style="stop-color:#80d34c"/>
				<stop  offset="1" style="stop-color:#80d34c"/>
			</linearGradient>
			
				<path fill="none" stroke="url(#SVGID_8_)" stroke-width="0.5" stroke-linecap="round" stroke-linejoin="round" stroke-miterlimit="10" d="
				M-2242.574,2653.936c-0.073-0.04-0.115-0.147-0.115-0.292c0-0.366,0.262-0.841,0.572-1.037l2.487-1.566
				c0.065-0.041,0.085-0.127,0.044-0.192c-0.011-0.018-0.026-0.032-0.042-0.043l0,0l-4.726-2.976l-0.262-0.165l-2.593,1.633
				c-0.317,0.2-0.566,0.65-0.566,1.025s0.248,0.825,0.566,1.025l4.462,2.808c0.012,0.009,0.025,0.017,0.038,0.024
				c0.167,0.092,0.377,0.069,0.592-0.066l2.299-1.448c0.093-0.059,0.178-0.149,0.244-0.254c0.086-0.137,0.14-0.297,0.14-0.441
				c0-0.151-0.06-0.271-0.166-0.329"/>
			<linearGradient id="SVGID_9_" gradientUnits="userSpaceOnUse" x1="-2246.614" y1="2650.9263" x2="-2242.7959" y2="2650.9263">
				<stop  offset="0" style="stop-color:#80d34c"/>
				<stop  offset="1" style="stop-color:#80d34c"/>
			</linearGradient>
			
				<line fill="none" stroke="url(#SVGID_9_)" stroke-width="0.5" stroke-linecap="round" stroke-linejoin="round" stroke-miterlimit="10" x1="-2246.364" y1="2649.895" x2="-2243.046" y2="2651.958"/>
		</g>
	</g>
	<linearGradient id="SVGID_10_" gradientUnits="userSpaceOnUse" x1="-2247.1958" y1="2651.4995" x2="-2243.2407" y2="2651.4995">
		<stop  offset="0" style="stop-color:#80d34c"/>
		<stop  offset="1" style="stop-color:#80d34c"/>
	</linearGradient>
	
		<path fill="none" stroke="url(#SVGID_10_)" stroke-width="0.5" stroke-linecap="round" stroke-linejoin="round" stroke-miterlimit="10" d="
		M-2243.491,2652.574l-3.455-2.148"/>
	<linearGradient id="SVGID_11_" gradientUnits="userSpaceOnUse" x1="-2244.9277" y1="2649.9314" x2="-2241.1643" y2="2649.9314">
		<stop  offset="0" style="stop-color:#80d34c"/>
		<stop  offset="1" style="stop-color:#80d34c"/>
	</linearGradient>
	
		<path fill="none" stroke="url(#SVGID_11_)" stroke-width="0.5" stroke-linecap="round" stroke-linejoin="round" stroke-miterlimit="10" d="
		M-2241.414,2650.959l-3.263-2.055"/>
	<linearGradient id="SVGID_12_" gradientUnits="userSpaceOnUse" x1="-2244.1663" y1="2650.9431" x2="-2242.2664" y2="2650.9431">
		<stop  offset="0" style="stop-color:#80d34c"/>
		<stop  offset="1" style="stop-color:#80d34c"/>
	</linearGradient>
	
		<path fill="none" stroke="url(#SVGID_12_)" stroke-width="0.5" stroke-linecap="round" stroke-linejoin="round" stroke-miterlimit="10" d="
		M-2242.516,2651.378l-1.4-0.871"/>
</g>
</svg>
