<?xml version="1.0" encoding="UTF-8"?>
<svg enable-background="new -2537.347 2638.943 24 24" version="1.1" viewBox="-2537.3 2638.9 24 24" xml:space="preserve" xmlns="http://www.w3.org/2000/svg">
			<linearGradient id="i" x1="-2521.1" x2="-2520.1" y1="2646.2" y2="2646.2" gradientUnits="userSpaceOnUse">
				<stop stop-color="#80d34c" offset="0"/>
				<stop stop-color="#80d34c" offset="1"/>
			</linearGradient>
			<path d="m-2520.2 2646.2c-0.069-0.073-0.14-0.148-0.212-0.219-0.071-0.071-0.146-0.143-0.22-0.212-0.113-0.102-0.286-0.094-0.389 0.017-0.103 0.112-0.095 0.287 0.016 0.389 0.07 0.064 0.138 0.129 0.204 0.195 0.065 0.065 0.131 0.135 0.195 0.204 0.054 0.058 0.129 0.089 0.203 0.089 0.066 0 0.133-0.023 0.186-0.071 0.113-0.105 0.119-0.278 0.017-0.392z" fill="url(#i)"/>
			<linearGradient id="h" x1="-2532.4" x2="-2521.4" y1="2649.7" y2="2649.7" gradientUnits="userSpaceOnUse">
				<stop stop-color="#80d34c" offset="0"/>
				<stop stop-color="#80d34c" offset="1"/>
			</linearGradient>
			<path d="m-2521.6 2645c-1.328-0.845-2.926-1.221-4.501-1.059-1.597 0.166-3.104 0.884-4.241 2.022-1.254 1.252-1.982 2.915-2.053 4.685-0.071 1.756 0.511 3.464 1.639 4.806 0.054 0.063 0.132 0.096 0.211 0.096 0.063 0 0.125-0.021 0.177-0.063 0.116-0.098 0.131-0.271 0.034-0.389-1.04-1.236-1.577-2.807-1.511-4.428 0.065-1.629 0.738-3.162 1.892-4.317 1.048-1.05 2.438-1.71 3.91-1.862 1.452-0.15 2.925 0.195 4.147 0.974 0.129 0.083 0.298 0.044 0.38-0.085 0.082-0.128 0.044-0.299-0.084-0.38z" fill="url(#h)"/>
			<linearGradient id="g" x1="-2530" x2="-2518.3" y1="2652.5" y2="2652.5" gradientUnits="userSpaceOnUse">
				<stop stop-color="#80d34c" offset="0"/>
				<stop stop-color="#80d34c" offset="1"/>
			</linearGradient>
			<path d="m-2519.4 2647.2c-0.082-0.129-0.252-0.166-0.38-0.083-0.128 0.081-0.166 0.25-0.084 0.379 0.779 1.223 1.125 2.696 0.975 4.147-0.153 1.473-0.814 2.861-1.863 3.908-1.154 1.154-2.688 1.827-4.318 1.893-1.619 0.065-3.192-0.472-4.428-1.511-0.116-0.096-0.29-0.083-0.388 0.033-0.098 0.118-0.082 0.291 0.034 0.389 1.268 1.067 2.862 1.646 4.518 1.646 0.095 0 0.192-2e-3 0.288-6e-3 1.769-0.073 3.432-0.801 4.684-2.054 1.138-1.136 1.856-2.644 2.021-4.242 0.163-1.572-0.214-3.172-1.059-4.499z" fill="url(#g)"/>
			<linearGradient id="f" x1="-2529" x2="-2521.4" y1="2651.4" y2="2651.4" gradientUnits="userSpaceOnUse">
				<stop stop-color="#80d34c" offset="0"/>
				<stop stop-color="#80d34c" offset="1"/>
			</linearGradient>
			<path d="m-2524 2647.6c-1.421 0-2.577 1.156-2.577 2.577 0 0.316 0.056 0.623 0.167 0.914l-2.464 2.464c-0.035 0.035-0.055 0.083-0.055 0.133v1.349c0 0.104 0.084 0.188 0.188 0.188h1.111c0.05 0 0.097-0.02 0.133-0.055l0.375-0.374c0.035-0.035 0.055-0.083 0.055-0.133v-0.46h0.459c0.104 0 0.188-0.084 0.188-0.188v-0.184h0.184c0.104 0 0.188-0.084 0.188-0.188v-0.404h0.404c0.05 0 0.097-0.02 0.133-0.055l0.597-0.597c0.292 0.111 0.599 0.167 0.915 0.167 1.421 0 2.577-1.156 2.577-2.577-1e-3 -1.421-1.157-2.577-2.578-2.577zm0 4.779c-0.307 0-0.605-0.062-0.884-0.185-0.072-0.032-0.153-0.014-0.207 0.038 0 0-1e-3 1e-3 -2e-3 1e-3l-0.631 0.631h-0.514c-0.104 0-0.188 0.084-0.188 0.188v0.404h-0.184c-0.104 0-0.188 0.084-0.188 0.188v0.184h-0.459c-0.104 0-0.188 0.084-0.188 0.188v0.57l-0.264 0.264h-0.846v-0.265l2.296-2.296c0.066-0.066 0.066-0.173 0-0.239s-0.173-0.066-0.239 0l-2.057 2.057v-0.339l2.498-2.498c0-1e-3 1e-3 -1e-3 1e-3 -2e-3 0.052-0.053 0.069-0.134 0.038-0.207-0.123-0.279-0.185-0.576-0.185-0.884 0-1.214 0.988-2.202 2.202-2.202s2.201 0.988 2.201 2.202c1e-3 1.215-0.986 2.202-2.2 2.202z" fill="url(#f)"/>
			<linearGradient id="e" x1="-2523.9" x2="-2522.5" y1="2649.4" y2="2649.4" gradientUnits="userSpaceOnUse">
				<stop stop-color="#80d34c" offset="0"/>
				<stop stop-color="#80d34c" offset="1"/>
			</linearGradient>
			<path d="m-2523.2 2648.7c-0.388 0-0.703 0.316-0.703 0.704s0.315 0.703 0.703 0.703 0.704-0.315 0.704-0.703-0.316-0.704-0.704-0.704zm0 1.031c-0.181 0-0.328-0.147-0.328-0.328s0.147-0.328 0.328-0.328 0.328 0.147 0.328 0.328-0.147 0.328-0.328 0.328z" fill="url(#e)"/>
<linearGradient id="d" x1="-2536.7" x2="-2531.4" y1="2661.8" y2="2661.8" gradientUnits="userSpaceOnUse">
	<stop stop-color="#80d34c" offset="0"/>
	<stop stop-color="#80d34c" offset="1"/>
</linearGradient>
<line x1="-2536.4" x2="-2531.7" y1="2661.8" y2="2661.8" fill="none" stroke="url(#d)" stroke-linecap="round" stroke-linejoin="round" stroke-miterlimit="10" stroke-width=".5"/>
<linearGradient id="c" x1="-2530.6" x2="-2527.1" y1="2661.8" y2="2661.8" gradientUnits="userSpaceOnUse">
	<stop stop-color="#80d34c" offset="0"/>
	<stop stop-color="#80d34c" offset="1"/>
</linearGradient>
<line x1="-2530.4" x2="-2527.3" y1="2661.8" y2="2661.8" fill="none" stroke="url(#c)" stroke-linecap="round" stroke-linejoin="round" stroke-miterlimit="10" stroke-width=".5"/>
<linearGradient id="b" x1="-2526.2" x2="-2524.4" y1="2661.8" y2="2661.8" gradientUnits="userSpaceOnUse">
	<stop stop-color="#80d34c" offset="0"/>
	<stop stop-color="#80d34c" offset="1"/>
</linearGradient>
<line x1="-2525.9" x2="-2524.7" y1="2661.8" y2="2661.8" fill="none" stroke="url(#b)" stroke-linecap="round" stroke-linejoin="round" stroke-miterlimit="10" stroke-width=".5"/>
<linearGradient id="a" x1="-2523.7" x2="-2513.7" y1="2661.8" y2="2661.8" gradientUnits="userSpaceOnUse">
	<stop stop-color="#80d34c" offset="0"/>
	<stop stop-color="#80d34c" offset="1"/>
</linearGradient>
<line x1="-2523.4" x2="-2513.9" y1="2661.8" y2="2661.8" fill="none" stroke="url(#a)" stroke-linecap="round" stroke-linejoin="round" stroke-miterlimit="10" stroke-width=".5"/>
<g fill="none" opacity=".5" stroke="#F6A531" stroke-linecap="round" stroke-linejoin="round" stroke-miterlimit="10" stroke-width=".5">
		<line x1="-2518.6" x2="-2519.6" y1="2641.8" y2="2640.8"/>
		<line x1="-2519.6" x2="-2518.6" y1="2641.8" y2="2640.8"/>
</g>
<g fill="none" opacity=".5" stroke="#2754A2" stroke-linecap="round" stroke-linejoin="round" stroke-miterlimit="10" stroke-width=".5">
		<line x1="-2533.7" x2="-2534.8" y1="2646.7" y2="2645.7"/>
		<line x1="-2534.8" x2="-2533.7" y1="2646.7" y2="2645.7"/>
</g>
<g fill="none" opacity=".5" stroke="#F6A531" stroke-linecap="round" stroke-linejoin="round" stroke-miterlimit="10" stroke-width=".5">
		<line x1="-2515.9" x2="-2516.9" y1="2654.7" y2="2653.7"/>
		<line x1="-2516.9" x2="-2515.9" y1="2654.7" y2="2653.7"/>
</g>
<g fill="none" opacity=".5" stroke="#2754A2" stroke-linecap="round" stroke-linejoin="round" stroke-miterlimit="10" stroke-width=".5">
		<line x1="-2535.4" x2="-2536.4" y1="2656.1" y2="2655.1"/>
		<line x1="-2536.4" x2="-2535.4" y1="2656.1" y2="2655.1"/>
</g>
<circle cx="-2517.4" cy="2645.6" r=".979" fill="none" opacity=".5" stroke="#2754A2" stroke-linecap="round" stroke-linejoin="round" stroke-miterlimit="10" stroke-width=".5"/>
<circle cx="-2532.6" cy="2659.4" r=".726" fill="none" opacity=".5" stroke="#2754A2" stroke-linecap="round" stroke-linejoin="round" stroke-miterlimit="10" stroke-width=".5"/>
<circle cx="-2528.8" cy="2641.8" r=".583" fill="none" opacity=".5" stroke="#F6A531" stroke-linecap="round" stroke-linejoin="round" stroke-miterlimit="10" stroke-width=".5"/>
<circle cx="-2535.6" cy="2640.9" r=".292" fill="none" opacity=".5" stroke="#F6A531" stroke-linecap="round" stroke-linejoin="round" stroke-miterlimit="10" stroke-width=".5"/>
<circle cx="-2515.3" cy="2658.6" r=".292" fill="none" opacity=".5" stroke="#F6A531" stroke-linecap="round" stroke-linejoin="round" stroke-miterlimit="10" stroke-width=".5"/>
<circle cx="-2525.3" cy="2640.5" r=".077" fill="none" opacity=".5" stroke="#F6A531" stroke-linecap="round" stroke-linejoin="round" stroke-miterlimit="10" stroke-width=".5"/>
<circle cx="-2514.3" cy="2642.5" r=".077" fill="none" opacity=".5" stroke="#F6A531" stroke-linecap="round" stroke-linejoin="round" stroke-miterlimit="10" stroke-width=".5"/>
<circle cx="-2515.9" cy="2650.5" r=".077" fill="none" opacity=".5" stroke="#F6A531" stroke-linecap="round" stroke-linejoin="round" stroke-miterlimit="10" stroke-width=".5"/>
</svg>
