<?xml version="1.0" encoding="UTF-8"?>
<svg enable-background="new -2425.347 2560.86 24 24" version="1.1" viewBox="-2425.3 2560.9 24 24" xml:space="preserve" xmlns="http://www.w3.org/2000/svg">
	<linearGradient id="a" x1="-2422.7" x2="-2404" y1="2572.9" y2="2572.9" gradientUnits="userSpaceOnUse">
		<stop stop-color="#80d34c" offset="0"/>
		<stop stop-color="#80d34c" offset="1"/>
	</linearGradient>
	<path d="m-2404.2 2566.6c-0.023-8e-3 -9.029-3.008-9.029-3.008-0.081-0.039-0.157-0.039-0.238 0l-8.91 2.93c-0.224 0.092-0.277 0.286-0.277 0.396v12.038c0 0.198 0.119 0.357 0.277 0.394l8.798 2.812c0.135 0.051 0.28 0.069 0.465 0l8.794-2.812c0.157-0.08 0.277-0.239 0.277-0.394v-12.038c0-0.118-0.037-0.236-0.157-0.318zm-9.147-2.179 7.642 2.455-2.885 0.927-7.531-2.479 2.774-0.903zm-0.396 16.827-8.118-2.573v-11.195l8.118 2.598v11.17zm0.396-11.916-7.643-2.414 3.6-1.176 7.504 2.479-3.461 1.111zm0.395 11.916v-11.203l4.038-1.278v1.242l0.791-0.339v-1.152l3.285-1.037v11.156h4e-3l-8.118 2.611z" fill="url(#a)"/>
<rect x="-2425.3" y="2560.9" width="24" height="24" fill="none"/>
</svg>
