<?xml version="1.0" encoding="UTF-8"?>
<svg enable-background="new -2204.347 2363.86 24 24" version="1.1" viewBox="-2204.3 2363.9 24 24" xml:space="preserve" xmlns="http://www.w3.org/2000/svg">
			<g fill="#2754A2">
				<path d="m-2192.3 2365.5c-2.212 0-4.011 1.799-4.011 4.011v0.097h-2.652c-0.215 0-0.397 0.165-0.418 0.38l-1.208 13.626v0.038c0 1.461 1.347 2.647 3.006 2.647h10.569c1.659 0 3.006-1.187 3.006-2.647v-0.038l-1.212-13.626c-0.021-0.215-0.198-0.38-0.418-0.38h-2.652v-0.097c2e-3 -2.212-1.797-4.011-4.01-4.011zm-3.175 4.011c0-1.752 1.423-3.175 3.175-3.175s3.175 1.423 3.175 3.175v0.097h-6.351v-0.097h1e-3zm9.454 0.933 1.174 13.225c-0.013 0.992-0.979 1.794-2.17 1.794h-10.564c-1.191 0-2.158-0.802-2.17-1.794l1.174-13.225h2.267v1.934c0 0.232 0.186 0.418 0.418 0.418s0.418-0.186 0.418-0.418v-1.934h6.351v1.934c0 0.232 0.186 0.418 0.418 0.418s0.418-0.186 0.418-0.418v-1.934h2.266z"/>
				<path d="m-2190.1 2376.3-3.154 3.154-1.33-1.33c-0.165-0.165-0.427-0.165-0.591 0-0.165 0.165-0.165 0.427 0 0.591l1.626 1.626c0.08 0.08 0.19 0.122 0.296 0.122 0.105 0 0.215-0.042 0.295-0.122l3.45-3.45c0.165-0.165 0.165-0.427 0-0.591-0.165-0.16-0.427-0.16-0.592 0z"/>
			</g>
		<rect x="-2204.3" y="2363.9" width="24" height="24" fill="none"/>
	<path d="m-2186.6 2370.9 1.252 14.107c-0.014 1.058-1.045 1.914-2.315 1.914h-11.269c-1.27 0-2.302-0.856-2.315-1.914l1.252-14.107h13.395z" fill="#F6A531" opacity=".54"/>
</svg>
