<?xml version="1.0" encoding="UTF-8"?>
<svg enable-background="new -2201.513 2563.526 24 24" version="1.1" viewBox="-2201.5 2563.5 24 24" xml:space="preserve" xmlns="http://www.w3.org/2000/svg">
			<linearGradient id="e" x1="-2196.5" x2="-2182.1" y1="2574.7" y2="2574.7" gradientUnits="userSpaceOnUse">
				<stop stop-color="#80d34c" offset="0"/>
				<stop stop-color="#80d34c" offset="1"/>
			</linearGradient>
			<path d="m-2182.1 2573.9c0-0.885-0.722-1.606-1.605-1.606h-2.952c0.717-0.806 1.186-1.725 1.276-2.546 0.055-0.502-0.099-1.002-0.427-1.373-0.297-0.334-0.705-0.521-1.146-0.527h-0.017c-0.428 0-0.831 0.165-1.132 0.466-0.303 0.3-0.472 0.702-0.473 1.128-0.015 0.095-0.179 0.417-0.582 0.8-0.33 0.313-0.899 0.745-1.739 1.017-0.331 0.107-0.631 0.303-0.895 0.585-0.14 0.147-0.346 0.352-0.605 0.558-0.126-0.07-0.268-0.107-0.421-0.107h-2.803c-0.5 0-0.906 0.408-0.906 0.907v7.476c0 0.496 0.406 0.904 0.906 0.904h2.803c0.34 0 0.637-0.187 0.791-0.466h7.154c0.757 0 1.373-0.616 1.373-1.376 0-0.251-0.069-0.49-0.19-0.696 0.394-0.242 0.657-0.677 0.657-1.174 0-0.251-0.069-0.49-0.192-0.696 0.395-0.242 0.659-0.677 0.659-1.17 0-0.288-0.089-0.555-0.239-0.775 0.425-0.287 0.705-0.775 0.705-1.329zm-1.605 0.729h-0.234c-0.242 0-0.438 0.199-0.438 0.441 0 0.239 0.196 0.438 0.438 0.438 0.276 0 0.496 0.22 0.496 0.496 0 0.273-0.22 0.496-0.496 0.496h-0.467c-0.241 0-0.438 0.196-0.438 0.435 0 0.245 0.198 0.441 0.438 0.441 0.274 0 0.498 0.224 0.498 0.493 0 0.276-0.224 0.5-0.498 0.5h-0.468c-0.242 0-0.438 0.193-0.438 0.438 0 0.239 0.196 0.435 0.438 0.435 0.274 0 0.496 0.224 0.496 0.496 0 0.276-0.222 0.496-0.496 0.496h-7.039v-4.229c0-0.242-0.196-0.438-0.44-0.438-0.24 0-0.436 0.193-0.436 0.438v4.672c0 0.015-0.014 0.028-0.029 0.028h-2.803c-0.015 0-0.029-0.012-0.029-0.028v-7.476c0-0.018 0.014-0.031 0.029-0.031h2.803c0.015 0 0.029 0.012 0.029 0.031v0.931c0 0.245 0.196 0.438 0.436 0.438 0.244 0 0.44-0.193 0.44-0.438v-0.931c0-0.025-1e-3 -0.043-3e-3 -0.064 0.328-0.254 0.59-0.512 0.761-0.692 0.162-0.175 0.34-0.294 0.527-0.352 1.031-0.334 1.725-0.873 2.126-1.269 0.501-0.493 0.801-1.005 0.801-1.373 0-0.193 0.075-0.38 0.213-0.515 0.14-0.138 0.323-0.208 0.524-0.208 0.245 0 0.408 0.126 0.503 0.233 0.159 0.178 0.238 0.435 0.21 0.69-0.097 0.87-0.792 1.949-1.774 2.742-0.144 0.116-0.199 0.313-0.138 0.487 0.063 0.175 0.228 0.291 0.413 0.291h4.044c0.403 0 0.729 0.328 0.729 0.729 1e-3 0.405-0.325 0.729-0.728 0.729z" fill="url(#e)"/>
			<linearGradient id="d" x1="-2194.6" x2="-2193.7" y1="2579.3" y2="2579.3" gradientUnits="userSpaceOnUse">
				<stop stop-color="#80d34c" offset="0"/>
				<stop stop-color="#80d34c" offset="1"/>
			</linearGradient>
			<path d="m-2194.2 2578.8c-0.242 0-0.439 0.196-0.439 0.438s0.198 0.441 0.439 0.441c0.242 0 0.44-0.199 0.44-0.441s-0.198-0.438-0.44-0.438z" fill="url(#d)"/>
			<linearGradient id="c" x1="-2182.7" x2="-2181.2" y1="2567.9" y2="2567.9" gradientUnits="userSpaceOnUse">
				<stop stop-color="#80d34c" offset="0"/>
				<stop stop-color="#80d34c" offset="1"/>
			</linearGradient>
			<path d="m-2181.3 2568c-0.11-0.116-0.222-0.236-0.337-0.349-0.113-0.113-0.233-0.227-0.351-0.337-0.179-0.163-0.455-0.15-0.619 0.028-0.164 0.177-0.152 0.457 0.026 0.619 0.11 0.101 0.219 0.206 0.325 0.31 0.104 0.104 0.208 0.214 0.31 0.325 0.086 0.092 0.205 0.141 0.323 0.141 0.106 0 0.211-0.037 0.295-0.113 0.18-0.167 0.191-0.443 0.028-0.624z" fill="url(#c)"/>
			<linearGradient id="b" x1="-2200.7" x2="-2183.3" y1="2573.6" y2="2573.6" gradientUnits="userSpaceOnUse">
				<stop stop-color="#80d34c" offset="0"/>
				<stop stop-color="#80d34c" offset="1"/>
			</linearGradient>
			<path d="m-2183.5 2566.1c-2.113-1.345-4.656-1.942-7.162-1.685-2.542 0.263-4.939 1.406-6.748 3.217-1.995 1.992-3.154 4.639-3.268 7.454-0.113 2.794 0.813 5.512 2.609 7.647 0.086 0.101 0.21 0.153 0.336 0.153 0.099 0 0.199-0.033 0.282-0.101 0.184-0.156 0.208-0.432 0.053-0.619-1.654-1.967-2.509-4.467-2.405-7.047 0.104-2.592 1.175-5.031 3.01-6.869 1.668-1.67 3.879-2.721 6.221-2.963 2.31-0.239 4.654 0.31 6.6 1.551 0.205 0.132 0.475 0.07 0.605-0.135 0.13-0.201 0.07-0.474-0.133-0.603z" fill="url(#b)"/>
			<linearGradient id="a" x1="-2196.9" x2="-2178.3" y1="2578" y2="2578" gradientUnits="userSpaceOnUse">
				<stop stop-color="#80d34c" offset="0"/>
				<stop stop-color="#80d34c" offset="1"/>
			</linearGradient>
			<path d="m-2180.1 2569.5c-0.13-0.205-0.401-0.264-0.605-0.132-0.204 0.129-0.263 0.398-0.133 0.604 1.24 1.946 1.791 4.29 1.552 6.6-0.244 2.344-1.296 4.553-2.964 6.219-1.837 1.835-4.277 2.908-6.871 3.012-2.577 0.104-5.08-0.751-7.047-2.405-0.184-0.153-0.461-0.132-0.617 0.052-0.156 0.187-0.13 0.463 0.054 0.619 2.018 1.697 4.555 2.619 7.189 2.619 0.152 0 0.305-3e-3 0.458-9e-3 2.814-0.116 5.461-1.275 7.453-3.269 1.811-1.808 2.954-4.207 3.216-6.75 0.259-2.503-0.34-5.049-1.685-7.16z" fill="url(#a)"/>
<rect x="-2201.5" y="2563.5" width="24" height="24" fill="none"/>
</svg>
