<?xml version="1.0" encoding="UTF-8"?>
<svg enable-background="new -2037.68 2567.526 24 24" version="1.1" viewBox="-2037.7 2567.5 24 24" xml:space="preserve" xmlns="http://www.w3.org/2000/svg">
			<linearGradient id="b" x1="-2025.7" x2="-2016.8" y1="2580.9" y2="2580.9" gradientUnits="userSpaceOnUse">
				<stop stop-color="#80d34c" offset="0"/>
				<stop stop-color="#80d34c" offset="1"/>
			</linearGradient>
			<path d="m-2020.6 2577c-2.124 0-3.852 1.729-3.852 3.853v0.013l-0.763-1.148c-0.074-0.113-0.227-0.144-0.34-0.069s-0.144 0.228-0.069 0.341l1.106 1.665c0.04 0.061 0.104 0.098 0.175 0.107 0.011 2e-3 0.021 2e-3 0.031 2e-3 0.06 0 0.118-0.023 0.164-0.063l1.538-1.386c0.1-0.091 0.109-0.245 0.018-0.348-0.091-0.1-0.246-0.108-0.348-0.019l-1.021 0.924v-0.019c0-1.854 1.507-3.361 3.36-3.361s3.361 1.507 3.361 3.361c0 1.855-1.507 3.362-3.359 3.362-0.897 0-1.742-0.35-2.375-0.984-0.096-0.097-0.251-0.097-0.347 0-0.097 0.097-0.097 0.251 0 0.347 0.728 0.728 1.694 1.128 2.723 1.128 2.122 0 3.851-1.727 3.851-3.853 0-2.125-1.729-3.853-3.853-3.853z" fill="url(#b)"/>
			<linearGradient id="a" x1="-2032.8" x2="-2018.6" y1="2579.5" y2="2579.5" gradientUnits="userSpaceOnUse">
				<stop stop-color="#80d34c" offset="0"/>
				<stop stop-color="#80d34c" offset="1"/>
			</linearGradient>
			<path d="m-2019 2585.1c-0.227 0-0.413 0.184-0.413 0.414v1.776h-3.77v-1.776c0-0.229-0.185-0.414-0.413-0.414h-4.239c-0.229 0-0.414 0.184-0.414 0.414 0 0.227 0.185 0.411 0.414 0.411h3.826v1.365h-8.01v-12.942h3.77v1.777c0 0.23 0.185 0.414 0.414 0.414h4.239c0.227 0 0.413-0.184 0.413-0.414v-1.777h3.77v2.306c0 0.227 0.185 0.411 0.413 0.411s0.412-0.184 0.412-0.411v-2.72c0-0.031-4e-3 -0.064-0.01-0.093l-3e-3 -0.012c-4e-3 -0.015-8e-3 -0.029-0.015-0.041 0-4e-3 -1e-3 -6e-3 -2e-3 -9e-3 -6e-3 -0.016-0.015-0.033-0.023-0.047-1e-3 -2e-3 -3e-3 -6e-3 -5e-3 -8e-3 -7e-3 -0.012-0.016-0.025-0.025-0.037-1e-3 -2e-3 -3e-3 -4e-3 -4e-3 -6e-3l-2.002-2.566c-0.078-0.099-0.198-0.159-0.325-0.159h-6.417c-0.227 0-0.412 0.186-0.412 0.414 0 0.227 0.185 0.411 0.412 0.411h6.216l1.358 1.741h-11.742l1.482-1.901c0.141-0.178 0.109-0.438-0.071-0.579-0.18-0.139-0.439-0.107-0.579 0.073l-2.002 2.566c-1e-3 2e-3 -3e-3 4e-3 -4e-3 6e-3 -9e-3 0.012-0.016 0.025-0.025 0.037-2e-3 2e-3 -3e-3 6e-3 -4e-3 8e-3 -9e-3 0.014-0.017 0.031-0.024 0.047 0 0-1e-3 4e-3 -2e-3 9e-3 -5e-3 0.012-0.01 0.027-0.015 0.041 0 4e-3 -1e-3 8e-3 -2e-3 0.012-7e-3 0.029-0.011 0.062-0.011 0.093v13.77c0 0.228 0.184 0.412 0.412 0.412h13.43c0.227 0 0.412-0.184 0.412-0.412v-2.19c3e-3 -0.23-0.182-0.414-0.41-0.414zm-5.008-10.753v1.365h-3.415v-1.365h3.415z" fill="url(#a)"/>
	<rect x="-2037.7" y="2567.5" width="24" height="24" fill="none"/>
</svg>
