<?xml version="1.0" encoding="UTF-8"?>
<svg enable-background="new -2464.347 2560.86 24 24" version="1.1" viewBox="-2464.3 2560.9 24 24" xml:space="preserve" xmlns="http://www.w3.org/2000/svg">
			<linearGradient id="a" x1="-2462.6" x2="-2442.1" y1="2572.9" y2="2572.9" gradientUnits="userSpaceOnUse">
				<stop stop-color="#80d34c" offset="0"/>
				<stop stop-color="#80d34c" offset="1"/>
			</linearGradient>
			<path d="m-2443.7 2565.9c-1.077-1.102-2.517-1.706-4.055-1.706-1.514 0-2.938 0.589-4.009 1.659l-0.553 0.553-0.553-0.553c-1.071-1.07-2.495-1.661-4.009-1.661-1.515 0-2.939 0.591-4.01 1.661-1.07 1.07-1.66 2.494-1.66 4.01 0 1.513 0.59 2.94 1.66 4.01l7.087 7.084c0.41 0.41 0.947 0.616 1.484 0.616 0.539 0 1.076-0.206 1.486-0.616l7.041-7.04c2.211-2.211 2.251-5.807 0.091-8.017zm-0.834 7.275-7.041 7.042c-0.41 0.41-1.076 0.41-1.485 0l-7.086-7.086c-0.872-0.873-1.354-2.033-1.354-3.267s0.481-2.396 1.354-3.267c0.872-0.873 2.033-1.355 3.268-1.355 1.234 0 2.393 0.481 3.267 1.355l0.553 0.553-0.848 0.849c-0.204 0.204-0.204 0.537 1e-3 0.743 0.102 0.101 0.236 0.152 0.37 0.152s0.269-0.051 0.372-0.152l2.143-2.145c0.873-0.873 2.033-1.355 3.267-1.355 1.254 0 2.427 0.495 3.305 1.393 1.758 1.8 1.721 4.735-0.086 6.54z" fill="url(#a)"/>
	<rect x="-2464.3" y="2560.9" width="24" height="24" fill="none"/>
</svg>
