<?xml version="1.0" encoding="UTF-8"?>
<svg enable-background="new -2383.013 2560.86 24 24" version="1.1" viewBox="-2383 2560.9 24 24" xml:space="preserve" xmlns="http://www.w3.org/2000/svg">
			<linearGradient id="b" x1="-2379.3" x2="-2362.7" y1="2572.9" y2="2572.9" gradientUnits="userSpaceOnUse">
				<stop stop-color="#80d34c" offset="0"/>
				<stop stop-color="#80d34c" offset="1"/>
			</linearGradient>
			<path d="m-2371 2562.5c-2.212 0-4.011 1.799-4.011 4.011v0.097h-2.652c-0.215 0-0.397 0.165-0.418 0.38l-1.208 13.626v0.038c0 1.461 1.347 2.647 3.006 2.647h10.569c1.659 0 3.006-1.187 3.006-2.647v-0.038l-1.212-13.626c-0.021-0.215-0.198-0.38-0.418-0.38h-2.652v-0.097c2e-3 -2.212-1.797-4.011-4.01-4.011zm-3.175 4.011c0-1.752 1.423-3.175 3.175-3.175s3.175 1.423 3.175 3.175v0.097h-6.351v-0.097h1e-3zm9.454 0.933 1.174 13.225c-0.013 0.992-0.979 1.794-2.17 1.794h-10.564c-1.191 0-2.158-0.802-2.17-1.794l1.174-13.225h2.267v1.934c0 0.232 0.186 0.418 0.418 0.418s0.418-0.186 0.418-0.418v-1.934h6.351v1.934c0 0.232 0.186 0.418 0.418 0.418s0.418-0.186 0.418-0.418v-1.934h2.266z" fill="url(#b)"/>
			<linearGradient id="a" x1="-2374" x2="-2368.1" y1="2575.3" y2="2575.3" gradientUnits="userSpaceOnUse">
				<stop stop-color="#80d34c" offset="0"/>
				<stop stop-color="#80d34c" offset="1"/>
			</linearGradient>
			<path d="m-2368.8 2573.3-3.154 3.154-1.33-1.33c-0.165-0.165-0.427-0.165-0.591 0-0.165 0.165-0.165 0.427 0 0.591l1.626 1.626c0.08 0.08 0.19 0.122 0.296 0.122 0.105 0 0.215-0.042 0.295-0.122l3.45-3.45c0.165-0.165 0.165-0.427 0-0.591-0.166-0.16-0.428-0.16-0.592 0z" fill="url(#a)"/>
	<rect x="-2383" y="2560.9" width="24" height="24" fill="none"/>
</svg>
