<?xml version="1.0" encoding="UTF-8"?>
<svg enable-background="new -2244.597 2563.526 24 24" version="1.1" viewBox="-2244.6 2563.5 24 24" xml:space="preserve" xmlns="http://www.w3.org/2000/svg">
				<linearGradient id="c" x1="-2243.1" x2="-2222.1" y1="2575.5" y2="2575.5" gradientUnits="userSpaceOnUse">
					<stop stop-color="#80d34c" offset="0"/>
					<stop stop-color="#80d34c" offset="1"/>
				</linearGradient>
				<path d="m-2225.2 2568.1c-1.986-1.986-4.626-3.079-7.434-3.079s-5.448 1.094-7.434 3.079c-1.986 1.986-3.079 4.626-3.079 7.434s1.094 5.448 3.079 7.434c1.986 1.986 4.626 3.079 7.434 3.079s5.448-1.094 7.434-3.079c1.986-1.986 3.079-4.626 3.079-7.434s-1.093-5.449-3.079-7.434zm-7.434 17.109c-5.335 0-9.676-4.341-9.676-9.676s4.341-9.676 9.676-9.676 9.676 4.341 9.676 9.676-4.341 9.676-9.676 9.676z" fill="url(#c)"/>
				<linearGradient id="b" x1="-2234.1" x2="-2231.1" y1="2577.2" y2="2577.2" gradientUnits="userSpaceOnUse">
					<stop stop-color="#80d34c" offset="0"/>
					<stop stop-color="#80d34c" offset="1"/>
				</linearGradient>
				<path d="m-2232.6 2572.1c-0.808 0-1.466 0.658-1.466 1.466v7.288c0 0.808 0.658 1.466 1.466 1.466s1.466-0.658 1.466-1.466v-7.288c0-0.809-0.657-1.466-1.466-1.466zm0.628 8.754c0 0.346-0.282 0.628-0.628 0.628s-0.628-0.282-0.628-0.628v-7.288c0-0.346 0.282-0.628 0.628-0.628s0.628 0.282 0.628 0.628v7.288z" fill="url(#b)"/>
				<linearGradient id="a" x1="-2234.1" x2="-2231.1" y1="2570.2" y2="2570.2" gradientUnits="userSpaceOnUse">
					<stop stop-color="#80d34c" offset="0"/>
					<stop stop-color="#80d34c" offset="1"/>
				</linearGradient>
				<path d="m-2231.6 2569.1c-0.273-0.272-0.651-0.429-1.036-0.429s-0.763 0.156-1.037 0.429c-0.273 0.273-0.429 0.651-0.429 1.037 0 0.385 0.156 0.763 0.43 1.037 0.273 0.273 0.651 0.429 1.036 0.429s0.763-0.156 1.037-0.43c0.273-0.273 0.429-0.651 0.429-1.036-1e-3 -0.386-0.157-0.764-0.43-1.037zm-0.592 1.481c-0.117 0.117-0.279 0.184-0.445 0.184s-0.327-0.067-0.444-0.183c-0.117-0.117-0.184-0.28-0.184-0.445 0-0.166 0.067-0.327 0.183-0.444 0.117-0.117 0.28-0.184 0.445-0.184s0.327 0.067 0.444 0.184 0.184 0.279 0.184 0.444-0.067 0.327-0.183 0.444z" fill="url(#a)"/>
	<rect x="-2244.6" y="2563.5" width="24" height="24" fill="none"/>
</svg>
