<?xml version="1.0" encoding="UTF-8"?>
<svg enable-background="new -2243.722 2518.36 24 24" version="1.1" viewBox="-2243.7 2518.4 24 24" xml:space="preserve" xmlns="http://www.w3.org/2000/svg">
		<linearGradient id="b" x1="-2240.1" x2="-2223.3" y1="2530.4" y2="2530.4" gradientUnits="userSpaceOnUse">
			<stop stop-color="#80d34c" offset="0"/>
			<stop stop-color="#80d34c" offset="1"/>
		</linearGradient>
		<path d="m-2225.6 2527.7v-2.139c0-3.047-2.735-5.525-6.097-5.525s-6.097 2.479-6.097 5.525v2.139c-1.296 0.223-2.286 1.353-2.286 2.712v7.447c0 1.519 1.236 2.754 2.755 2.754h11.258c1.519 0 2.755-1.236 2.755-2.755v-7.447c-1e-3 -1.358-0.992-2.488-2.288-2.711zm-11.432-2.139c0-2.627 2.393-4.763 5.335-4.763s5.335 2.137 5.335 4.763v2.096h-10.67v-2.096zm12.957 12.298c0 1.099-0.894 1.993-1.992 1.993h-11.258c-1.099 0-1.992-0.894-1.992-1.993v-7.447c0-1.099 0.894-1.992 1.992-1.992h11.258c1.099 0 1.992 0.894 1.992 1.992v7.447z" fill="url(#b)"/>
		<linearGradient id="a" x1="-2233.2" x2="-2230.2" y1="2533.4" y2="2533.4" gradientUnits="userSpaceOnUse">
			<stop stop-color="#80d34c" offset="0"/>
			<stop stop-color="#80d34c" offset="1"/>
		</linearGradient>
		<path d="m-2231.7 2530.7c-0.841 0-1.524 0.684-1.524 1.524v2.287c0 0.841 0.684 1.524 1.524 1.524s1.524-0.684 1.524-1.524v-2.287c0-0.841-0.683-1.524-1.524-1.524zm0.763 3.811c0 0.42-0.342 0.762-0.762 0.762s-0.762-0.342-0.762-0.762v-2.287c0-0.42 0.342-0.762 0.762-0.762s0.762 0.342 0.762 0.762v2.287z" fill="url(#a)"/>
	<rect x="-2243.7" y="2518.4" width="24" height="24" fill="none"/>
</svg>
