<?xml version="1.0" encoding="UTF-8"?>
<svg enable-background="new -2626.347 2563.526 24 24" version="1.1" viewBox="-2626.3 2563.5 24 24" xml:space="preserve" xmlns="http://www.w3.org/2000/svg">
		<linearGradient id="a" x1="-2624.8" x2="-2603.9" y1="2575.5" y2="2575.5" gradientUnits="userSpaceOnUse">
			<stop stop-color="#80d34c" offset="0"/>
			<stop stop-color="#80d34c" offset="1"/>
		</linearGradient>
		<path d="m-2607 2568.2c-4.058-4.056-10.658-4.056-14.715 0-1.424 1.422-2.398 3.211-2.817 5.171-0.408 1.91-0.275 3.885 0.386 5.718 0.08 0.221 0.321 0.333 0.543 0.255 0.22-0.08 0.333-0.323 0.254-0.542-0.606-1.684-0.729-3.5-0.354-5.255 0.384-1.798 1.28-3.441 2.587-4.747 3.727-3.728 9.79-3.728 13.517 0 1.774 1.773 2.769 4.132 2.797 6.643 0.029 2.502-0.905 4.881-2.629 6.695-0.021 0.021-0.04 0.043-0.06 0.064-0.035 0.039-0.072 0.077-0.108 0.114-3.727 3.726-9.79 3.726-13.517 0-0.021-0.021-0.04-0.039-0.058-0.059-1e-3 -0.041-2e-3 -0.08-2e-3 -0.116 0-0.084 1e-3 -0.171 5e-3 -0.255 1e-3 -0.03 3e-3 -0.057 4e-3 -0.084 3e-3 -0.057 6e-3 -0.112 9e-3 -0.169 3e-3 -0.034 7e-3 -0.066 9e-3 -0.1 5e-3 -0.05 9e-3 -0.1 0.015-0.15 3e-3 -0.036 9e-3 -0.071 0.014-0.105 6e-3 -0.05 0.011-0.096 0.018-0.144 6e-3 -0.036 0.012-0.073 0.017-0.107 8e-3 -0.048 0.016-0.093 0.024-0.139 7e-3 -0.037 0.015-0.073 0.022-0.11 9e-3 -0.045 0.018-0.089 0.028-0.134 8e-3 -0.037 0.017-0.073 0.026-0.109 0.01-0.043 0.021-0.087 0.032-0.13 0.01-0.039 0.021-0.073 0.03-0.109 0.012-0.043 0.025-0.087 0.037-0.13 0.01-0.036 0.022-0.071 0.033-0.107 0.014-0.043 0.027-0.084 0.042-0.128 0.012-0.034 0.024-0.071 0.038-0.105 0.015-0.043 0.03-0.084 0.045-0.125 0.014-0.037 0.027-0.071 0.041-0.105 0.017-0.041 0.033-0.082 0.05-0.123 0.016-0.034 0.03-0.069 0.046-0.103 0.018-0.041 0.036-0.08 0.054-0.121 0.016-0.034 0.032-0.066 0.048-0.103 0.021-0.039 0.04-0.077 0.059-0.118 0.017-0.032 0.034-0.064 0.051-0.098 0.022-0.039 0.043-0.077 0.065-0.116 0.017-0.032 0.035-0.064 0.055-0.096 0.022-0.039 0.044-0.077 0.067-0.114 0.019-0.032 0.039-0.066 0.058-0.096 0.024-0.036 0.048-0.075 0.072-0.112 0.021-0.032 0.041-0.062 0.063-0.091 0.024-0.039 0.05-0.075 0.075-0.109 0.022-0.032 0.043-0.061 0.065-0.091 0.026-0.036 0.053-0.073 0.08-0.107 0.023-0.027 0.046-0.057 0.068-0.087 0.028-0.034 0.056-0.071 0.083-0.105 0.025-0.027 0.048-0.057 0.071-0.084 0.03-0.034 0.059-0.068 0.09-0.103 0.024-0.025 0.048-0.052 0.072-0.082 0.032-0.032 0.063-0.064 0.093-0.098 0.025-0.025 0.05-0.052 0.075-0.077 0.032-0.032 0.065-0.066 0.098-0.098 0.026-0.022 0.051-0.048 0.077-0.075 0.034-0.032 0.068-0.062 0.103-0.094 0.026-0.023 0.052-0.048 0.079-0.071 0.035-0.032 0.072-0.062 0.108-0.094 0.026-0.02 0.052-0.043 0.08-0.066 0.037-0.032 0.075-0.061 0.114-0.091 0.027-0.021 0.052-0.041 0.08-0.062 0.04-0.032 0.082-0.062 0.123-0.089 0.025-0.018 0.05-0.039 0.078-0.057 0.044-0.032 0.091-0.064 0.137-0.093 0.024-0.016 0.045-0.032 0.07-0.046 0.06-0.039 0.121-0.078 0.183-0.116 9e-3 -4e-3 0.018-0.011 0.027-0.016 0.073-0.043 0.145-0.087 0.218-0.125 0.025-0.014 0.051-0.027 0.076-0.039 0.049-0.027 0.097-0.055 0.146-0.08 0.032-0.014 0.065-0.03 0.097-0.046 0.04-0.021 0.081-0.039 0.121-0.057 0.769 0.731 1.792 1.148 2.854 1.148 1.063 0 2.087-0.417 2.855-1.151 1.497 0.695 2.724 1.939 3.39 3.452 0.094 0.214 0.344 0.31 0.558 0.216 0.214-0.096 0.311-0.344 0.218-0.558-0.729-1.655-1.996-2.979-3.602-3.776 0.466-0.684 0.718-1.488 0.718-2.322 0-2.281-1.856-4.136-4.137-4.136-0.234 0-0.424 0.189-0.424 0.424 0 0.232 0.19 0.424 0.424 0.424 1.814 0 3.291 1.475 3.291 3.289 0 0.812-0.302 1.593-0.85 2.199v2e-3c-0.625 0.691-1.514 1.089-2.441 1.089s-1.815-0.399-2.441-1.089v-2e-3c-0.547-0.606-0.849-1.388-0.849-2.197 0-0.887 0.347-1.716 0.977-2.341 0.166-0.164 0.167-0.433 3e-3 -0.599-0.165-0.166-0.433-0.166-0.599-2e-3 -0.792 0.782-1.227 1.828-1.227 2.94 0 0.832 0.25 1.638 0.716 2.32-5e-3 2e-3 -7e-3 5e-3 -0.011 7e-3 -0.034 0.016-0.066 0.034-0.098 0.05-0.05 0.027-0.102 0.052-0.15 0.08-0.035 0.018-0.069 0.039-0.104 0.059-0.047 0.025-0.092 0.052-0.138 0.077-0.036 0.023-0.07 0.043-0.106 0.064-0.043 0.03-0.088 0.055-0.131 0.084-0.035 0.021-0.07 0.043-0.104 0.068-0.042 0.027-0.083 0.055-0.125 0.084-0.035 0.025-0.068 0.05-0.102 0.073-0.04 0.03-0.081 0.059-0.12 0.089-0.034 0.025-0.069 0.05-0.103 0.077-0.038 0.03-0.075 0.059-0.114 0.091-0.033 0.025-0.066 0.052-0.099 0.08-0.038 0.032-0.074 0.064-0.11 0.096-0.033 0.027-0.064 0.055-0.096 0.084-0.037 0.032-0.073 0.066-0.108 0.098-0.031 0.03-0.062 0.059-0.093 0.087-0.034 0.034-0.068 0.068-0.104 0.105-0.03 0.03-0.059 0.057-0.088 0.089-0.034 0.036-0.068 0.071-0.102 0.107-0.028 0.03-0.056 0.061-0.083 0.091-0.033 0.037-0.066 0.075-0.099 0.114-0.025 0.03-0.052 0.059-0.077 0.091-0.034 0.039-0.066 0.08-0.098 0.121-0.025 0.03-0.049 0.059-0.073 0.089-0.034 0.045-0.066 0.089-0.1 0.132-0.021 0.03-0.041 0.057-0.062 0.084-0.042 0.059-0.082 0.116-0.122 0.176-0.011 0.016-0.022 0.032-0.033 0.048-0.05 0.075-0.098 0.148-0.146 0.226-0.016 0.025-0.032 0.052-0.048 0.08-0.03 0.05-0.06 0.1-0.09 0.153-0.019 0.032-0.035 0.064-0.054 0.096-0.025 0.048-0.052 0.093-0.076 0.141-0.018 0.034-0.035 0.071-0.054 0.105-0.023 0.046-0.047 0.091-0.068 0.137-0.019 0.036-0.034 0.075-0.052 0.109-0.021 0.048-0.042 0.091-0.062 0.139-0.017 0.036-0.033 0.075-0.048 0.111-0.019 0.048-0.039 0.091-0.057 0.139-0.015 0.039-0.031 0.077-0.045 0.116-0.017 0.046-0.034 0.091-0.051 0.139-0.015 0.039-0.027 0.077-0.041 0.118-0.016 0.046-0.031 0.094-0.046 0.142-0.012 0.039-0.026 0.08-0.038 0.121-0.014 0.046-0.027 0.096-0.04 0.141-0.013 0.041-0.023 0.082-0.033 0.123-0.012 0.048-0.024 0.096-0.035 0.146-0.01 0.041-0.019 0.08-0.029 0.121-0.011 0.05-0.022 0.1-0.031 0.148-9e-3 0.041-0.017 0.082-0.024 0.123-0.01 0.05-0.018 0.103-0.026 0.153-7e-3 0.041-0.014 0.08-0.02 0.121-7e-3 0.052-0.014 0.105-0.021 0.159-6e-3 0.039-0.01 0.077-0.015 0.116-6e-3 0.055-0.01 0.112-0.016 0.167-2e-3 0.039-7e-3 0.075-0.01 0.112-3e-3 0.064-7e-3 0.125-9e-3 0.189-2e-3 0.032-4e-3 0.062-6e-3 0.094-4e-3 0.093-5e-3 0.189-5e-3 0.282 0 0.103 3e-3 0.198 7e-3 0.305 1e-3 0.025 4e-3 0.05 0.01 0.073v4e-3c6e-3 0.023 0.013 0.046 0.022 0.066 1e-3 4e-3 2e-3 4e-3 2e-3 9e-3 9e-3 0.02 0.021 0.041 0.033 0.059 1e-3 2e-3 2e-3 4e-3 4e-3 7e-3 0.012 0.018 0.026 0.036 0.041 0.052 2e-3 2e-3 2e-3 5e-3 2e-3 5e-3l0.057 0.059c0.043 0.046 0.084 0.091 0.129 0.135 2.028 2.028 4.693 3.042 7.357 3.042s5.329-1.014 7.357-3.042c0.044-0.043 0.086-0.089 0.129-0.135l0.056-0.059c1.877-1.974 2.893-4.563 2.861-7.29-0.027-2.728-1.109-5.296-3.04-7.229z" fill="url(#a)"/>
	<rect x="-2626.3" y="2563.5" width="24" height="24" fill="none"/>
</svg>
