<?xml version="1.0" encoding="UTF-8"?>
<svg enable-background="new -2294.18 2560.86 24 24" version="1.1" viewBox="-2294.2 2560.9 24 24" xml:space="preserve" xmlns="http://www.w3.org/2000/svg">
			<linearGradient id="b" x1="-2292.6" x2="-2271.8" y1="2572.9" y2="2572.9" gradientUnits="userSpaceOnUse">
				<stop stop-color="#80d34c" offset="0"/>
				<stop stop-color="#80d34c" offset="1"/>
			</linearGradient>
			<path d="m-2271.8 2572.9c0-5.73-4.662-10.392-10.392-10.392-0.233 0-0.42 0.187-0.42 0.419v3.844h-0.195c-1.945 0-3.53 1.581-3.53 3.53v5.2c0 1.945 1.581 3.53 3.53 3.53h1.225c1.945 0 3.53-1.581 3.53-3.53v-5.204c0-1.945-1.581-3.53-3.53-3.53h-0.195v-3.416c5.077 0.22 9.137 4.42 9.137 9.548 0 3.374-1.725 6.429-4.611 8.179-2.984 1.805-6.624 1.835-9.985 0.081-1.382-0.725-2.496-1.839-3.221-3.225-2.259-4.335-1.513-9.112 1.903-12.159 0.174-0.153 0.187-0.42 0.034-0.594s-0.42-0.187-0.594-0.034c-1.699 1.517-2.869 3.577-3.293 5.802-0.458 2.42-0.042 4.971 1.204 7.366 0.801 1.542 2.039 2.78 3.577 3.581 1.78 0.932 3.636 1.394 5.45 1.394 1.877 0 3.713-0.5 5.361-1.5 3.142-1.898 5.015-5.224 5.015-8.89zm-9.777-5.294c1.483 0 2.691 1.208 2.691 2.691v5.2c0 1.483-1.208 2.691-2.691 2.691h-1.225c-1.483 0-2.691-1.208-2.691-2.691v-5.2c0-1.483 1.208-2.691 2.691-2.691h1.225z" fill="url(#b)"/>
			<linearGradient id="a" x1="-2282.6" x2="-2281.8" y1="2570.3" y2="2570.3" gradientUnits="userSpaceOnUse">
				<stop stop-color="#80d34c" offset="0"/>
				<stop stop-color="#80d34c" offset="1"/>
			</linearGradient>
			<path d="m-2282.2 2571.8c0.233 0 0.419-0.187 0.419-0.419v-2.077c0-0.233-0.187-0.42-0.419-0.42-0.233 0-0.42 0.187-0.42 0.42v2.077c0 0.228 0.186 0.419 0.42 0.419z" fill="url(#a)"/>
	<rect x="-2294.2" y="2560.9" width="24" height="24" fill="none"/>
</svg>
