<?xml version="1.0" encoding="UTF-8"?>
<svg enable-background="new -2079.847 2563.526 24 24" version="1.1" viewBox="-2079.8 2563.5 24 24" xml:space="preserve" xmlns="http://www.w3.org/2000/svg">
		<linearGradient id="b" x1="-2070.5" x2="-2065" y1="2572.2" y2="2572.2" gradientUnits="userSpaceOnUse">
			<stop stop-color="#80d34c" offset="0"/>
			<stop stop-color="#80d34c" offset="1"/>
		</linearGradient>
		<path d="m-2067.8 2569.5c-1.514 0-2.749 1.232-2.749 2.748 0 1.517 1.234 2.749 2.749 2.749 1.517 0 2.75-1.232 2.75-2.749-1e-3 -1.517-1.233-2.748-2.75-2.748zm0 4.712c-1.082 0-1.963-0.881-1.963-1.964s0.881-1.964 1.963-1.964c1.083 0 1.964 0.881 1.964 1.964 0 1.084-0.881 1.964-1.964 1.964z" fill="url(#b)"/>
		<linearGradient id="a" x1="-2075.4" x2="-2060.3" y1="2575.5" y2="2575.5" gradientUnits="userSpaceOnUse">
			<stop stop-color="#80d34c" offset="0"/>
			<stop stop-color="#80d34c" offset="1"/>
		</linearGradient>
		<path d="m-2062.5 2567c-1.423-1.42-3.314-2.204-5.325-2.204-2.012 0-3.904 0.784-5.326 2.204-2.632 2.633-2.959 7.586-0.708 10.586l6.034 8.711 6.024-8.7c2.26-3.011 1.934-7.963-0.699-10.597zm0.063 10.139-5.387 7.781-5.397-7.793c-2.042-2.722-1.749-7.195 0.626-9.571 1.274-1.274 2.969-1.976 4.771-1.976s3.495 0.702 4.769 1.976c2.376 2.377 2.668 6.849 0.618 9.583z" fill="url(#a)"/>
	<rect x="-2079.8" y="2563.5" width="24" height="24" fill="none"/>
</svg>
