<?xml version="1.0" encoding="utf-8"?>
<!-- Generator: Adobe Illustrator 22.0.1, SVG Export Plug-In . SVG Version: 6.00 Build 0)  -->
<svg version="1.1" id="Capa_1" xmlns="http://www.w3.org/2000/svg" xmlns:xlink="http://www.w3.org/1999/xlink" x="0px" y="0px"
	 viewBox="0 0 24 24" enable-background="new 0 0 24 24" xml:space="preserve">
<rect y="0" fill="#FFFFFF" width="24" height="24"/>
<g>
	<g>
		<polyline fill="#2BE0C6" points="15.058,11.751 11.577,11.751 11.646,9.742 11.651,9.609 11.713,7.798 14.921,7.798 
			15.058,11.751 		"/>
	</g>
	<g>
		<polyline fill="#FFFFFF" points="14.921,7.798 14.921,7.798 15.058,11.751 14.262,11.751 14.262,11.751 15.058,11.751 
			14.921,7.798 		"/>
	</g>
	<g>
		<polyline fill="#6FEAD8" points="14.921,7.798 13.056,7.798 14.262,11.751 15.058,11.751 14.921,7.798 		"/>
	</g>
	<g>
		<path fill="#FC7A51" d="M14.122,8.21L14.122,8.21c-0.056,0-0.102,0.045-0.102,0.102v0.37c0,0.383-0.302,0.707-0.685,0.716
			c-0.395,0.009-0.719-0.309-0.719-0.702V8.312c0-0.056-0.045-0.102-0.102-0.102s-0.102,0.045-0.102,0.102V8.68
			c0,0.496,0.393,0.912,0.889,0.922c0.508,0.009,0.924-0.401,0.924-0.906V8.312C14.224,8.256,14.178,8.21,14.122,8.21z"/>
	</g>
	<g>
		<path fill="#FC7A51" d="M15.671,11.372c0,0.374-0.231,0.694-0.557,0.825c-0.103,0.041-0.215,0.064-0.332,0.064
			c-0.491,0-0.89-0.398-0.89-0.89c0-0.428,0.302-0.786,0.705-0.871c0.059-0.013,0.121-0.019,0.185-0.019
			C15.272,10.482,15.671,10.88,15.671,11.372z"/>
	</g>
	<g>
		<polyline fill="#32C3AE" points="13.083,9.864 12.781,9.864 12.839,11.553 12.846,11.751 13.148,11.751 13.083,9.864 		"/>
	</g>
	<g>
		<polyline fill="#F9DE58" points="12.909,13.563 9.427,13.563 9.467,12.409 9.564,9.609 12.772,9.609 12.839,11.553 12.909,13.563 
					"/>
	</g>
	<g>
		<path fill="#FC7A51" d="M10.594,13.183c0,0.4-0.265,0.739-0.627,0.85c-0.083,0.026-0.171,0.039-0.262,0.039
			c-0.491,0-0.89-0.398-0.89-0.89c0-0.403,0.267-0.742,0.633-0.852c0.081-0.024,0.168-0.038,0.257-0.038
			C10.196,12.293,10.594,12.691,10.594,13.183z"/>
	</g>
	<g>
		
			<rect x="9.053" y="13.065" transform="matrix(0.7071 -0.7071 0.7071 0.7071 -6.4618 10.7158)" fill="#FFFFFF" width="1.302" height="0.185"/>
	</g>
	<g>
		
			<rect x="9.611" y="12.689" transform="matrix(0.7071 -0.7072 0.7072 0.7071 -6.5911 10.7697)" fill="#FFFFFF" width="0.185" height="1.303"/>
	</g>
	<g>
		
			<rect x="14.11" y="11.187" transform="matrix(0.7071 -0.7071 0.7071 0.7071 -3.6525 13.7411)" fill="#FFFFFF" width="1.302" height="0.185"/>
	</g>
	<g>
		
			<rect x="14.667" y="10.81" transform="matrix(0.7071 -0.7072 0.7072 0.7071 -3.7814 13.7951)" fill="#FFFFFF" width="0.185" height="1.303"/>
	</g>
	<g>
		<polyline fill="#FBE98E" points="12.772,9.609 10.804,9.609 12.008,13.563 12.909,13.563 12.846,11.751 12.839,11.553 
			12.781,9.864 12.772,9.609 		"/>
	</g>
	<g>
		<path fill="#4D4D4D" d="M11.973,10.178L11.973,10.178c-0.056,0-0.102-0.045-0.102-0.102v-0.37c0-0.383-0.302-0.707-0.685-0.716
			C10.79,8.981,10.466,9.3,10.466,9.693v0.383c0,0.056-0.045,0.102-0.102,0.102s-0.102-0.045-0.102-0.102V9.708
			c0-0.496,0.393-0.912,0.889-0.922c0.508-0.009,0.924,0.401,0.924,0.906v0.383C12.075,10.133,12.029,10.178,11.973,10.178z"/>
	</g>
</g>
<g>
	<g>
		<g>
			<path fill="#927DFF" d="M17.814,9.586c-0.073,0-0.142-0.044-0.17-0.115l-0.32-0.802c-0.037-0.094,0.009-0.201,0.102-0.238
				c0.092-0.036,0.2,0.008,0.238,0.102l0.32,0.802c0.037,0.094-0.009,0.201-0.102,0.238C17.86,9.581,17.837,9.586,17.814,9.586z"/>
		</g>
		<g>
			<path fill="#927DFF" d="M17.253,9.344c-0.073,0-0.142-0.044-0.17-0.116c-0.037-0.094,0.009-0.2,0.102-0.238l0.802-0.32
				c0.093-0.036,0.2,0.008,0.238,0.103c0.037,0.094-0.009,0.2-0.102,0.238l-0.802,0.32C17.299,9.34,17.276,9.344,17.253,9.344z"/>
		</g>
	</g>
	<g>
		<g>
			<path fill="#FA6FE1" d="M8.161,8.641c-0.073,0-0.142-0.044-0.17-0.115l-0.32-0.802C7.634,7.63,7.68,7.524,7.773,7.486
				C7.866,7.45,7.975,7.494,8.012,7.588l0.32,0.802c0.037,0.094-0.009,0.201-0.102,0.238C8.207,8.637,8.184,8.641,8.161,8.641z"/>
		</g>
		<g>
			<path fill="#FA6FE1" d="M7.6,8.4c-0.073,0-0.142-0.044-0.17-0.116c-0.037-0.094,0.009-0.2,0.102-0.238l0.802-0.32
				c0.093-0.036,0.2,0.008,0.238,0.103c0.037,0.094-0.009,0.2-0.102,0.238l-0.802,0.32C7.646,8.396,7.623,8.4,7.6,8.4z"/>
		</g>
	</g>
	<g>
		<g>
			<path fill="#927DFF" d="M16.201,17.445c-0.073,0-0.142-0.044-0.17-0.115l-0.32-0.802c-0.037-0.094,0.009-0.2,0.102-0.238
				c0.092-0.036,0.2,0.009,0.238,0.102l0.32,0.802c0.037,0.094-0.009,0.2-0.102,0.238C16.247,17.441,16.224,17.445,16.201,17.445z"
				/>
		</g>
		<g>
			<path fill="#927DFF" d="M15.641,17.204c-0.073,0-0.142-0.044-0.17-0.115c-0.037-0.094,0.009-0.2,0.102-0.238l0.802-0.32
				c0.093-0.037,0.2,0.008,0.238,0.102c0.037,0.094-0.009,0.2-0.102,0.238l-0.802,0.32C15.687,17.199,15.664,17.204,15.641,17.204z"
				/>
		</g>
	</g>
	<g>
		<g>
			<path fill="#FA6FE1" d="M4.968,13.494c-0.073,0-0.142-0.044-0.17-0.115l-0.319-0.802c-0.037-0.094,0.009-0.201,0.102-0.238
				c0.092-0.036,0.201,0.009,0.238,0.102l0.319,0.802c0.037,0.094-0.009,0.201-0.102,0.238C5.014,13.49,4.991,13.494,4.968,13.494z"
				/>
		</g>
		<g>
			<path fill="#FA6FE1" d="M4.407,13.253c-0.073,0-0.142-0.044-0.17-0.115c-0.037-0.094,0.009-0.2,0.102-0.238l0.802-0.32
				c0.092-0.036,0.201,0.009,0.238,0.102c0.037,0.094-0.009,0.2-0.102,0.238l-0.802,0.32C4.453,13.249,4.43,13.253,4.407,13.253z"/>
		</g>
	</g>
	<g>
		<path fill="#FA6FE1" d="M17.56,12.601c-0.43,0-0.78-0.35-0.78-0.78c0-0.43,0.35-0.78,0.78-0.78c0.43,0,0.78,0.35,0.78,0.78
			C18.34,12.251,17.99,12.601,17.56,12.601z M17.56,11.407c-0.228,0-0.413,0.185-0.413,0.413c0,0.228,0.185,0.413,0.413,0.413
			c0.228,0,0.414-0.185,0.414-0.413C17.974,11.593,17.789,11.407,17.56,11.407z"/>
	</g>
	<g>
		<path fill="#FA6FE1" d="M5.735,16.451c-0.344,0-0.625-0.281-0.625-0.625c0-0.345,0.281-0.626,0.625-0.626
			c0.345,0,0.626,0.281,0.626,0.626C6.36,16.17,6.08,16.451,5.735,16.451z M5.735,15.566c-0.142,0-0.258,0.116-0.258,0.259
			c0,0.142,0.116,0.258,0.258,0.258c0.143,0,0.259-0.116,0.259-0.258C5.994,15.682,5.878,15.566,5.735,15.566z"/>
	</g>
	<g>
		<path fill="#927DFF" d="M12.083,7.463c-0.297,0-0.539-0.242-0.539-0.539s0.242-0.539,0.539-0.539s0.539,0.242,0.539,0.539
			S12.38,7.463,12.083,7.463z M12.083,6.752c-0.095,0-0.173,0.077-0.173,0.173c0,0.095,0.077,0.172,0.173,0.172
			s0.173-0.077,0.173-0.172C12.255,6.83,12.178,6.752,12.083,6.752z"/>
	</g>
	<g>
		<path fill="#927DFF" d="M8.497,5.146c-0.199,0-0.361-0.162-0.361-0.36c0-0.199,0.162-0.361,0.361-0.361
			c0.198,0,0.36,0.162,0.36,0.361C8.857,4.984,8.695,5.146,8.497,5.146z M8.503,4.786L8.497,4.791
			C8.5,4.791,8.503,4.789,8.503,4.786z"/>
	</g>
	<g>
		<path fill="#927DFF" d="M14.381,7.302c-0.127,0-0.23-0.103-0.23-0.23c0-0.127,0.103-0.23,0.23-0.23
			c0.127,0,0.231,0.103,0.231,0.23C14.611,7.199,14.508,7.302,14.381,7.302z M14.381,6.936c-0.075,0-0.136,0.061-0.136,0.136
			s0.061,0.136,0.136,0.136c0.075,0,0.137-0.061,0.137-0.136S14.456,6.936,14.381,6.936z"/>
	</g>
	<g>
		<path fill="#927DFF" d="M20.031,11.028c-0.127,0-0.23-0.103-0.23-0.23c0-0.127,0.103-0.23,0.23-0.23
			c0.127,0,0.231,0.103,0.231,0.23C20.262,10.925,20.159,11.028,20.031,11.028z M20.031,10.662c-0.075,0-0.136,0.061-0.136,0.136
			c0,0.075,0.061,0.136,0.136,0.136s0.137-0.061,0.137-0.136C20.168,10.723,20.107,10.662,20.031,10.662z"/>
	</g>
	<g>
		<path fill="#927DFF" d="M17.23,15.1c-0.127,0-0.231-0.103-0.231-0.23c0-0.127,0.103-0.231,0.231-0.231
			c0.127,0,0.23,0.103,0.23,0.231C17.46,14.997,17.357,15.1,17.23,15.1z M17.23,14.734c-0.075,0-0.137,0.062-0.137,0.137
			c0,0.075,0.062,0.136,0.137,0.136c0.075,0,0.136-0.061,0.136-0.136C17.366,14.795,17.305,14.734,17.23,14.734z"/>
	</g>
</g>
</svg>
