<?xml version="1.0" encoding="utf-8"?>
<!-- Generator: Adobe Illustrator 22.0.1, SVG Export Plug-In . SVG Version: 6.00 Build 0)  -->
<svg version="1.1" id="Capa_1" xmlns="http://www.w3.org/2000/svg" xmlns:xlink="http://www.w3.org/1999/xlink" x="0px" y="0px"
	 viewBox="-2537.347 2675.86 24 24" enable-background="new -2537.347 2675.86 24 24" xml:space="preserve">
<g>
	<g>
		<g>
			<g>
				<path d="M-2515.246,2681.289c-0.086-0.087-0.173-0.173-0.346-0.173h-16.432l-0.433-2.249c0-0.173-0.259-0.346-0.432-0.346
					h-2.594c-0.259,0-0.432,0.173-0.432,0.432s0.173,0.432,0.432,0.432h2.249l2.076,10.551c0.26,1.384,1.557,2.421,2.94,2.421h9.946
					c0.259,0,0.432-0.173,0.432-0.432s-0.173-0.432-0.432-0.432h-9.859c-0.692,0-1.384-0.346-1.729-0.951l12.626-1.73
					c0.173,0,0.346-0.173,0.346-0.346l1.73-6.919C-2515.16,2681.548-2515.16,2681.375-2515.246,2681.289z M-2517.668,2688.035
					l-12.627,1.643l-1.557-7.784h15.654L-2517.668,2688.035z"/>
			</g>
		</g>
		<g>
			<g>
				<path d="M-2528.565,2693.224c-1.211,0-2.162,0.951-2.162,2.162c0,1.211,0.951,2.162,2.162,2.162
					c1.211,0,2.162-0.951,2.162-2.162C-2526.403,2694.175-2527.354,2693.224-2528.565,2693.224z M-2528.565,2696.683
					c-0.692,0-1.297-0.605-1.297-1.297c0-0.692,0.605-1.297,1.297-1.297s1.297,0.605,1.297,1.297
					C-2527.267,2696.078-2527.873,2696.683-2528.565,2696.683z"/>
			</g>
		</g>
		<g>
			<g>
				<path d="M-2519.916,2693.224c-1.211,0-2.162,0.951-2.162,2.162c0,1.211,0.951,2.162,2.162,2.162
					c1.211,0,2.162-0.951,2.162-2.162C-2517.754,2694.175-2518.706,2693.224-2519.916,2693.224z M-2519.916,2696.683
					c-0.692,0-1.297-0.605-1.297-1.297c0-0.692,0.605-1.297,1.297-1.297s1.297,0.605,1.297,1.297
					C-2518.619,2696.078-2519.224,2696.683-2519.916,2696.683z"/>
			</g>
		</g>
	</g>
</g>
</svg>
