<?xml version="1.0" encoding="UTF-8"?>
<svg enable-background="new -2204.347 2518.36 24 24" version="1.1" viewBox="-2204.3 2518.4 24 24" xml:space="preserve" xmlns="http://www.w3.org/2000/svg">
	<linearGradient id="d" x1="-2199.5" x2="-2194.4" y1="2528.5" y2="2528.5" gradientUnits="userSpaceOnUse">
		<stop stop-color="#80d34c" offset="0"/>
		<stop stop-color="#80d34c" offset="1"/>
	</linearGradient>
	<path d="m-2199.2 2528.8h4.448c0.189 0 0.342-0.153 0.342-0.342s-0.153-0.342-0.342-0.342h-4.448c-0.189 0-0.342 0.153-0.342 0.342s0.153 0.342 0.342 0.342z" fill="url(#d)"/>
	<linearGradient id="c" x1="-2199.5" x2="-2190" y1="2530.5" y2="2530.5" gradientUnits="userSpaceOnUse">
		<stop stop-color="#80d34c" offset="0"/>
		<stop stop-color="#80d34c" offset="1"/>
	</linearGradient>
	<path d="m-2190.3 2530.2h-8.895c-0.189 0-0.342 0.153-0.342 0.342s0.153 0.342 0.342 0.342h8.895c0.189 0 0.342-0.153 0.342-0.342s-0.153-0.342-0.342-0.342z" fill="url(#c)"/>
	<linearGradient id="b" x1="-2199.5" x2="-2190" y1="2532.6" y2="2532.6" gradientUnits="userSpaceOnUse">
		<stop stop-color="#80d34c" offset="0"/>
		<stop stop-color="#80d34c" offset="1"/>
	</linearGradient>
	<path d="m-2190.3 2532.2h-8.895c-0.189 0-0.342 0.153-0.342 0.342s0.153 0.342 0.342 0.342h8.895c0.189 0 0.342-0.153 0.342-0.342s-0.153-0.342-0.342-0.342z" fill="url(#b)"/>
	<linearGradient id="a" x1="-2202.6" x2="-2182.1" y1="2530.4" y2="2530.4" gradientUnits="userSpaceOnUse">
		<stop stop-color="#80d34c" offset="0"/>
		<stop stop-color="#80d34c" offset="1"/>
	</linearGradient>
	<path d="m-2184.1 2521-11.68-0.024c-1.119 0-2.029 0.91-2.029 2.029v1.753l-2.761 6e-3c-1.119 0-2.029 0.91-2.029 2.029v7.233c0 1.119 0.91 2.028 2.029 2.028h2.077v3.421c0 0.141 0.087 0.268 0.219 0.319 0.04 0.015 0.082 0.023 0.123 0.023 0.094 0 0.187-0.039 0.253-0.112l3.32-3.652 5.688-0.023c1.119 0 2.029-0.91 2.029-2.028v-0.039l1.799 1.979c0.066 0.073 0.159 0.112 0.253 0.112 0.042 0 0.083-7e-3 0.123-0.023 0.132-0.051 0.219-0.178 0.219-0.319v-3.421h0.366c1.119 0 2.029-0.91 2.029-2.028v-7.233c0-1.119-0.91-2.029-2.028-2.03zm-3.446 13.001c0 0.741-0.603 1.344-1.346 1.344l-5.84 0.024c-0.096 0-0.188 0.041-0.252 0.112l-2.826 3.109v-2.879c0-0.189-0.153-0.342-0.342-0.342h-2.419c-0.741 0-1.344-0.603-1.344-1.344v-7.232c0-0.741 0.603-1.344 1.345-1.344l3.102-7e-3 8.576-0.018c0.741 0 1.344 0.603 1.344 1.344v7.233zm4.789-3.739c0 0.741-0.603 1.344-1.344 1.344h-0.708c-0.189 0-0.342 0.153-0.342 0.342v2.879l-1.71-1.882v-6.177c0-1.119-0.91-2.029-2.03-2.029l-8.234 0.017v-1.752c0-0.741 0.603-1.344 1.344-1.344l11.68 0.024c0.741 0 1.345 0.603 1.345 1.344l-1e-3 7.234z" fill="url(#a)"/>
<rect x="-2204.3" y="2518.4" width="24" height="24" fill="none"/>
</svg>
