<?xml version="1.0" encoding="UTF-8"?>
<svg enable-background="new -2037.68 2518.276 24 24" version="1.1" viewBox="-2037.7 2518.3 24 24" xml:space="preserve" xmlns="http://www.w3.org/2000/svg">
				<linearGradient id="c" x1="-2035.6" x2="-2015.8" y1="2535.2" y2="2535.2" gradientUnits="userSpaceOnUse">
					<stop stop-color="#80d34c" offset="0"/>
					<stop stop-color="#80d34c" offset="1"/>
				</linearGradient>
				<path d="m-2016.3 2531.2c-0.283 0-0.471 0.188-0.471 0.471v6.122c0 0.282-0.188 0.471-0.471 0.471h-16.954c-0.283 0-0.471-0.188-0.471-0.471v-6.122c0-0.282-0.188-0.471-0.471-0.471s-0.471 0.188-0.471 0.471v6.122c0 0.801 0.612 1.413 1.413 1.413h16.954c0.801 0 1.413-0.612 1.413-1.413v-6.122c0-0.282-0.189-0.471-0.471-0.471z" fill="url(#c)"/>
				<linearGradient id="b" x1="-2036" x2="-2015.3" y1="2529.3" y2="2529.3" gradientUnits="userSpaceOnUse">
					<stop stop-color="#80d34c" offset="0"/>
					<stop stop-color="#80d34c" offset="1"/>
				</linearGradient>
				<path d="m-2016.7 2524.6h-17.896c-0.801 0-1.413 0.612-1.413 1.413v3.014c0 0.659 0.471 1.224 1.083 1.366l7.394 1.648v1.507c0 0.282 0.188 0.471 0.471 0.471h2.826c0.283 0 0.471-0.188 0.471-0.471v-1.507l7.394-1.648c0.612-0.141 1.083-0.707 1.083-1.366v-3.014c0-0.801-0.612-1.413-1.413-1.413zm-8.006 8.477h-1.884v-1.884h1.884v1.884zm8.477-4.05c0 0.235-0.141 0.424-0.377 0.471l-7.158 1.601v-0.377c0-0.282-0.188-0.471-0.471-0.471h-2.826c-0.283 0-0.471 0.188-0.471 0.471v0.377l-7.158-1.601c-0.235-0.047-0.377-0.236-0.377-0.471v-3.014c0-0.282 0.188-0.471 0.471-0.471h17.896c0.283 0 0.471 0.188 0.471 0.471v3.014z" fill="url(#b)"/>
				<linearGradient id="a" x1="-2029.4" x2="-2021.9" y1="2522.5" y2="2522.5" gradientUnits="userSpaceOnUse">
					<stop stop-color="#80d34c" offset="0"/>
					<stop stop-color="#80d34c" offset="1"/>
				</linearGradient>
				<path d="m-2023.3 2521.3h-4.709c-0.801 0-1.413 0.612-1.413 1.413v0.471c0 0.282 0.188 0.471 0.471 0.471 0.282 0 0.471-0.188 0.471-0.471v-0.471c0-0.282 0.188-0.471 0.471-0.471h4.709c0.283 0 0.471 0.188 0.471 0.471v0.471c0 0.282 0.188 0.471 0.471 0.471 0.282 0 0.471-0.188 0.471-0.471v-0.471c0-0.8-0.613-1.413-1.413-1.413z" fill="url(#a)"/>
			<rect x="-2037.7" y="2518.3" width="24" height="24" fill="none"/>
</svg>
