<?xml version="1.0" encoding="utf-8"?>
<!-- Generator: Adobe Illustrator 22.0.1, SVG Export Plug-In . SVG Version: 6.00 Build 0)  -->
<svg version="1.1" id="Capa_1" xmlns="http://www.w3.org/2000/svg" xmlns:xlink="http://www.w3.org/1999/xlink" x="0px" y="0px"
	 viewBox="-2298.097 2638.943 24 24" enable-background="new -2298.097 2638.943 24 24" xml:space="preserve">
<g>
	<linearGradient id="SVGID_1_" gradientUnits="userSpaceOnUse" x1="-2290.1743" y1="2650.9431" x2="-2282.019" y2="2650.9431">
		<stop  offset="0" style="stop-color:#80d34c"/>
		<stop  offset="1" style="stop-color:#80d34c"/>
	</linearGradient>
	
		<path fill="none" stroke="url(#SVGID_1_)" stroke-width="0.5" stroke-linecap="round" stroke-linejoin="round" stroke-miterlimit="10" d="
		M-2288.705,2647.115c-0.33,0-0.628,0.314-0.892,0.591c-0.052,0.056-0.104,0.11-0.155,0.16c-0.253,0.252-0.228,0.918,0.065,1.693
		c0.362,0.958,1.08,2.006,2.023,2.949c0.943,0.943,1.99,1.661,2.948,2.022c0.776,0.293,1.44,0.318,1.693,0.066
		c0.051-0.051,0.105-0.102,0.16-0.155c0.284-0.27,0.605-0.574,0.591-0.913c-0.01-0.233-0.179-0.484-0.504-0.744
		c-0.971-0.781-1.243-0.505-1.693-0.049l-0.088,0.089c-0.216,0.216-0.565,0.168-1.04-0.14c-0.33-0.215-0.736-0.563-1.209-1.035
		c-1.168-1.168-1.542-1.882-1.176-2.249l0.088-0.087c0.458-0.45,0.735-0.723-0.047-1.694c-0.261-0.324-0.512-0.493-0.744-0.503
		C-2288.69,2647.115-2288.697,2647.115-2288.705,2647.115z"/>
	<g>
		<g>
			<rect x="-2290.474" y="2646.566" fill="none" width="8.754" height="8.754"/>
		</g>
	</g>
</g>
<g>
	<g>
		<g>
			<linearGradient id="SVGID_2_" gradientUnits="userSpaceOnUse" x1="-2281.8086" y1="2646.1716" x2="-2280.8425" y2="2646.1716">
				<stop  offset="0" style="stop-color:#80d34c"/>
				<stop  offset="1" style="stop-color:#80d34c"/>
			</linearGradient>
			<path fill="url(#SVGID_2_)" d="M-2280.915,2646.192c-0.069-0.073-0.14-0.148-0.212-0.219c-0.071-0.071-0.146-0.143-0.22-0.212
				c-0.113-0.102-0.286-0.094-0.389,0.017c-0.103,0.112-0.095,0.287,0.016,0.389c0.07,0.064,0.138,0.129,0.204,0.195
				c0.065,0.065,0.131,0.135,0.195,0.204c0.054,0.058,0.129,0.089,0.203,0.089c0.066,0,0.133-0.023,0.186-0.071
				C-2280.819,2646.479-2280.813,2646.306-2280.915,2646.192z"/>
		</g>
	</g>
	<g>
		<g>
			<linearGradient id="SVGID_3_" gradientUnits="userSpaceOnUse" x1="-2293.125" y1="2649.7368" x2="-2282.197" y2="2649.7368">
				<stop  offset="0" style="stop-color:#80d34c"/>
				<stop  offset="1" style="stop-color:#80d34c"/>
			</linearGradient>
			<path fill="url(#SVGID_3_)" d="M-2282.324,2645.01c-1.328-0.845-2.926-1.221-4.501-1.059c-1.597,0.166-3.104,0.884-4.241,2.022
				c-1.254,1.252-1.982,2.915-2.053,4.685c-0.071,1.756,0.511,3.464,1.639,4.806c0.054,0.063,0.132,0.096,0.211,0.096
				c0.063,0,0.125-0.021,0.177-0.063c0.116-0.098,0.131-0.271,0.034-0.389c-1.04-1.236-1.577-2.807-1.511-4.428
				c0.065-1.629,0.738-3.162,1.892-4.317c1.048-1.05,2.438-1.71,3.91-1.862c1.452-0.15,2.925,0.195,4.147,0.974
				c0.129,0.083,0.298,0.044,0.38-0.085C-2282.158,2645.262-2282.196,2645.091-2282.324,2645.01z"/>
		</g>
	</g>
	<g>
		<g>
			<linearGradient id="SVGID_4_" gradientUnits="userSpaceOnUse" x1="-2290.7144" y1="2652.5076" x2="-2279.0684" y2="2652.5076">
				<stop  offset="0" style="stop-color:#80d34c"/>
				<stop  offset="1" style="stop-color:#80d34c"/>
			</linearGradient>
			<path fill="url(#SVGID_4_)" d="M-2280.164,2647.17c-0.082-0.129-0.252-0.166-0.38-0.083c-0.128,0.081-0.166,0.25-0.084,0.379
				c0.779,1.223,1.125,2.696,0.975,4.147c-0.153,1.473-0.814,2.861-1.863,3.908c-1.154,1.154-2.688,1.827-4.318,1.893
				c-1.619,0.065-3.192-0.472-4.428-1.511c-0.116-0.096-0.29-0.083-0.388,0.033c-0.098,0.118-0.082,0.291,0.034,0.389
				c1.268,1.067,2.862,1.646,4.518,1.646c0.095,0,0.192-0.002,0.288-0.006c1.769-0.073,3.432-0.801,4.684-2.054
				c1.138-1.136,1.856-2.644,2.021-4.242C-2278.942,2650.097-2279.319,2648.497-2280.164,2647.17z"/>
		</g>
	</g>
</g>
<linearGradient id="SVGID_5_" gradientUnits="userSpaceOnUse" x1="-2297.4167" y1="2661.8335" x2="-2292.1638" y2="2661.8335">
	<stop  offset="0" style="stop-color:#80d34c"/>
	<stop  offset="1" style="stop-color:#80d34c"/>
</linearGradient>
<line fill="none" stroke="url(#SVGID_5_)" stroke-width="0.5" stroke-linecap="round" stroke-linejoin="round" stroke-miterlimit="10" x1="-2297.167" y1="2661.833" x2="-2292.414" y2="2661.833"/>
<linearGradient id="SVGID_6_" gradientUnits="userSpaceOnUse" x1="-2291.3594" y1="2661.8335" x2="-2287.801" y2="2661.8335">
	<stop  offset="0" style="stop-color:#80d34c"/>
	<stop  offset="1" style="stop-color:#80d34c"/>
</linearGradient>
<line fill="none" stroke="url(#SVGID_6_)" stroke-width="0.5" stroke-linecap="round" stroke-linejoin="round" stroke-miterlimit="10" x1="-2291.109" y1="2661.833" x2="-2288.051" y2="2661.833"/>
<linearGradient id="SVGID_7_" gradientUnits="userSpaceOnUse" x1="-2286.948" y1="2661.8335" x2="-2285.1523" y2="2661.8335">
	<stop  offset="0" style="stop-color:#80d34c"/>
	<stop  offset="1" style="stop-color:#80d34c"/>
</linearGradient>
<line fill="none" stroke="url(#SVGID_7_)" stroke-width="0.5" stroke-linecap="round" stroke-linejoin="round" stroke-miterlimit="10" x1="-2286.698" y1="2661.833" x2="-2285.402" y2="2661.833"/>
<linearGradient id="SVGID_8_" gradientUnits="userSpaceOnUse" x1="-2284.4167" y1="2661.8335" x2="-2274.4111" y2="2661.8335">
	<stop  offset="0" style="stop-color:#80d34c"/>
	<stop  offset="1" style="stop-color:#80d34c"/>
</linearGradient>
<line fill="none" stroke="url(#SVGID_8_)" stroke-width="0.5" stroke-linecap="round" stroke-linejoin="round" stroke-miterlimit="10" x1="-2284.167" y1="2661.833" x2="-2274.661" y2="2661.833"/>
<g opacity="0.5">
	
		<line fill="none" stroke="#F6A531" stroke-width="0.5" stroke-linecap="round" stroke-linejoin="round" stroke-miterlimit="10" x1="-2279.333" y1="2641.834" x2="-2280.334" y2="2640.833"/>
	
		<line fill="none" stroke="#F6A531" stroke-width="0.5" stroke-linecap="round" stroke-linejoin="round" stroke-miterlimit="10" x1="-2280.334" y1="2641.834" x2="-2279.333" y2="2640.833"/>
</g>
<g opacity="0.5">
	
		<line fill="none" stroke="#2754A2" stroke-width="0.5" stroke-linecap="round" stroke-linejoin="round" stroke-miterlimit="10" x1="-2294.498" y1="2646.673" x2="-2295.5" y2="2645.671"/>
	
		<line fill="none" stroke="#2754A2" stroke-width="0.5" stroke-linecap="round" stroke-linejoin="round" stroke-miterlimit="10" x1="-2295.5" y1="2646.673" x2="-2294.498" y2="2645.671"/>
</g>
<g opacity="0.5">
	
		<line fill="none" stroke="#F6A531" stroke-width="0.5" stroke-linecap="round" stroke-linejoin="round" stroke-miterlimit="10" x1="-2276.666" y1="2654.73" x2="-2277.667" y2="2653.728"/>
	
		<line fill="none" stroke="#F6A531" stroke-width="0.5" stroke-linecap="round" stroke-linejoin="round" stroke-miterlimit="10" x1="-2277.667" y1="2654.73" x2="-2276.666" y2="2653.728"/>
</g>
<g opacity="0.5">
	
		<line fill="none" stroke="#2754A2" stroke-width="0.5" stroke-linecap="round" stroke-linejoin="round" stroke-miterlimit="10" x1="-2296.165" y1="2656.06" x2="-2297.167" y2="2655.059"/>
	
		<line fill="none" stroke="#2754A2" stroke-width="0.5" stroke-linecap="round" stroke-linejoin="round" stroke-miterlimit="10" x1="-2297.167" y1="2656.06" x2="-2296.165" y2="2655.059"/>
</g>
<circle opacity="0.5" fill="none" stroke="#2754A2" stroke-width="0.5" stroke-linecap="round" stroke-linejoin="round" stroke-miterlimit="10" cx="-2278.146" cy="2645.646" r="0.979"/>
<circle opacity="0.5" fill="none" stroke="#2754A2" stroke-width="0.5" stroke-linecap="round" stroke-linejoin="round" stroke-miterlimit="10" cx="-2293.378" cy="2659.353" r="0.726"/>
<circle opacity="0.5" fill="none" stroke="#F6A531" stroke-width="0.5" stroke-linecap="round" stroke-linejoin="round" stroke-miterlimit="10" cx="-2289.58" cy="2641.816" r="0.583"/>
<circle opacity="0.5" fill="none" stroke="#F6A531" stroke-width="0.5" stroke-linecap="round" stroke-linejoin="round" stroke-miterlimit="10" cx="-2296.374" cy="2640.917" r="0.292"/>
<circle opacity="0.5" fill="none" stroke="#F6A531" stroke-width="0.5" stroke-linecap="round" stroke-linejoin="round" stroke-miterlimit="10" cx="-2276.068" cy="2658.627" r="0.292"/>
<circle opacity="0.5" fill="none" stroke="#F6A531" stroke-width="0.5" stroke-linecap="round" stroke-linejoin="round" stroke-miterlimit="10" cx="-2286.02" cy="2640.548" r="0.077"/>
<circle opacity="0.5" fill="none" stroke="#F6A531" stroke-width="0.5" stroke-linecap="round" stroke-linejoin="round" stroke-miterlimit="10" cx="-2275.083" cy="2642.5" r="0.077"/>
<circle opacity="0.5" fill="none" stroke="#F6A531" stroke-width="0.5" stroke-linecap="round" stroke-linejoin="round" stroke-miterlimit="10" cx="-2276.667" cy="2650.457" r="0.077"/>
</svg>
