<?xml version="1.0" encoding="utf-8"?>
<!-- Generator: Adobe Illustrator 22.0.1, SVG Export Plug-In . SVG Version: 6.00 Build 0)  -->
<svg version="1.1" id="Capa_1" xmlns="http://www.w3.org/2000/svg" xmlns:xlink="http://www.w3.org/1999/xlink" x="0px" y="0px"
	 viewBox="-2286.847 2329.526 24 24" enable-background="new -2286.847 2329.526 24 24" xml:space="preserve">
<g>
	<g>
		<g>
			<path fill="#2754A2" d="M-2264.454,2341.526c0-5.73-4.662-10.392-10.392-10.392c-0.233,0-0.42,0.187-0.42,0.419v3.844h-0.195
				c-1.945,0-3.53,1.581-3.53,3.53v5.2c0,1.945,1.581,3.53,3.53,3.53h1.225c1.945,0,3.53-1.581,3.53-3.53v-5.204
				c0-1.945-1.581-3.53-3.53-3.53h-0.195v-3.416c5.077,0.22,9.137,4.42,9.137,9.548c0,3.374-1.725,6.429-4.611,8.179
				c-2.984,1.805-6.624,1.835-9.985,0.081c-1.382-0.725-2.496-1.839-3.221-3.225c-2.259-4.335-1.513-9.112,1.903-12.159
				c0.174-0.153,0.187-0.42,0.034-0.594c-0.153-0.174-0.42-0.187-0.594-0.034c-1.699,1.517-2.869,3.577-3.293,5.802
				c-0.458,2.42-0.042,4.971,1.204,7.366c0.801,1.542,2.039,2.78,3.577,3.581c1.78,0.932,3.636,1.394,5.45,1.394
				c1.877,0,3.713-0.5,5.361-1.5C-2266.327,2348.519-2264.454,2345.192-2264.454,2341.526z M-2274.231,2336.233
				c1.483,0,2.691,1.208,2.691,2.691v5.2c0,1.483-1.208,2.691-2.691,2.691h-1.225c-1.483,0-2.691-1.208-2.691-2.691v-5.2
				c0-1.483,1.208-2.691,2.691-2.691H-2274.231L-2274.231,2336.233z"/>
			<path fill="#2754A2" d="M-2274.845,2340.467c0.233,0,0.419-0.187,0.419-0.419v-2.077c0-0.233-0.187-0.42-0.419-0.42
				c-0.233,0-0.42,0.187-0.42,0.42v2.077C-2275.265,2340.276-2275.078,2340.467-2274.845,2340.467z"/>
		</g>
	</g>
	<rect x="-2286.847" y="2329.526" fill="none" width="24" height="24"/>
</g>
</svg>
