<?xml version="1.0" encoding="utf-8"?>
<!-- Generator: Adobe Illustrator 22.0.1, SVG Export Plug-In . SVG Version: 6.00 Build 0)  -->
<svg version="1.1" id="Capa_1" xmlns="http://www.w3.org/2000/svg" xmlns:xlink="http://www.w3.org/1999/xlink" x="0px" y="0px"
	 viewBox="-2270.888 1866.548 24 24" enable-background="new -2270.888 1866.548 24 24" xml:space="preserve">
<polygon fill="#FEA832" points="-2265.083,1877.555 -2265.083,1884.712 -2258.753,1886.822 -2252.422,1884.712 -2252.422,1877.555 
	"/>
<polygon fill="#CA80DC" points="-2252.422,1876.763 -2258.753,1878.874 -2265.083,1876.763 -2258.753,1874.653 "/>
<g>
	<polygon fill="#FED42D" points="-2250.101,1875.568 -2256.643,1873.246 -2258.753,1874.653 -2252.422,1876.763 	"/>
	<polygon fill="#FED42D" points="-2258.753,1878.874 -2255.939,1880.984 -2252.45,1879.596 -2250.101,1878.662 -2252.422,1876.763 	
		"/>
	<polygon fill="#FED42D" points="-2260.863,1873.246 -2267.405,1875.568 -2265.083,1876.763 -2258.753,1874.653 	"/>
	<polygon fill="#FED42D" points="-2267.405,1878.662 -2265.056,1879.596 -2261.567,1880.984 -2258.753,1878.874 -2265.083,1876.763 
			"/>
</g>
<path fill="#2754A2" d="M-2253.838,1884.008c0.194,0,0.352-0.157,0.352-0.352c0-0.194-0.157-0.352-0.352-0.352
	c-0.194,0-0.352,0.158-0.352,0.352C-2254.19,1883.851-2254.032,1884.008-2253.838,1884.008z"/>
<path fill="#F6A531" d="M-2255.245,1870.784c0.194,0,0.352-0.158,0.352-0.352s-0.157-0.352-0.352-0.352
	c-0.194,0-0.352,0.158-0.352,0.352S-2255.439,1870.784-2255.245,1870.784z"/>
<path fill="#F6A531" d="M-2262.279,1870.784c0.194,0,0.352-0.158,0.352-0.352s-0.158-0.352-0.352-0.352s-0.352,0.158-0.352,0.352
	S-2262.473,1870.784-2262.279,1870.784z"/>
<path fill="#2754A2" d="M-2257.689,1884.981c0.062,0.184,0.26,0.284,0.445,0.222l2.196-0.732c0.184-0.061,0.284-0.26,0.222-0.445
	c-0.062-0.184-0.26-0.284-0.445-0.222l-2.195,0.731C-2257.65,1884.598-2257.75,1884.797-2257.689,1884.981z"/>
<path fill="#2754A2" d="M-2267.543,1878.989l2.099,0.835v4.888c0,0.151,0.097,0.286,0.24,0.334l6.331,2.11
	c0.001,0,0.001,0,0.002,0.001c0.035,0.011,0.075,0.018,0.109,0.018c0.038,0,0.075-0.006,0.11-0.018c0,0,0.001,0,0.001,0l6.331-2.11
	c0.144-0.048,0.24-0.182,0.24-0.334v-4.888l2.1-0.835c0.249-0.099,0.3-0.429,0.093-0.599l-1.906-1.56l1.845-0.95
	c0.273-0.141,0.246-0.541-0.043-0.644l-6.542-2.321c-0.104-0.037-0.22-0.023-0.313,0.039l-1.915,1.277l-1.915-1.277
	c-0.093-0.062-0.208-0.076-0.313-0.039l-6.542,2.321c-0.003,0.001-0.006,0.003-0.009,0.004c-0.283,0.109-0.301,0.498-0.039,0.638
	c0.001,0.001,0.003,0.002,0.004,0.003l1.845,0.95l-1.906,1.56c0,0,0,0-0.001,0.001
	C-2267.846,1878.563-2267.788,1878.892-2267.543,1878.989z M-2265.02,1877.158l5.51,1.837l-2.119,1.589l-5.1-2.028
	L-2265.02,1877.158z M-2258.762,1875.024l5.218,1.74l-5.218,1.74l-5.219-1.74L-2258.762,1875.024z M-2264.741,1880.104l3.035,1.207
	c0.042,0.017,0.086,0.025,0.13,0.025c0.075,0,0.149-0.024,0.211-0.07l2.251-1.688v6.757l-5.627-1.876V1880.104z M-2252.783,1884.458
	l-5.627,1.876v-6.757l2.251,1.688c0.097,0.073,0.226,0.091,0.341,0.046l3.035-1.207V1884.458z M-2255.895,1880.584l-2.119-1.589
	l5.51-1.837l1.709,1.398L-2255.895,1880.584z M-2256.603,1873.637l5.609,1.99l-1.467,0.756l-5.508-1.836L-2256.603,1873.637z
	 M-2260.92,1873.637l1.365,0.91l-5.508,1.836l-1.467-0.756L-2260.92,1873.637z"/>
<path fill="#F6A531" d="M-2259.465,1870.573h0.352v0.352c0,0.194,0.157,0.352,0.352,0.352c0.194,0,0.352-0.157,0.352-0.352v-0.352
	h0.352c0.194,0,0.352-0.157,0.352-0.352c0-0.194-0.158-0.352-0.352-0.352h-0.352v-0.352c0-0.194-0.157-0.352-0.352-0.352
	c-0.194,0-0.352,0.157-0.352,0.352v0.352h-0.352c-0.194,0-0.352,0.157-0.352,0.352
	C-2259.817,1870.416-2259.659,1870.573-2259.465,1870.573z"/>
<path fill="#F6A531" d="M-2265.092,1872.191h0.352v0.352c0,0.194,0.157,0.352,0.352,0.352c0.194,0,0.352-0.157,0.352-0.352v-0.352
	h0.352c0.194,0,0.352-0.157,0.352-0.352c0-0.194-0.157-0.352-0.352-0.352h-0.352v-0.352c0-0.194-0.157-0.352-0.352-0.352
	c-0.194,0-0.352,0.157-0.352,0.352v0.352h-0.352c-0.194,0-0.352,0.157-0.352,0.352
	C-2265.444,1872.034-2265.287,1872.191-2265.092,1872.191z"/>
<path fill="#F6A531" d="M-2253.838,1872.191h0.352v0.352c0,0.194,0.157,0.352,0.352,0.352c0.194,0,0.352-0.157,0.352-0.352v-0.352
	h0.352c0.194,0,0.352-0.157,0.352-0.352c0-0.194-0.157-0.352-0.352-0.352h-0.352v-0.352c0-0.194-0.157-0.352-0.352-0.352
	c-0.194,0-0.352,0.157-0.352,0.352v0.352h-0.352c-0.194,0-0.352,0.157-0.352,0.352
	C-2254.19,1872.034-2254.032,1872.191-2253.838,1872.191z"/>
</svg>
