<?xml version="1.0" encoding="utf-8"?>
<!-- Generator: Adobe Illustrator 22.0.1, SVG Export Plug-In . SVG Version: 6.00 Build 0)  -->
<svg version="1.1" id="Capa_1" xmlns="http://www.w3.org/2000/svg" xmlns:xlink="http://www.w3.org/1999/xlink" x="0px" y="0px"
	 viewBox="-2270.888 1899.048 24 24" enable-background="new -2270.888 1899.048 24 24" xml:space="preserve">
<polygon fill="#FEA832" points="-2265.083,1910.055 -2265.083,1917.212 -2258.753,1919.322 -2252.422,1917.212 -2252.422,1910.055 
	"/>
<polygon fill="#CA80DC" points="-2252.422,1909.263 -2258.753,1911.374 -2265.083,1909.263 -2258.753,1907.153 "/>
<g>
	<polygon fill="#FED42D" points="-2250.101,1908.068 -2256.643,1905.746 -2258.753,1907.153 -2252.422,1909.263 	"/>
	<polygon fill="#FED42D" points="-2258.753,1911.374 -2255.939,1913.484 -2252.45,1912.096 -2250.101,1911.162 -2252.422,1909.263 	
		"/>
	<polygon fill="#FED42D" points="-2260.863,1905.746 -2267.405,1908.068 -2265.083,1909.263 -2258.753,1907.153 	"/>
	<polygon fill="#FED42D" points="-2267.405,1911.162 -2265.056,1912.096 -2261.567,1913.484 -2258.753,1911.374 -2265.083,1909.263 
			"/>
</g>
<path d="M-2253.838,1916.508c0.194,0,0.352-0.157,0.352-0.352c0-0.194-0.157-0.352-0.352-0.352c-0.194,0-0.352,0.158-0.352,0.352
	C-2254.19,1916.351-2254.032,1916.508-2253.838,1916.508z"/>
<path d="M-2255.245,1903.284c0.194,0,0.352-0.158,0.352-0.352s-0.157-0.352-0.352-0.352c-0.194,0-0.352,0.158-0.352,0.352
	S-2255.439,1903.284-2255.245,1903.284z"/>
<path d="M-2262.279,1903.284c0.194,0,0.352-0.158,0.352-0.352s-0.158-0.352-0.352-0.352s-0.352,0.158-0.352,0.352
	S-2262.473,1903.284-2262.279,1903.284z"/>
<path d="M-2257.689,1917.481c0.062,0.184,0.26,0.284,0.445,0.222l2.196-0.732c0.184-0.061,0.284-0.26,0.222-0.445
	c-0.062-0.184-0.26-0.284-0.445-0.222l-2.195,0.731C-2257.65,1917.098-2257.75,1917.297-2257.689,1917.481z"/>
<path d="M-2267.543,1911.489l2.099,0.835v4.888c0,0.151,0.097,0.286,0.24,0.334l6.331,2.11c0.001,0,0.001,0,0.002,0.001
	c0.035,0.011,0.075,0.018,0.109,0.018c0.038,0,0.075-0.006,0.11-0.018c0,0,0.001,0,0.001,0l6.331-2.11
	c0.144-0.048,0.24-0.182,0.24-0.334v-4.888l2.1-0.835c0.249-0.099,0.3-0.429,0.093-0.599l-1.906-1.56l1.845-0.95
	c0.273-0.141,0.246-0.541-0.043-0.644l-6.542-2.321c-0.104-0.037-0.22-0.023-0.313,0.039l-1.915,1.277l-1.915-1.277
	c-0.093-0.062-0.208-0.076-0.313-0.039l-6.542,2.321c-0.003,0.001-0.006,0.003-0.009,0.004c-0.283,0.109-0.301,0.498-0.039,0.638
	c0.001,0.001,0.003,0.002,0.004,0.003l1.845,0.95l-1.906,1.56c0,0,0,0-0.001,0.001
	C-2267.846,1911.063-2267.788,1911.392-2267.543,1911.489z M-2265.02,1909.658l5.51,1.837l-2.119,1.589l-5.1-2.028
	L-2265.02,1909.658z M-2258.762,1907.524l5.218,1.74l-5.218,1.74l-5.219-1.74L-2258.762,1907.524z M-2264.741,1912.604l3.035,1.207
	c0.042,0.017,0.086,0.025,0.13,0.025c0.075,0,0.149-0.024,0.211-0.07l2.251-1.688v6.757l-5.627-1.876V1912.604z M-2252.783,1916.958
	l-5.627,1.876v-6.757l2.251,1.688c0.097,0.073,0.226,0.091,0.341,0.046l3.035-1.207V1916.958z M-2255.895,1913.084l-2.119-1.589
	l5.51-1.837l1.709,1.398L-2255.895,1913.084z M-2256.603,1906.137l5.609,1.99l-1.467,0.756l-5.508-1.836L-2256.603,1906.137z
	 M-2260.92,1906.137l1.365,0.91l-5.508,1.836l-1.467-0.756L-2260.92,1906.137z"/>
<path d="M-2259.465,1903.073h0.352v0.352c0,0.194,0.157,0.352,0.352,0.352c0.194,0,0.352-0.157,0.352-0.352v-0.352h0.352
	c0.194,0,0.352-0.157,0.352-0.352c0-0.194-0.158-0.352-0.352-0.352h-0.352v-0.352c0-0.194-0.157-0.352-0.352-0.352
	c-0.194,0-0.352,0.157-0.352,0.352v0.352h-0.352c-0.194,0-0.352,0.157-0.352,0.352
	C-2259.817,1902.916-2259.659,1903.073-2259.465,1903.073z"/>
<path d="M-2265.092,1904.691h0.352v0.352c0,0.194,0.157,0.352,0.352,0.352c0.194,0,0.352-0.157,0.352-0.352v-0.352h0.352
	c0.194,0,0.352-0.157,0.352-0.352c0-0.194-0.157-0.352-0.352-0.352h-0.352v-0.352c0-0.194-0.157-0.352-0.352-0.352
	c-0.194,0-0.352,0.157-0.352,0.352v0.352h-0.352c-0.194,0-0.352,0.157-0.352,0.352
	C-2265.444,1904.534-2265.287,1904.691-2265.092,1904.691z"/>
<path d="M-2253.838,1904.691h0.352v0.352c0,0.194,0.157,0.352,0.352,0.352c0.194,0,0.352-0.157,0.352-0.352v-0.352h0.352
	c0.194,0,0.352-0.157,0.352-0.352c0-0.194-0.157-0.352-0.352-0.352h-0.352v-0.352c0-0.194-0.157-0.352-0.352-0.352
	c-0.194,0-0.352,0.157-0.352,0.352v0.352h-0.352c-0.194,0-0.352,0.157-0.352,0.352
	C-2254.19,1904.534-2254.032,1904.691-2253.838,1904.691z"/>
</svg>
