<?xml version="1.0" encoding="utf-8"?>
<!-- Generator: Adobe Illustrator 18.0.0, SVG Export Plug-In . SVG Version: 6.00 Build 0)  -->
<!DOCTYPE svg PUBLIC "-//W3C//DTD SVG 1.1//EN" "http://www.w3.org/Graphics/SVG/1.1/DTD/svg11.dtd">
<svg version="1.1" id="Layer_1" xmlns="http://www.w3.org/2000/svg" xmlns:xlink="http://www.w3.org/1999/xlink" x="0px" y="0px"
	 viewBox="0 0 77.4 19.7" enable-background="new 0 0 77.4 19.7" xml:space="preserve">
<path fill="#385D8F" d="M5.4,10.3h1.4v6c0,0.1,0.1,0.2,0.2,0.2h2.5c0.1,0,0.2-0.1,0.2-0.2v-5.9h1.7c0.1,0,0.2-0.1,0.2-0.2l0.3-2.2
	c0-0.1,0-0.1-0.1-0.2c0,0-0.1-0.1-0.2-0.1H9.7V6.3c0-0.4,0.2-0.6,0.7-0.6c0.1,0,1.3,0,1.3,0c0.1,0,0.2-0.1,0.2-0.2v-2
	c0-0.1-0.1-0.2-0.2-0.2H9.9c0,0,0,0-0.1,0C9.5,3.2,8.5,3.3,7.6,4c-0.9,0.8-0.8,1.8-0.8,2v1.6H5.4c-0.1,0-0.2,0.1-0.2,0.2v2.2
	C5.1,10.2,5.2,10.3,5.4,10.3z"/>
<rect x="0.2" y="0.2" fill="none" stroke="#FFFFFF" stroke-width="0.3926" stroke-miterlimit="10" width="77" height="19.3"/>
<g>
	<path fill="#FFFFFF" d="M22,5.1h4.4V6h-3.3v2.7h3.1v0.9h-3.1v3.7H22V5.1z"/>
	<path fill="#FFFFFF" d="M30.6,13.3l-0.1-0.7h0c-0.3,0.5-1,0.9-1.8,0.9c-1.2,0-1.8-0.8-1.8-1.7c0-1.4,1.3-2.2,3.5-2.2V9.4
		c0-0.5-0.1-1.4-1.3-1.4c-0.5,0-1.1,0.2-1.5,0.4l-0.2-0.7c0.5-0.3,1.2-0.5,1.9-0.5c1.8,0,2.2,1.2,2.2,2.4v2.2c0,0.5,0,1,0.1,1.4
		H30.6z M30.4,10.3c-1.2,0-2.5,0.2-2.5,1.3c0,0.7,0.5,1,1,1c0.8,0,1.2-0.5,1.4-1c0-0.1,0.1-0.2,0.1-0.3V10.3z"/>
	<path fill="#FFFFFF" d="M37.3,13.1c-0.3,0.1-0.9,0.3-1.7,0.3c-1.8,0-2.9-1.2-2.9-3c0-1.8,1.2-3.1,3.1-3.1c0.6,0,1.2,0.2,1.5,0.3
		l-0.2,0.8c-0.3-0.1-0.7-0.3-1.2-0.3c-1.3,0-2.1,1-2.1,2.2c0,1.4,0.9,2.2,2,2.2c0.6,0,1-0.2,1.3-0.3L37.3,13.1z"/>
	<path fill="#FFFFFF" d="M39.1,10.6c0,1.4,0.9,2,2,2c0.8,0,1.2-0.1,1.6-0.3l0.2,0.8c-0.4,0.2-1,0.4-1.9,0.4c-1.8,0-2.9-1.2-2.9-3
		c0-1.8,1-3.2,2.7-3.2c1.9,0,2.4,1.7,2.4,2.8c0,0.2,0,0.4,0,0.5H39.1z M42.2,9.8c0-0.7-0.3-1.7-1.5-1.7c-1.1,0-1.5,1-1.6,1.7H42.2z"
		/>
	<path fill="#FFFFFF" d="M44.5,13.3c0-0.4,0-1,0-1.5V4.7h1.1v3.7h0c0.4-0.7,1.1-1.1,2-1.1c1.5,0,2.5,1.2,2.5,3
		c0,2.1-1.3,3.1-2.6,3.1c-0.8,0-1.5-0.3-2-1.1h0l0,1H44.5z M45.6,10.9c0,0.1,0,0.3,0,0.4c0.2,0.7,0.8,1.2,1.6,1.2
		c1.1,0,1.8-0.9,1.8-2.3c0-1.2-0.6-2.2-1.7-2.2c-0.7,0-1.4,0.5-1.6,1.3c0,0.1-0.1,0.3-0.1,0.4V10.9z"/>
	<path fill="#FFFFFF" d="M56.7,10.3c0,2.2-1.5,3.1-2.9,3.1c-1.6,0-2.8-1.2-2.8-3c0-2,1.3-3.1,2.9-3.1C55.6,7.3,56.7,8.5,56.7,10.3z
		 M52.1,10.4c0,1.3,0.7,2.3,1.8,2.3c1,0,1.8-1,1.8-2.3c0-1-0.5-2.3-1.8-2.3C52.6,8.1,52.1,9.3,52.1,10.4z"/>
	<path fill="#FFFFFF" d="M63.4,10.3c0,2.2-1.5,3.1-2.9,3.1c-1.6,0-2.8-1.2-2.8-3c0-2,1.3-3.1,2.9-3.1C62.2,7.3,63.4,8.5,63.4,10.3z
		 M58.7,10.4c0,1.3,0.7,2.3,1.8,2.3c1,0,1.8-1,1.8-2.3c0-1-0.5-2.3-1.8-2.3C59.3,8.1,58.7,9.3,58.7,10.4z"/>
	<path fill="#FFFFFF" d="M65.8,10.1L65.8,10.1c0.2-0.2,0.4-0.5,0.5-0.7l1.7-2h1.3l-2.3,2.4l2.6,3.4h-1.3l-2-2.8l-0.5,0.6v2.2h-1.1
		V4.7h1.1V10.1z"/>
</g>
</svg>
