<?xml version="1.0" encoding="utf-8"?>
<!-- Generator: Adobe Illustrator 22.0.1, SVG Export Plug-In . SVG Version: 6.00 Build 0)  -->
<svg version="1.1" id="Capa_1" xmlns="http://www.w3.org/2000/svg" xmlns:xlink="http://www.w3.org/1999/xlink" x="0px" y="0px"
	 viewBox="-2501.347 2808.86 24 24" enable-background="new -2501.347 2808.86 24 24" xml:space="preserve">
<g>
	<g>
		<g>
			<g>
				<path fill="none" stroke="#FFFFFF" stroke-miterlimit="10" d="M-2497.066,2828.026l1.131-1.885
					c0.794-1.322,1.213-2.836,1.213-4.379v-2.246c0-2.964,2.411-5.375,5.375-5.375s5.375,2.411,5.375,5.375v2.246
					c0,1.542,0.419,3.056,1.212,4.379l1.132,1.885H-2497.066L-2497.066,2828.026z"/>
			</g>
		</g>
	</g>
</g>
<path fill="none" stroke="#FFFFFF" stroke-width="1.5" stroke-linecap="round" stroke-linejoin="round" stroke-miterlimit="10" d="
	M-2491.283,2828.247c-0.198,0.339-0.303,0.726-0.303,1.122c0,1.235,1.004,2.24,2.24,2.24s2.24-1.004,2.241-2.24
	c0-0.396-0.105-0.784-0.303-1.122"/>
<path fill="none" stroke="#FFFFFF" stroke-width="1.5" stroke-linecap="round" stroke-linejoin="round" stroke-miterlimit="10" d="
	M-2497.066,2828.026l1.131-1.885c0.794-1.322,1.213-2.836,1.213-4.379v-2.246c0-2.964,2.411-5.375,5.375-5.375
	s5.375,2.411,5.375,5.375v2.246c0,1.542,0.419,3.056,1.212,4.379l1.132,1.885H-2497.066L-2497.066,2828.026z"/>
<path fill="none" stroke="#FFFFFF" stroke-width="1.5" stroke-linecap="round" stroke-linejoin="round" stroke-miterlimit="10" d="
	M-2487.555,2813.693v-1.792c0-0.988-0.803-1.792-1.792-1.792s-1.792,0.803-1.792,1.792v1.792"/>
</svg>
