<?xml version="1.0" encoding="utf-8"?>
<!-- Generator: Adobe Illustrator 22.0.1, SVG Export Plug-In . SVG Version: 6.00 Build 0)  -->
<svg version="1.1" id="Capa_1" xmlns="http://www.w3.org/2000/svg" xmlns:xlink="http://www.w3.org/1999/xlink" x="0px" y="0px"
	 viewBox="-2463.847 2745.36 24 24" enable-background="new -2463.847 2745.36 24 24" xml:space="preserve">
<g>
	<path fill="#231F20" d="M-2450.449,2748.472c-4.899,0-8.884,3.989-8.884,8.888v0.029l-1.759-2.649
		c-0.171-0.261-0.524-0.331-0.784-0.16c-0.26,0.173-0.332,0.525-0.16,0.786l2.552,3.84c0.092,0.14,0.24,0.227,0.403,0.248
		c0.026,0.005,0.047,0.005,0.072,0.005c0.138,0,0.272-0.052,0.377-0.146l3.548-3.196c0.231-0.209,0.251-0.565,0.042-0.802
		c-0.209-0.23-0.566-0.25-0.802-0.043l-2.355,2.131v-0.043c0-4.277,3.476-7.753,7.75-7.753c4.273,0,7.753,3.476,7.753,7.753
		c0,4.278-3.475,7.753-7.749,7.753c-2.07,0-4.018-0.806-5.479-2.271c-0.222-0.223-0.58-0.223-0.801,0
		c-0.223,0.223-0.223,0.579,0,0.802c1.678,1.678,3.908,2.602,6.28,2.602c4.894,0,8.882-3.982,8.882-8.886
		C-2441.563,2752.457-2445.552,2748.472-2450.449,2748.472z"/>
</g>
</svg>
