<?xml version="1.0" encoding="UTF-8"?>
<svg enable-background="new -2482.18 2518.36 24 24" version="1.1" viewBox="-2482.2 2518.4 24 24" xml:space="preserve" xmlns="http://www.w3.org/2000/svg">
	<linearGradient id="a" x1="-2481.2" x2="-2459.2" y1="2530.4" y2="2530.4" gradientUnits="userSpaceOnUse">
		<stop stop-color="#80d34c" offset="0"/>
		<stop stop-color="#80d34c" offset="1"/>
	</linearGradient>
	<path d="m-2477.3 2519.9c-0.904 0-1.721 0.86-2.444 1.621-0.144 0.153-0.286 0.301-0.424 0.439-0.694 0.692-0.625 2.516 0.179 4.643 0.992 2.627 2.961 5.5 5.547 8.085 2.585 2.585 5.455 4.554 8.083 5.545 2.128 0.803 3.949 0.872 4.641 0.18 0.139-0.138 0.287-0.279 0.44-0.424 0.779-0.739 1.66-1.574 1.62-2.504-0.026-0.638-0.491-1.326-1.381-2.041-2.663-2.141-3.407-1.385-4.643-0.133l-0.241 0.244c-0.591 0.591-1.55 0.461-2.851-0.385-0.903-0.589-2.018-1.543-3.315-2.839-3.201-3.204-4.226-5.16-3.223-6.166l0.24-0.239c1.255-1.234 2.014-1.981-0.129-4.645-0.716-0.889-1.402-1.353-2.041-1.38-0.018-1e-3 -0.038-1e-3 -0.058-1e-3z" fill="none" stroke="url(#a)" stroke-linecap="round" stroke-linejoin="round" stroke-miterlimit="10"/>
			<rect x="-2482.2" y="2518.4" width="24" height="24" fill="none"/>
</svg>
