<?xml version="1.0" encoding="UTF-8"?>
<svg enable-background="new -2476.347 2015.548 24 24" version="1.1" viewBox="-2476.3 2015.5 24 24" xml:space="preserve" xmlns="http://www.w3.org/2000/svg">
<g fill="#fff">
	<path d="m-2459.8 2016.7h-9.131c-0.88 0-1.597 0.717-1.597 1.596v18.558c0 0.879 0.717 1.596 1.597 1.596h9.131c0.881 0 1.597-0.717 1.597-1.596v-18.558c0-0.879-0.716-1.596-1.597-1.596zm-10.003 2.899h10.876v13.776h-10.876v-13.776zm0.872-2.175h9.131c0.481 0 0.873 0.391 0.873 0.872v0.579h-10.876v-0.579c0-0.481 0.391-0.872 0.872-0.872zm9.131 20.302h-9.131c-0.481 0-0.872-0.393-0.872-0.872v-2.754h10.876v2.754c0 0.479-0.392 0.872-0.873 0.872z"/>
	<path d="m-2464.3 2034.4c-0.799 0-1.449 0.651-1.449 1.451 0 0.798 0.65 1.448 1.449 1.448 0.8 0 1.451-0.65 1.451-1.448 0-0.801-0.65-1.451-1.451-1.451zm0 2.175c-0.399 0-0.726-0.324-0.726-0.724s0.326-0.727 0.726-0.727 0.726 0.326 0.726 0.727c0 0.4-0.325 0.724-0.726 0.724z"/>
	<path d="m-2465.8 2018.5h1.449c0.2 0 0.363-0.16 0.363-0.362 0-0.2-0.163-0.362-0.363-0.362h-1.449c-0.2 0-0.362 0.162-0.362 0.362 0 0.203 0.161 0.362 0.362 0.362z"/>
	<path d="m-2463.3 2018.5h0.363c0.2 0 0.362-0.16 0.362-0.362 0-0.2-0.162-0.362-0.362-0.362h-0.363c-0.2 0-0.362 0.162-0.362 0.362 0 0.203 0.162 0.362 0.362 0.362z"/>
</g>
</svg>
