<?xml version="1.0" encoding="utf-8"?>
<!-- Generator: Adobe Illustrator 22.0.1, SVG Export Plug-In . SVG Version: 6.00 Build 0)  -->
<svg version="1.1" id="Capa_1" xmlns="http://www.w3.org/2000/svg" xmlns:xlink="http://www.w3.org/1999/xlink" x="0px" y="0px"
	 viewBox="-2340.847 2638.943 24 24" enable-background="new -2340.847 2638.943 24 24" xml:space="preserve">
<g>
	<g>
		<g>
			<linearGradient id="SVGID_1_" gradientUnits="userSpaceOnUse" x1="-2324.5586" y1="2646.1716" x2="-2323.5925" y2="2646.1716">
				<stop  offset="0" style="stop-color:#80d34c"/>
				<stop  offset="1" style="stop-color:#80d34c"/>
			</linearGradient>
			<path fill="url(#SVGID_1_)" d="M-2323.665,2646.192c-0.069-0.073-0.14-0.148-0.212-0.219c-0.071-0.071-0.146-0.143-0.22-0.212
				c-0.113-0.102-0.286-0.094-0.389,0.017c-0.103,0.112-0.095,0.287,0.016,0.389c0.07,0.064,0.138,0.129,0.204,0.195
				c0.065,0.065,0.131,0.135,0.195,0.204c0.054,0.058,0.129,0.089,0.203,0.089c0.066,0,0.133-0.023,0.186-0.071
				C-2323.569,2646.479-2323.563,2646.306-2323.665,2646.192z"/>
		</g>
	</g>
	<g>
		<g>
			<linearGradient id="SVGID_2_" gradientUnits="userSpaceOnUse" x1="-2335.875" y1="2649.7368" x2="-2324.947" y2="2649.7368">
				<stop  offset="0" style="stop-color:#80d34c"/>
				<stop  offset="1" style="stop-color:#80d34c"/>
			</linearGradient>
			<path fill="url(#SVGID_2_)" d="M-2325.074,2645.01c-1.328-0.845-2.926-1.221-4.501-1.059c-1.597,0.166-3.104,0.884-4.241,2.022
				c-1.254,1.252-1.982,2.915-2.053,4.685c-0.071,1.756,0.511,3.464,1.639,4.806c0.054,0.063,0.132,0.096,0.211,0.096
				c0.063,0,0.125-0.021,0.177-0.063c0.116-0.098,0.131-0.271,0.034-0.389c-1.04-1.236-1.577-2.807-1.511-4.428
				c0.065-1.629,0.738-3.162,1.892-4.317c1.048-1.05,2.438-1.71,3.91-1.862c1.452-0.15,2.925,0.195,4.147,0.974
				c0.129,0.083,0.298,0.044,0.38-0.085C-2324.908,2645.262-2324.946,2645.091-2325.074,2645.01z"/>
		</g>
	</g>
	<g>
		<g>
			<linearGradient id="SVGID_3_" gradientUnits="userSpaceOnUse" x1="-2333.4644" y1="2652.5076" x2="-2321.8184" y2="2652.5076">
				<stop  offset="0" style="stop-color:#80d34c"/>
				<stop  offset="1" style="stop-color:#80d34c"/>
			</linearGradient>
			<path fill="url(#SVGID_3_)" d="M-2322.914,2647.17c-0.082-0.129-0.252-0.166-0.38-0.083c-0.128,0.081-0.166,0.25-0.084,0.379
				c0.779,1.223,1.125,2.696,0.975,4.147c-0.153,1.473-0.814,2.861-1.863,3.908c-1.154,1.154-2.688,1.827-4.318,1.893
				c-1.619,0.065-3.192-0.472-4.428-1.511c-0.116-0.096-0.29-0.083-0.388,0.033c-0.098,0.118-0.082,0.291,0.034,0.389
				c1.268,1.067,2.862,1.646,4.518,1.646c0.095,0,0.192-0.002,0.288-0.006c1.769-0.073,3.432-0.801,4.684-2.054
				c1.138-1.136,1.856-2.644,2.021-4.242C-2321.692,2650.097-2322.069,2648.497-2322.914,2647.17z"/>
		</g>
	</g>
</g>
<linearGradient id="SVGID_4_" gradientUnits="userSpaceOnUse" x1="-2340.1667" y1="2661.8335" x2="-2334.9138" y2="2661.8335">
	<stop  offset="0" style="stop-color:#80d34c"/>
	<stop  offset="1" style="stop-color:#80d34c"/>
</linearGradient>
<line fill="none" stroke="url(#SVGID_4_)" stroke-width="0.5" stroke-linecap="round" stroke-linejoin="round" stroke-miterlimit="10" x1="-2339.917" y1="2661.833" x2="-2335.164" y2="2661.833"/>
<linearGradient id="SVGID_5_" gradientUnits="userSpaceOnUse" x1="-2334.1094" y1="2661.8335" x2="-2330.551" y2="2661.8335">
	<stop  offset="0" style="stop-color:#80d34c"/>
	<stop  offset="1" style="stop-color:#80d34c"/>
</linearGradient>
<line fill="none" stroke="url(#SVGID_5_)" stroke-width="0.5" stroke-linecap="round" stroke-linejoin="round" stroke-miterlimit="10" x1="-2333.859" y1="2661.833" x2="-2330.801" y2="2661.833"/>
<linearGradient id="SVGID_6_" gradientUnits="userSpaceOnUse" x1="-2329.698" y1="2661.8335" x2="-2327.9023" y2="2661.8335">
	<stop  offset="0" style="stop-color:#80d34c"/>
	<stop  offset="1" style="stop-color:#80d34c"/>
</linearGradient>
<line fill="none" stroke="url(#SVGID_6_)" stroke-width="0.5" stroke-linecap="round" stroke-linejoin="round" stroke-miterlimit="10" x1="-2329.448" y1="2661.833" x2="-2328.152" y2="2661.833"/>
<linearGradient id="SVGID_7_" gradientUnits="userSpaceOnUse" x1="-2327.1667" y1="2661.8335" x2="-2317.1611" y2="2661.8335">
	<stop  offset="0" style="stop-color:#80d34c"/>
	<stop  offset="1" style="stop-color:#80d34c"/>
</linearGradient>
<line fill="none" stroke="url(#SVGID_7_)" stroke-width="0.5" stroke-linecap="round" stroke-linejoin="round" stroke-miterlimit="10" x1="-2326.917" y1="2661.833" x2="-2317.411" y2="2661.833"/>
<g opacity="0.5">
	
		<line fill="none" stroke="#F6A531" stroke-width="0.5" stroke-linecap="round" stroke-linejoin="round" stroke-miterlimit="10" x1="-2322.083" y1="2641.834" x2="-2323.084" y2="2640.833"/>
	
		<line fill="none" stroke="#F6A531" stroke-width="0.5" stroke-linecap="round" stroke-linejoin="round" stroke-miterlimit="10" x1="-2323.084" y1="2641.834" x2="-2322.083" y2="2640.833"/>
</g>
<g opacity="0.5">
	
		<line fill="none" stroke="#2754A2" stroke-width="0.5" stroke-linecap="round" stroke-linejoin="round" stroke-miterlimit="10" x1="-2337.248" y1="2646.673" x2="-2338.25" y2="2645.671"/>
	
		<line fill="none" stroke="#2754A2" stroke-width="0.5" stroke-linecap="round" stroke-linejoin="round" stroke-miterlimit="10" x1="-2338.25" y1="2646.673" x2="-2337.248" y2="2645.671"/>
</g>
<g opacity="0.5">
	
		<line fill="none" stroke="#F6A531" stroke-width="0.5" stroke-linecap="round" stroke-linejoin="round" stroke-miterlimit="10" x1="-2319.416" y1="2654.73" x2="-2320.417" y2="2653.728"/>
	
		<line fill="none" stroke="#F6A531" stroke-width="0.5" stroke-linecap="round" stroke-linejoin="round" stroke-miterlimit="10" x1="-2320.417" y1="2654.73" x2="-2319.416" y2="2653.728"/>
</g>
<g opacity="0.5">
	
		<line fill="none" stroke="#2754A2" stroke-width="0.5" stroke-linecap="round" stroke-linejoin="round" stroke-miterlimit="10" x1="-2338.915" y1="2656.06" x2="-2339.917" y2="2655.059"/>
	
		<line fill="none" stroke="#2754A2" stroke-width="0.5" stroke-linecap="round" stroke-linejoin="round" stroke-miterlimit="10" x1="-2339.917" y1="2656.06" x2="-2338.915" y2="2655.059"/>
</g>
<circle opacity="0.5" fill="none" stroke="#2754A2" stroke-width="0.5" stroke-linecap="round" stroke-linejoin="round" stroke-miterlimit="10" cx="-2320.896" cy="2645.646" r="0.979"/>
<circle opacity="0.5" fill="none" stroke="#2754A2" stroke-width="0.5" stroke-linecap="round" stroke-linejoin="round" stroke-miterlimit="10" cx="-2336.128" cy="2659.353" r="0.726"/>
<circle opacity="0.5" fill="none" stroke="#F6A531" stroke-width="0.5" stroke-linecap="round" stroke-linejoin="round" stroke-miterlimit="10" cx="-2332.33" cy="2641.816" r="0.583"/>
<circle opacity="0.5" fill="none" stroke="#F6A531" stroke-width="0.5" stroke-linecap="round" stroke-linejoin="round" stroke-miterlimit="10" cx="-2339.124" cy="2640.917" r="0.292"/>
<circle opacity="0.5" fill="none" stroke="#F6A531" stroke-width="0.5" stroke-linecap="round" stroke-linejoin="round" stroke-miterlimit="10" cx="-2318.818" cy="2658.627" r="0.292"/>
<circle opacity="0.5" fill="none" stroke="#F6A531" stroke-width="0.5" stroke-linecap="round" stroke-linejoin="round" stroke-miterlimit="10" cx="-2328.77" cy="2640.548" r="0.077"/>
<circle opacity="0.5" fill="none" stroke="#F6A531" stroke-width="0.5" stroke-linecap="round" stroke-linejoin="round" stroke-miterlimit="10" cx="-2317.833" cy="2642.5" r="0.077"/>
<circle opacity="0.5" fill="none" stroke="#F6A531" stroke-width="0.5" stroke-linecap="round" stroke-linejoin="round" stroke-miterlimit="10" cx="-2319.417" cy="2650.457" r="0.077"/>
<g>
	<g>
		<linearGradient id="SVGID_8_" gradientUnits="userSpaceOnUse" x1="-2332.6096" y1="2650.2346" x2="-2326.8469" y2="2650.2346">
			<stop  offset="0" style="stop-color:#80d34c"/>
			<stop  offset="1" style="stop-color:#80d34c"/>
		</linearGradient>
		
			<circle fill="none" stroke="url(#SVGID_8_)" stroke-width="0.5" stroke-linecap="round" stroke-linejoin="round" stroke-miterlimit="10" cx="-2329.728" cy="2650.235" r="2.631"/>
		<linearGradient id="SVGID_9_" gradientUnits="userSpaceOnUse" x1="-2328.1238" y1="2653.3591" x2="-2325.0837" y2="2653.3591">
			<stop  offset="0" style="stop-color:#80d34c"/>
			<stop  offset="1" style="stop-color:#80d34c"/>
		</linearGradient>
		
			<line fill="none" stroke="url(#SVGID_9_)" stroke-width="0.5" stroke-linecap="round" stroke-linejoin="round" stroke-miterlimit="10" x1="-2325.334" y1="2654.629" x2="-2327.874" y2="2652.089"/>
	</g>
</g>
</svg>
