<?xml version="1.0" encoding="UTF-8"?>
<svg enable-background="new -2122.847 2518.36 24 24" version="1.1" viewBox="-2122.8 2518.4 24 24" xml:space="preserve" xmlns="http://www.w3.org/2000/svg">
				<linearGradient id="c" x1="-2119.8" x2="-2101.9" y1="2530.6" y2="2530.6" gradientUnits="userSpaceOnUse">
					<stop stop-color="#80d34c" offset="0"/>
					<stop stop-color="#80d34c" offset="1"/>
				</linearGradient>
				<path d="m-2102 2537.7-1.539-2.564c-0.709-1.183-1.085-2.538-1.085-3.918v-2.246c0-3.457-2.814-6.271-6.271-6.271s-6.271 2.814-6.271 6.271v2.246c0 1.38-0.375 2.735-1.085 3.918l-1.539 2.564c-0.083 0.138-0.085 0.311-6e-3 0.451 0.08 0.141 0.229 0.228 0.391 0.228h17.02c0.161 0 0.311-0.087 0.391-0.228 0.079-0.141 0.077-0.313-6e-3 -0.451zm-16.614-0.218 1.131-1.885c0.794-1.322 1.213-2.836 1.213-4.379v-2.246c0-2.964 2.411-5.375 5.375-5.375s5.375 2.411 5.375 5.375v2.246c0 1.542 0.419 3.056 1.212 4.379l1.132 1.885h-15.438z" fill="url(#c)"/>
				<linearGradient id="b" x1="-2112.6" x2="-2109.1" y1="2521.6" y2="2521.6" gradientUnits="userSpaceOnUse">
					<stop stop-color="#80d34c" offset="0"/>
					<stop stop-color="#80d34c" offset="1"/>
				</linearGradient>
				<path d="m-2110.8 2519.6c-0.988 0-1.792 0.803-1.792 1.792v1.792c0 0.247 0.201 0.448 0.448 0.448s0.448-0.201 0.448-0.448v-1.792c0-0.494 0.401-0.896 0.896-0.896s0.896 0.401 0.896 0.896v1.792c0 0.247 0.201 0.448 0.448 0.448s0.448-0.201 0.448-0.448v-1.792c0-0.988-0.804-1.792-1.792-1.792z" fill="url(#b)"/>
				<linearGradient id="a" x1="-2113.1" x2="-2108.6" y1="2539.3" y2="2539.3" gradientUnits="userSpaceOnUse">
					<stop stop-color="#80d34c" offset="0"/>
					<stop stop-color="#80d34c" offset="1"/>
				</linearGradient>
				<path d="m-2108.9 2537.7c-0.126-0.213-0.399-0.283-0.614-0.16-0.214 0.125-0.286 0.4-0.16 0.614 0.116 0.198 0.18 0.435 0.18 0.669 0 0.741-0.603 1.344-1.344 1.344s-1.344-0.603-1.344-1.344c0-0.234 0.063-0.471 0.18-0.669 0.125-0.214 0.053-0.488-0.16-0.614-0.216-0.123-0.488-0.053-0.614 0.16-0.198 0.339-0.303 0.726-0.303 1.122 0 1.235 1.004 2.24 2.24 2.24s2.24-1.004 2.241-2.24c1e-3 -0.395-0.104-0.783-0.302-1.122z" fill="url(#a)"/>
			<rect x="-2122.9" y="2518.4" width="24" height="24" fill="none"/>
</svg>
