<?xml version="1.0" encoding="UTF-8"?>
<svg enable-background="new -2403.847 2518.276 24 24" version="1.1" viewBox="-2403.8 2518.3 24 24" xml:space="preserve" xmlns="http://www.w3.org/2000/svg">
<linearGradient id="e" x1="-2395.7" x2="-2387.9" y1="2527.9" y2="2527.9" gradientUnits="userSpaceOnUse">
	<stop stop-color="#80d34c" offset="0"/>
	<stop stop-color="#80d34c" offset="1"/>
</linearGradient>
<path d="m-2395.2 2529.2c0-1.874 1.524-3.398 3.397-3.398s3.397 1.524 3.397 3.398v0.849h-6.795v-0.849z" fill="none" stroke="url(#e)" stroke-linecap="round" stroke-linejoin="round" stroke-miterlimit="10"/>
<linearGradient id="d" x1="-2394.2" x2="-2389.5" y1="2522.8" y2="2522.8" gradientUnits="userSpaceOnUse">
	<stop stop-color="#80d34c" offset="0"/>
	<stop stop-color="#80d34c" offset="1"/>
</linearGradient>
<circle cx="-2391.8" cy="2522.8" r="1.84" fill="none" stroke="url(#d)" stroke-linecap="round" stroke-linejoin="round" stroke-miterlimit="10"/>
<linearGradient id="c" x1="-2402.8" x2="-2380.9" y1="2535.4" y2="2535.4" gradientUnits="userSpaceOnUse">
	<stop stop-color="#80d34c" offset="0"/>
	<stop stop-color="#80d34c" offset="1"/>
</linearGradient>
<polygon points="-2381.4 2538.6 -2402.3 2538.6 -2402.3 2532.3 -2381.4 2532.3" fill="none" stroke="url(#c)" stroke-linecap="round" stroke-linejoin="round" stroke-miterlimit="10"/>
	<linearGradient id="a" x1="-2400.9" x2="-2384" y1="2535.4" y2="2535.4" gradientUnits="userSpaceOnUse">
		<stop stop-color="#80d34c" offset="0"/>
		<stop stop-color="#80d34c" offset="1"/>
	</linearGradient>
	<path d="m-2396.2 2536.1c0.06 0.104 0.168 0.162 0.28 0.162 0.055 0 0.111-0.014 0.161-0.043l0.355-0.205v0.41c0 0.178 0.145 0.323 0.323 0.323s0.323-0.145 0.323-0.323v-0.41l0.355 0.205c0.051 0.029 0.106 0.043 0.161 0.043 0.112 0 0.22-0.058 0.28-0.162 0.089-0.155 0.036-0.352-0.118-0.441l-0.355-0.205 0.355-0.205c0.155-0.089 0.208-0.287 0.118-0.441-0.089-0.155-0.287-0.208-0.441-0.118l-0.355 0.205v-0.41c0-0.178-0.145-0.323-0.323-0.323s-0.323 0.145-0.323 0.323v0.41l-0.355-0.205c-0.155-0.089-0.352-0.036-0.441 0.118s-0.036 0.352 0.118 0.441l0.355 0.205-0.355 0.205c-0.154 0.089-0.207 0.287-0.118 0.441z" fill="url(#a)"/>
	<path d="m-2392.3 2536.1c0.06 0.104 0.168 0.162 0.28 0.162 0.055 0 0.11-0.014 0.161-0.043l0.355-0.205v0.41c0 0.178 0.145 0.323 0.323 0.323s0.323-0.145 0.323-0.323v-0.41l0.355 0.205c0.051 0.029 0.106 0.043 0.161 0.043 0.112 0 0.22-0.058 0.28-0.162 0.089-0.155 0.036-0.352-0.118-0.441l-0.355-0.205 0.355-0.205c0.155-0.089 0.208-0.287 0.118-0.441-0.089-0.155-0.287-0.208-0.441-0.118l-0.355 0.205v-0.41c0-0.178-0.145-0.323-0.323-0.323s-0.323 0.145-0.323 0.323v0.41l-0.355-0.205c-0.155-0.089-0.352-0.036-0.441 0.118-0.089 0.155-0.036 0.352 0.118 0.441l0.355 0.205-0.355 0.205c-0.155 0.089-0.208 0.287-0.118 0.441z" fill="url(#a)"/>
	<path d="m-2400.1 2536.1c0.06 0.104 0.168 0.162 0.28 0.162 0.055 0 0.11-0.014 0.161-0.043l0.355-0.205v0.41c0 0.178 0.145 0.323 0.323 0.323s0.323-0.145 0.323-0.323v-0.41l0.355 0.205c0.051 0.029 0.106 0.043 0.161 0.043 0.112 0 0.22-0.058 0.28-0.162 0.089-0.155 0.036-0.352-0.118-0.441l-0.355-0.205 0.355-0.205c0.155-0.089 0.208-0.287 0.118-0.441-0.089-0.155-0.287-0.208-0.441-0.118l-0.355 0.205v-0.41c0-0.178-0.145-0.323-0.323-0.323s-0.323 0.145-0.323 0.323v0.41l-0.355-0.205c-0.155-0.089-0.352-0.036-0.441 0.118-0.089 0.155-0.036 0.352 0.118 0.441l0.355 0.205-0.355 0.205c-0.154 0.089-0.207 0.287-0.118 0.441z" fill="url(#a)"/>
	<path d="m-2388.4 2536.1c0.06 0.104 0.168 0.162 0.28 0.162 0.055 0 0.11-0.014 0.161-0.043l0.355-0.205v0.41c0 0.178 0.145 0.323 0.323 0.323s0.323-0.145 0.323-0.323v-0.41l0.355 0.205c0.051 0.029 0.106 0.043 0.161 0.043 0.112 0 0.22-0.058 0.28-0.162 0.089-0.155 0.036-0.352-0.118-0.441l-0.355-0.205 0.355-0.205c0.155-0.089 0.208-0.287 0.118-0.441-0.089-0.155-0.287-0.208-0.441-0.118l-0.355 0.205v-0.41c0-0.178-0.145-0.323-0.323-0.323s-0.323 0.145-0.323 0.323v0.41l-0.355-0.205c-0.155-0.089-0.352-0.036-0.441 0.118-0.089 0.155-0.036 0.352 0.118 0.441l0.355 0.205-0.355 0.205c-0.154 0.089-0.207 0.287-0.118 0.441z" fill="url(#a)"/>
	<linearGradient id="b" x1="-2400.9" x2="-2384" y1="2536.4" y2="2536.4" gradientUnits="userSpaceOnUse">
		<stop stop-color="#80d34c" offset="0"/>
		<stop stop-color="#80d34c" offset="1"/>
	</linearGradient>
	<path d="m-2385.3 2536.7h1.341c0.178 0 0.323-0.145 0.323-0.323s-0.145-0.323-0.323-0.323h-1.341c-0.178 0-0.323 0.145-0.323 0.323s0.144 0.323 0.323 0.323z" fill="url(#b)"/>
</svg>
