<?xml version="1.0" encoding="UTF-8"?>
<svg enable-background="new -1768.847 1979.048 24 24" version="1.1" viewBox="-1768.8 1979 24 24" xml:space="preserve" xmlns="http://www.w3.org/2000/svg">
<g fill="#fff">
	<path d="m-1750.8 1988.4v-2.139c0-3.047-2.735-5.526-6.097-5.526s-6.097 2.479-6.097 5.526v2.139c-1.296 0.223-2.286 1.353-2.286 2.712v7.447c0 1.519 1.236 2.754 2.755 2.754h11.258c1.519 0 2.755-1.236 2.755-2.755v-7.447c-1e-3 -1.358-0.991-2.487-2.288-2.711zm-11.432-2.139c0-2.627 2.393-4.763 5.335-4.763s5.335 2.137 5.335 4.763v2.096h-10.67v-2.096zm12.957 12.298c0 1.099-0.894 1.993-1.993 1.993h-11.258c-1.099 0-1.993-0.894-1.993-1.993v-7.447c0-1.099 0.894-1.993 1.993-1.993h11.258c1.099 0 1.993 0.894 1.993 1.993v7.447z"/>
	<path d="m-1756.8 1991.4c-0.841 0-1.524 0.684-1.524 1.524v2.286c0 0.841 0.684 1.524 1.524 1.524s1.524-0.684 1.524-1.524v-2.286c1e-3 -0.84-0.683-1.524-1.524-1.524zm0.762 3.811c0 0.42-0.342 0.762-0.762 0.762s-0.762-0.342-0.762-0.762v-2.286c0-0.42 0.342-0.762 0.762-0.762s0.762 0.342 0.762 0.762v2.286z"/>
</g>
</svg>
