<?xml version="1.0" encoding="utf-8"?>
<!-- Generator: Adobe Illustrator 22.0.1, SVG Export Plug-In . SVG Version: 6.00 Build 0)  -->
<svg version="1.1" id="Capa_1" xmlns="http://www.w3.org/2000/svg" xmlns:xlink="http://www.w3.org/1999/xlink" x="0px" y="0px"
	 viewBox="-2243.722 2518.36 24 24" enable-background="new -2243.722 2518.36 24 24" xml:space="preserve">
<g>
	<g>
		<linearGradient id="SVGID_1_" gradientUnits="userSpaceOnUse" x1="-2240.1052" y1="2530.3596" x2="-2223.3381" y2="2530.3596">
			<stop  offset="0" style="stop-color:#80d34c"/>
			<stop  offset="1" style="stop-color:#80d34c"/>
		</linearGradient>
		<path fill="url(#SVGID_1_)" d="M-2225.625,2527.735v-2.139c0-3.047-2.735-5.525-6.097-5.525s-6.097,2.479-6.097,5.525v2.139
			c-1.296,0.223-2.286,1.353-2.286,2.712v7.447c0,1.519,1.236,2.754,2.755,2.754h11.258c1.519,0,2.755-1.236,2.755-2.755v-7.447
			C-2223.338,2529.088-2224.329,2527.958-2225.625,2527.735z M-2237.057,2525.596c0-2.627,2.393-4.763,5.335-4.763
			s5.335,2.137,5.335,4.763v2.096h-10.67V2525.596z M-2224.1,2537.894c0,1.099-0.894,1.993-1.992,1.993h-11.258
			c-1.099,0-1.992-0.894-1.992-1.993v-7.447c0-1.099,0.894-1.992,1.992-1.992h11.258c1.099,0,1.992,0.894,1.992,1.992V2537.894z"/>
		<linearGradient id="SVGID_2_" gradientUnits="userSpaceOnUse" x1="-2233.2458" y1="2533.4082" x2="-2230.1975" y2="2533.4082">
			<stop  offset="0" style="stop-color:#80d34c"/>
			<stop  offset="1" style="stop-color:#80d34c"/>
		</linearGradient>
		<path fill="url(#SVGID_2_)" d="M-2231.722,2530.741c-0.841,0-1.524,0.684-1.524,1.524v2.287c0,0.841,0.684,1.524,1.524,1.524
			s1.524-0.684,1.524-1.524v-2.287C-2230.198,2531.424-2230.881,2530.741-2231.722,2530.741z M-2230.959,2534.552
			c0,0.42-0.342,0.762-0.762,0.762s-0.762-0.342-0.762-0.762v-2.287c0-0.42,0.342-0.762,0.762-0.762s0.762,0.342,0.762,0.762
			V2534.552z"/>
	</g>
	<rect x="-2243.722" y="2518.36" fill="none" width="24" height="24"/>
</g>
</svg>
