<?xml version="1.0" encoding="utf-8"?>
<!-- Generator: Adobe Illustrator 22.0.1, SVG Export Plug-In . SVG Version: 6.00 Build 0)  -->
<svg version="1.1" id="Capa_1" xmlns="http://www.w3.org/2000/svg" xmlns:xlink="http://www.w3.org/1999/xlink" x="0px" y="0px"
	 viewBox="-2584.347 2480.026 24 24" enable-background="new -2584.347 2480.026 24 24" xml:space="preserve">
<g>
	<polyline fill="#2DC9AF" points="-2571.97,2499.149 -2574.129,2499.149 -2574.129,2498.145 -2571.97,2498.145 -2571.97,2499.149 	
		"/>
	<path fill="#2BE0C6" d="M-2568.541,2491.721v6.146c0,0.244-0.198,0.442-0.441,0.442h-8.134c-0.244,0-0.442-0.198-0.442-0.442
		v-6.146H-2568.541"/>
	<polyline fill="#FFFFFF" points="-2576.945,2497.696 -2576.945,2492.335 -2569.155,2492.335 -2569.155,2497.696 
		-2576.945,2497.696 	"/>
	<path fill="#2BE0C6" d="M-2570.347,2499.426h-5.406c0-0.122,0.05-0.232,0.129-0.312s0.19-0.129,0.312-0.129h4.523
		C-2570.544,2498.984-2570.347,2499.182-2570.347,2499.426"/>
	<path fill="#999999" d="M-2572.771,2495.256c-0.202-0.41-0.611-0.665-1.068-0.665h-0.667c-0.039-0.158-0.132-0.3-0.263-0.398
		c-0.052-0.038-0.08-0.1-0.076-0.164c0.006-0.093,0.083-0.171,0.176-0.176c0.053-0.003,0.104,0.015,0.142,0.051
		c0.039,0.036,0.06,0.085,0.06,0.138h0.344c0-0.146-0.061-0.288-0.168-0.388c-0.108-0.102-0.25-0.153-0.398-0.144
		c-0.267,0.017-0.481,0.231-0.498,0.498c-0.011,0.181,0.069,0.353,0.214,0.461c0.044,0.032,0.079,0.075,0.104,0.123h-0.603
		c-0.457,0-0.866,0.255-1.068,0.665c-0.074,0.15-0.065,0.325,0.023,0.467c0.089,0.142,0.241,0.227,0.409,0.227h2.908
		c0.167,0,0.32-0.085,0.408-0.227C-2572.705,2495.581-2572.697,2495.406-2572.771,2495.256 M-2573.085,2495.541
		c-0.012,0.02-0.048,0.065-0.117,0.065h-2.908c-0.069,0-0.105-0.045-0.117-0.065s-0.037-0.072-0.007-0.134
		c0.144-0.292,0.435-0.473,0.76-0.473h1.634c0.325,0,0.616,0.181,0.76,0.473
		C-2573.048,2495.469-2573.073,2495.522-2573.085,2495.541"/>
	<polyline fill="#F9DE58" points="-2573.46,2497.312 -2575.853,2497.312 -2575.853,2495.435 -2573.46,2495.435 -2573.46,2497.312 	
		"/>
	<polyline fill="#E6E6E6" points="-2569.661,2496.089 -2572.139,2496.089 -2572.139,2496.751 -2569.661,2496.751 
		-2569.661,2496.089 	"/>
	<polyline fill="#E6E6E6" points="-2569.661,2495.161 -2572.139,2495.161 -2572.139,2495.824 -2569.661,2495.824 
		-2569.661,2495.161 	"/>
	<polyline fill="#E6E6E6" points="-2569.661,2494.235 -2572.139,2494.235 -2572.139,2494.897 -2569.661,2494.897 
		-2569.661,2494.235 	"/>
	<path fill="#6FEAD8" d="M-2569.155,2494.012v3.684h-3.69l0.187,0.614h3.675c0.244,0,0.441-0.198,0.441-0.442v-3.855
		c-0.101,0.025-0.204,0.037-0.307,0.037S-2569.054,2494.037-2569.155,2494.012"/>
	<path fill="#FFFFFF" d="M-2573.682,2494.949l0.148,0.486h0.073v0.171h0.258c0.069,0,0.105-0.045,0.117-0.065
		c0.012-0.02,0.037-0.072,0.007-0.134C-2573.199,2495.164-2573.422,2494.997-2573.682,2494.949 M-2572.139,2496.751v-0.663h2.478
		v0.663H-2572.139 M-2572.139,2495.824v-0.663h2.478v0.663H-2572.139 M-2572.139,2494.897v-0.662h2.478v0.662H-2572.139
		 M-2569.688,2493.733L-2569.688,2493.733c-0.241,0.211-0.541,0.316-0.84,0.316c-0.3,0-0.6-0.105-0.84-0.316l0,0l0,0
		c-0.24,0.21-0.541,0.316-0.84,0.316s-0.6-0.105-0.84-0.316l0,0c-0.24,0.211-0.541,0.316-0.84,0.316c-0.022,0-0.044,0-0.066-0.002
		l0.166,0.544c0.438,0.017,0.825,0.268,1.02,0.664c0.074,0.15,0.065,0.325-0.023,0.467c-0.088,0.142-0.241,0.227-0.408,0.227h-0.175
		l0.532,1.746h3.69v-3.684C-2569.347,2493.965-2569.53,2493.872-2569.688,2493.733L-2569.688,2493.733"/>
	<path fill="#BABABA" d="M-2573.791,2494.592l0.109,0.357c0.26,0.048,0.483,0.215,0.603,0.458c0.031,0.062,0.005,0.114-0.007,0.134
		c-0.012,0.02-0.048,0.065-0.117,0.065h-0.258v0.07l0.083,0.273h0.175c0.167,0,0.32-0.085,0.408-0.227
		c0.089-0.142,0.097-0.317,0.023-0.467C-2572.966,2494.86-2573.353,2494.609-2573.791,2494.592"/>
	<polyline fill="#FBE98E" points="-2573.46,2495.435 -2573.534,2495.435 -2573.46,2495.677 -2573.46,2495.606 -2573.46,2495.435 	
		"/>
	<polyline fill="#EEEEEE" points="-2569.661,2496.089 -2572.139,2496.089 -2572.139,2496.751 -2569.661,2496.751 
		-2569.661,2496.089 	"/>
	<polyline fill="#EEEEEE" points="-2569.661,2495.161 -2572.139,2495.161 -2572.139,2495.824 -2569.661,2495.824 
		-2569.661,2495.161 	"/>
	<polyline fill="#EEEEEE" points="-2569.661,2494.235 -2572.139,2494.235 -2572.139,2494.897 -2569.661,2494.897 
		-2569.661,2494.235 	"/>
	<path fill="#6FEAD8" d="M-2570.788,2498.984h-1.182h-1.11l0.135,0.442h2.599
		C-2570.347,2499.182-2570.544,2498.984-2570.788,2498.984"/>
	<path fill="#2EA897" d="M-2574.666,2491.721h-2.893v2.291c0.101,0.025,0.203,0.037,0.306,0.037s0.206-0.012,0.307-0.037v-1.677
		h2.466L-2574.666,2491.721"/>
	<path fill="#BDBDBD" d="M-2574.479,2492.335h-2.466v1.677c0.192-0.048,0.375-0.14,0.533-0.279h0l0,0
		c0.24,0.21,0.54,0.316,0.84,0.316c0.13,0,0.26-0.02,0.385-0.059c0.024-0.259,0.235-0.465,0.497-0.481
		c0.011-0.001,0.023-0.001,0.034-0.001c0.136,0,0.264,0.051,0.364,0.145c0.104,0.097,0.164,0.233,0.168,0.375
		c0.055,0.01,0.111,0.017,0.167,0.02L-2574.479,2492.335"/>
	<path fill="#787878" d="M-2574.656,2493.508c-0.011,0-0.023,0-0.034,0.001c-0.261,0.016-0.472,0.222-0.497,0.481
		c0.164-0.052,0.319-0.137,0.456-0.257l0,0c0.178,0.156,0.388,0.254,0.607,0.294c-0.003-0.142-0.064-0.278-0.168-0.375
		C-2574.391,2493.559-2574.52,2493.508-2574.656,2493.508"/>
	<path fill="#5CAFA3" d="M-2568.541,2491.721h-6.124l0.187,0.614h5.324v1.677c0.101,0.025,0.204,0.037,0.307,0.037
		s0.206-0.012,0.307-0.037V2491.721"/>
	<path fill="#BDBDBD" d="M-2569.155,2492.335h-5.324l0.522,1.713c0.022,0.001,0.044,0.002,0.066,0.002c0.3,0,0.6-0.105,0.84-0.316
		l0,0c0.24,0.21,0.54,0.316,0.84,0.316c0.3,0,0.6-0.105,0.84-0.316l0,0l0,0c0.24,0.211,0.54,0.316,0.84,0.316
		c0.3,0,0.6-0.105,0.84-0.316l0,0l0,0c0.158,0.138,0.341,0.231,0.534,0.279V2492.335"/>
	<path fill="#E6E6E6" d="M-2568.075,2492.727l-0.233-1.275l-0.168-0.917c-0.053-0.293-0.309-0.506-0.607-0.506h-0.979h-1.494h-1.494
		h-1.494h-1.494h-0.979c-0.298,0-0.553,0.213-0.607,0.506l-0.168,0.917l-0.233,1.275c-0.048,0.265,0.103,0.528,0.358,0.616
		c0.421,0.145,0.902,0.062,1.255-0.247h0l0,0c0.481,0.421,1.199,0.421,1.68,0l0,0c0.481,0.421,1.2,0.421,1.681,0l0,0
		c0.481,0.421,1.199,0.421,1.68,0l0,0l0,0c0.481,0.421,1.199,0.421,1.68,0l0,0l0,0c0.353,0.309,0.834,0.391,1.255,0.247
		C-2568.178,2493.255-2568.027,2492.992-2568.075,2492.727z"/>
	<path fill="#FC7A51" d="M-2569.688,2493.096L-2569.688,2493.096L-2569.688,2493.096c-0.481,0.421-1.2,0.421-1.681,0l-0.1-1.644
		l-0.087-1.423h1.494l0.174,1.423L-2569.688,2493.096z"/>
	<path fill="#FC7A51" d="M-2573.05,2490.028v3.068l0,0c-0.481,0.421-1.2,0.421-1.681,0h0l0.101-1.644l0.087-1.423
		C-2574.543,2490.028-2573.05,2490.028-2573.05,2490.028z"/>
	<path fill="#FC7A51" d="M-2576.037,2490.028l-0.174,1.423l-0.201,1.644c-0.353,0.309-0.834,0.391-1.255,0.247
		c-0.255-0.088-0.406-0.35-0.358-0.616l0.233-1.275l0.168-0.917c0.054-0.293,0.309-0.506,0.607-0.506
		C-2577.016,2490.028-2576.037,2490.028-2576.037,2490.028z"/>
	<rect x="-2575.853" y="2495.435" fill="#E0BF20" width="2.392" height="0.343"/>
</g>
<g>
	<g opacity="0.5">
		
			<line fill="none" stroke="#F6A531" stroke-width="0.5" stroke-linecap="round" stroke-linejoin="round" stroke-miterlimit="10" x1="-2564.747" y1="2489.328" x2="-2565.183" y2="2488.234"/>
		
			<line fill="none" stroke="#F6A531" stroke-width="0.5" stroke-linecap="round" stroke-linejoin="round" stroke-miterlimit="10" x1="-2565.512" y1="2488.999" x2="-2564.418" y2="2488.563"/>
	</g>
	<g opacity="0.5">
		
			<line fill="none" stroke="#F6A531" stroke-width="0.5" stroke-linecap="round" stroke-linejoin="round" stroke-miterlimit="10" x1="-2577.915" y1="2488.04" x2="-2578.351" y2="2486.946"/>
		
			<line fill="none" stroke="#F6A531" stroke-width="0.5" stroke-linecap="round" stroke-linejoin="round" stroke-miterlimit="10" x1="-2578.68" y1="2487.711" x2="-2577.586" y2="2487.275"/>
	</g>
	<g opacity="0.5">
		
			<line fill="none" stroke="#F6A531" stroke-width="0.5" stroke-linecap="round" stroke-linejoin="round" stroke-miterlimit="10" x1="-2566.947" y1="2500.049" x2="-2567.383" y2="2498.955"/>
		
			<line fill="none" stroke="#F6A531" stroke-width="0.5" stroke-linecap="round" stroke-linejoin="round" stroke-miterlimit="10" x1="-2567.712" y1="2499.72" x2="-2566.618" y2="2499.284"/>
	</g>
	<g opacity="0.5">
		
			<line fill="none" stroke="#2754A2" stroke-width="0.5" stroke-linecap="round" stroke-linejoin="round" stroke-miterlimit="10" x1="-2582.271" y1="2494.66" x2="-2582.707" y2="2493.566"/>
		
			<line fill="none" stroke="#2754A2" stroke-width="0.5" stroke-linecap="round" stroke-linejoin="round" stroke-miterlimit="10" x1="-2583.036" y1="2494.331" x2="-2581.942" y2="2493.895"/>
	</g>
	
		<circle opacity="0.5" fill="none" stroke="#2754A2" stroke-width="0.5" stroke-linecap="round" stroke-linejoin="round" stroke-miterlimit="10" cx="-2565.093" cy="2492.627" r="0.814"/>
	
		<circle opacity="0.5" fill="none" stroke="#2754A2" stroke-width="0.5" stroke-linecap="round" stroke-linejoin="round" stroke-miterlimit="10" cx="-2581.225" cy="2498.09" r="0.603"/>
	
		<circle opacity="0.5" fill="none" stroke="#2754A2" stroke-width="0.5" stroke-linecap="round" stroke-linejoin="round" stroke-miterlimit="10" cx="-2572.565" cy="2485.948" r="0.485"/>
	
		<circle opacity="0.5" fill="none" stroke="#F6A531" stroke-width="0.5" stroke-linecap="round" stroke-linejoin="round" stroke-miterlimit="10" cx="-2577.457" cy="2483.03" r="0.242"/>
	
		<circle opacity="0.5" fill="none" stroke="#F6A531" stroke-width="0.5" stroke-linecap="round" stroke-linejoin="round" stroke-miterlimit="10" cx="-2569.43" cy="2486.149" r="0.064"/>
	
		<circle opacity="0.5" fill="none" stroke="#2754A2" stroke-width="0.5" stroke-linecap="round" stroke-linejoin="round" stroke-miterlimit="10" cx="-2561.722" cy="2491.232" r="0.064"/>
	
		<circle opacity="0.5" fill="none" stroke="#F6A531" stroke-width="0.5" stroke-linecap="round" stroke-linejoin="round" stroke-miterlimit="10" cx="-2565.544" cy="2496.787" r="0.064"/>
</g>
</svg>
