<?xml version="1.0" encoding="utf-8"?>
<!-- Generator: Adobe Illustrator 22.0.1, SVG Export Plug-In . SVG Version: 6.00 Build 0)  -->
<svg version="1.1" id="Capa_1" xmlns="http://www.w3.org/2000/svg" xmlns:xlink="http://www.w3.org/1999/xlink" x="0px" y="0px"
	 viewBox="-2618.18 2480.026 24 24" enable-background="new -2618.18 2480.026 24 24" xml:space="preserve">
<g>
	<path fill="#FC7A51" d="M-2605.357,2495.409c0,0.403-0.251,0.747-0.605,0.885c-0.107,0.042-0.223,0.065-0.345,0.065
		c-0.524,0-0.949-0.425-0.949-0.949c0-0.453,0.317-0.832,0.742-0.927c0.067-0.015,0.136-0.023,0.207-0.023
		C-2605.782,2494.46-2605.357,2494.885-2605.357,2495.409"/>
	<path fill="#FDA589" d="M-2606.306,2494.46c-0.071,0-0.141,0.008-0.207,0.023l0.552,1.811c0.354-0.138,0.605-0.482,0.605-0.885
		C-2605.357,2494.885-2605.782,2494.46-2606.306,2494.46"/>
	<path fill="#86D359" d="M-2608.698,2495.464c0,0.635-0.39,1.179-0.943,1.406c-0.178,0.073-0.373,0.114-0.577,0.114
		c-0.839,0-1.52-0.68-1.52-1.52c0-0.734,0.521-1.347,1.214-1.489c0.099-0.02,0.201-0.031,0.305-0.031
		C-2609.378,2493.944-2608.698,2494.625-2608.698,2495.464"/>
	<path fill="#ADE18E" d="M-2610.217,2493.944c-0.105,0-0.207,0.011-0.305,0.031l0.882,2.895c0.553-0.227,0.943-0.771,0.943-1.406
		C-2608.698,2494.625-2609.378,2493.944-2610.217,2493.944"/>
	<path fill="#B3B3B3" d="M-2602.634,2496.915c-0.8,0-1.451-0.651-1.451-1.451c0-0.8,0.651-1.451,1.451-1.451
		s1.451,0.651,1.451,1.451C-2601.183,2496.264-2601.834,2496.915-2602.634,2496.915z M-2602.634,2494.321
		c-0.63,0-1.143,0.513-1.143,1.143c0,0.63,0.513,1.143,1.143,1.143s1.143-0.513,1.143-1.143
		C-2601.491,2494.834-2602.004,2494.321-2602.634,2494.321z"/>
	<path fill="#29ABE2" d="M-2602.313,2494.741l-0.085,0.094l0.364,0.33h-1.2l0.364-0.33l-0.085-0.094l-0.515,0.466l0.238,0.979h0.24
		h0.719h0.239l0.238-0.979L-2602.313,2494.741z M-2602.698,2495.462h-0.264l-0.023-0.169h0.287V2495.462z M-2602.57,2495.293h0.287
		l-0.023,0.169h-0.264V2495.293L-2602.57,2495.293z M-2603.09,2495.462h-0.187l-0.041-0.169h0.205L-2603.09,2495.462z
		 M-2603.246,2495.59h0.173l0.024,0.178h-0.154L-2603.246,2495.59z M-2602.944,2495.59h0.247v0.178h-0.223L-2602.944,2495.59z
		 M-2602.57,2495.59h0.247l-0.024,0.178h-0.223V2495.59z M-2602.195,2495.59h0.173l-0.043,0.178h-0.154L-2602.195,2495.59z
		 M-2602.177,2495.462l0.023-0.169h0.205l-0.041,0.169H-2602.177z M-2603.132,2496.059l-0.039-0.162h0.14l0.022,0.162H-2603.132z
		 M-2602.903,2495.896h0.206v0.162h-0.184L-2602.903,2495.896z M-2602.57,2496.059v-0.162h0.206l-0.022,0.162H-2602.57z
		 M-2602.257,2496.059l0.022-0.162h0.14l-0.04,0.162H-2602.257z"/>
	<path fill="#FFFFFF" d="M-2609.666,2495.831c0-0.304-0.247-0.552-0.551-0.552c-0.101,0-0.183-0.082-0.183-0.183
		s0.082-0.183,0.183-0.183h0.367v-0.368h-0.183v-0.316h-0.368v0.348c-0.214,0.076-0.367,0.28-0.367,0.519
		c0,0.304,0.247,0.551,0.551,0.551c0.101,0,0.183,0.082,0.183,0.183c0,0.101-0.082,0.183-0.183,0.183h-0.367v0.368h0.183v0.316
		h0.368v-0.348C-2609.82,2496.274-2609.666,2496.07-2609.666,2495.831z"/>
	<path fill="#FCD18B" d="M-2604.941,2497.48c-0.087-0.089-0.229-0.091-0.318-0.003l-0.312,0.312
		c-0.179,0.179-0.486,0.052-0.486-0.201v-1.897c0-0.117-0.088-0.22-0.205-0.228c-0.067-0.005-0.129,0.021-0.173,0.064
		c-0.04,0.04-0.065,0.095-0.065,0.157v0.971c0-0.06-0.023-0.114-0.062-0.154c-0.015-0.016-0.032-0.03-0.052-0.04
		c-0.032-0.018-0.07-0.029-0.109-0.029c-0.062,0-0.117,0.025-0.158,0.065c-0.04,0.04-0.065,0.096-0.065,0.158v0.076
		c0-0.06-0.024-0.114-0.062-0.154c-0.016-0.017-0.035-0.031-0.055-0.042c-0.031-0.017-0.068-0.027-0.106-0.027
		c-0.062,0-0.117,0.025-0.158,0.065c-0.04,0.041-0.065,0.096-0.065,0.158v0.187c0-0.06-0.023-0.114-0.062-0.154l-0.003-0.003
		c-0.012-0.012-0.025-0.023-0.04-0.032c-0.041-0.026-0.093-0.039-0.147-0.032c-0.112,0.014-0.194,0.115-0.194,0.228v1.089
		c0,0.068,0.011,0.135,0.034,0.198c0.023,0.063,0.056,0.123,0.099,0.176l0.002,0.002c0.129,0.158,0.205,0.352,0.205,0.556v0.384
		h1.444V2499c0-0.148,0.084-0.281,0.215-0.35l0.002-0.001c0.132-0.071,0.253-0.163,0.355-0.274l0.487-0.527l0.057-0.061
		c0.027-0.029,0.045-0.064,0.053-0.101C-2604.868,2497.614-2604.887,2497.536-2604.941,2497.48z"/>
	<path fill="#DDB57A" d="M-2607.391,2496.917v0.495c0,0.017-0.014,0.031-0.031,0.031c-0.017,0-0.031-0.014-0.031-0.031v-0.649
		C-2607.415,2496.803-2607.391,2496.857-2607.391,2496.917z"/>
	<path fill="#DDB57A" d="M-2606.945,2496.73v0.562c0,0.017-0.014,0.031-0.031,0.031s-0.031-0.014-0.031-0.031v-0.716
		C-2606.969,2496.617-2606.945,2496.671-2606.945,2496.73z"/>
	<path fill="#DDB57A" d="M-2606.5,2496.655v0.717c0,0.017-0.014,0.031-0.031,0.031s-0.031-0.014-0.031-0.031v-0.871
		C-2606.523,2496.541-2606.5,2496.595-2606.5,2496.655z"/>
	<path fill="#FFFFFF" d="M-2606.136,2495.683c0-0.079-0.063-0.142-0.142-0.142s-0.142,0.064-0.142,0.142
		c0,0.078,0.063,0.083,0.142,0.083S-2606.136,2495.762-2606.136,2495.683z"/>
	<path fill="#FFFFFF" d="M-2604.885,2497.685c-0.008,0.037-0.026,0.071-0.053,0.101l-0.057,0.061l-0.159-0.159
		C-2605.08,2497.614-2604.96,2497.613-2604.885,2497.685z"/>
	<path fill="#999999" d="M-2605.464,2490.698v-0.166h-1.578c-0.438,0-0.838,0.249-1.032,0.642c-0.033,0.066-0.048,0.137-0.048,0.205
		c0,0.123,0.049,0.238,0.131,0.323c0.041,0.043,0.091,0.078,0.148,0.103s0.12,0.039,0.186,0.039h2.808
		c0.066,0,0.13-0.014,0.186-0.039c0.085-0.037,0.155-0.098,0.203-0.172s0.076-0.162,0.076-0.254c0-0.069-0.016-0.139-0.048-0.205
		c-0.194-0.393-0.594-0.642-1.032-0.642V2490.698v0.166c0.312,0,0.596,0.177,0.734,0.457c0.01,0.021,0.014,0.04,0.014,0.059
		c0,0.034-0.014,0.068-0.038,0.093c-0.012,0.012-0.026,0.022-0.042,0.029c-0.016,0.007-0.033,0.011-0.054,0.011h-2.808
		c-0.021,0-0.038-0.004-0.054-0.011c-0.023-0.01-0.043-0.027-0.058-0.049c-0.014-0.022-0.022-0.048-0.022-0.073
		c0-0.019,0.004-0.038,0.014-0.059c0.138-0.28,0.422-0.457,0.734-0.457h1.578V2490.698L-2605.464,2490.698z"/>
	<path fill="#999999" d="M-2606.087,2490.698L-2606.087,2490.698c0-0.216-0.1-0.42-0.275-0.551
		c-0.022-0.017-0.041-0.039-0.054-0.063c-0.013-0.025-0.02-0.053-0.02-0.083c0-0.004,0-0.008,0-0.011v-0.003v0.002
		c0.003-0.044,0.022-0.085,0.053-0.117c0.031-0.031,0.072-0.051,0.117-0.053c0.004,0,0.008,0,0.012,0
		c0.026,0,0.049,0.005,0.071,0.014c0.032,0.014,0.061,0.037,0.08,0.066c0.02,0.029,0.031,0.063,0.031,0.102h0.332
		c0-0.071-0.014-0.139-0.041-0.2c-0.039-0.093-0.104-0.171-0.186-0.226c-0.082-0.055-0.182-0.088-0.288-0.088
		c-0.011,0-0.022,0-0.033,0.001c-0.129,0.008-0.245,0.064-0.331,0.15s-0.142,0.202-0.15,0.331v0
		c-0.001,0.011-0.001,0.022-0.001,0.033c0,0.084,0.021,0.164,0.057,0.235c0.036,0.07,0.088,0.131,0.151,0.178
		c0.089,0.066,0.141,0.172,0.141,0.284l0,0L-2606.087,2490.698L-2606.087,2490.698L-2606.087,2490.698z"/>
	<rect x="-2608.49" y="2495.418" fill="#2BE0C6" width="0.711" height="0.213"/>
	<rect x="-2604.97" y="2495.418" fill="#2BE0C6" width="0.711" height="0.213"/>
	<rect x="-2606.413" y="2492.405" fill="#2BE0C6" width="0.213" height="1.533"/>
	
		<rect x="-2605.736" y="2493.168" transform="matrix(0.7071 -0.7071 0.7071 0.7071 -2525.7527 -1111.1576)" fill="#2BE0C6" width="3.148" height="0.213"/>
	
		<rect x="-2608.55" y="2491.718" transform="matrix(0.7071 -0.7071 0.7071 0.7071 -2527.0117 -1114.1824)" fill="#2BE0C6" width="0.213" height="3.127"/>
	<path fill="#808080" d="M-2602.332,2491.666l0.622,0.622c0.055,0.056,0.146,0.056,0.201,0c0.056-0.055,0.056-0.146,0-0.201
		l-0.622-0.622c-0.055-0.056-0.146-0.056-0.201,0C-2602.387,2491.52-2602.387,2491.61-2602.332,2491.666"/>
	<path fill="#29ABE2" d="M-2602.122,2491.674c-0.296,0.296-0.777,0.296-1.073,0c-0.296-0.296-0.296-0.777,0-1.073
		s0.777-0.296,1.073,0S-2601.826,2491.378-2602.122,2491.674z M-2602.978,2490.819c-0.176,0.176-0.176,0.462,0,0.637
		c0.176,0.176,0.462,0.176,0.637,0c0.176-0.176,0.176-0.462,0-0.637C-2602.516,2490.643-2602.802,2490.643-2602.978,2490.819z"/>
	<path fill="#F9DE58" d="M-2609.687,2492.042h-1.232v-1.232h1.232V2492.042z M-2610.729,2491.852h0.853v-0.853h-0.853V2491.852z"/>
	<path fill="#F9DE58" d="M-2609.934,2490.904h-0.189v-0.532c0-0.048-0.019-0.093-0.052-0.126c-0.034-0.034-0.079-0.052-0.126-0.052
		c-0.099,0-0.179,0.08-0.179,0.179v0.532h-0.19v-0.532c0-0.203,0.165-0.368,0.369-0.368c0.098,0,0.191,0.038,0.26,0.108
		c0.07,0.069,0.108,0.162,0.108,0.26V2490.904z"/>
</g>
<g>
	<g opacity="0.5">
		
			<line fill="none" stroke="#F6A531" stroke-width="0.5" stroke-linecap="round" stroke-linejoin="round" stroke-miterlimit="10" x1="-2598.58" y1="2489.328" x2="-2599.016" y2="2488.234"/>
		
			<line fill="none" stroke="#F6A531" stroke-width="0.5" stroke-linecap="round" stroke-linejoin="round" stroke-miterlimit="10" x1="-2599.345" y1="2488.999" x2="-2598.251" y2="2488.563"/>
	</g>
	<g opacity="0.5">
		
			<line fill="none" stroke="#F6A531" stroke-width="0.5" stroke-linecap="round" stroke-linejoin="round" stroke-miterlimit="10" x1="-2611.748" y1="2488.04" x2="-2612.184" y2="2486.946"/>
		
			<line fill="none" stroke="#F6A531" stroke-width="0.5" stroke-linecap="round" stroke-linejoin="round" stroke-miterlimit="10" x1="-2612.513" y1="2487.711" x2="-2611.419" y2="2487.275"/>
	</g>
	<g opacity="0.5">
		
			<line fill="none" stroke="#F6A531" stroke-width="0.5" stroke-linecap="round" stroke-linejoin="round" stroke-miterlimit="10" x1="-2600.78" y1="2500.049" x2="-2601.216" y2="2498.955"/>
		
			<line fill="none" stroke="#F6A531" stroke-width="0.5" stroke-linecap="round" stroke-linejoin="round" stroke-miterlimit="10" x1="-2601.545" y1="2499.72" x2="-2600.451" y2="2499.284"/>
	</g>
	<g opacity="0.5">
		
			<line fill="none" stroke="#2754A2" stroke-width="0.5" stroke-linecap="round" stroke-linejoin="round" stroke-miterlimit="10" x1="-2616.104" y1="2494.66" x2="-2616.54" y2="2493.566"/>
		
			<line fill="none" stroke="#2754A2" stroke-width="0.5" stroke-linecap="round" stroke-linejoin="round" stroke-miterlimit="10" x1="-2616.869" y1="2494.331" x2="-2615.775" y2="2493.895"/>
	</g>
	
		<circle opacity="0.5" fill="none" stroke="#2754A2" stroke-width="0.5" stroke-linecap="round" stroke-linejoin="round" stroke-miterlimit="10" cx="-2598.926" cy="2492.627" r="0.814"/>
	
		<circle opacity="0.5" fill="none" stroke="#2754A2" stroke-width="0.5" stroke-linecap="round" stroke-linejoin="round" stroke-miterlimit="10" cx="-2615.058" cy="2498.09" r="0.603"/>
	
		<circle opacity="0.5" fill="none" stroke="#2754A2" stroke-width="0.5" stroke-linecap="round" stroke-linejoin="round" stroke-miterlimit="10" cx="-2606.398" cy="2485.948" r="0.485"/>
	
		<circle opacity="0.5" fill="none" stroke="#F6A531" stroke-width="0.5" stroke-linecap="round" stroke-linejoin="round" stroke-miterlimit="10" cx="-2611.29" cy="2483.03" r="0.242"/>
	
		<circle opacity="0.5" fill="none" stroke="#F6A531" stroke-width="0.5" stroke-linecap="round" stroke-linejoin="round" stroke-miterlimit="10" cx="-2603.263" cy="2486.149" r="0.064"/>
	
		<circle opacity="0.5" fill="none" stroke="#2754A2" stroke-width="0.5" stroke-linecap="round" stroke-linejoin="round" stroke-miterlimit="10" cx="-2595.555" cy="2491.232" r="0.064"/>
	
		<circle opacity="0.5" fill="none" stroke="#F6A531" stroke-width="0.5" stroke-linecap="round" stroke-linejoin="round" stroke-miterlimit="10" cx="-2599.377" cy="2496.787" r="0.064"/>
</g>
</svg>
