<?xml version="1.0" encoding="utf-8"?>
<!-- Generator: Adobe Illustrator 22.0.1, SVG Export Plug-In . SVG Version: 6.00 Build 0)  -->
<svg version="1.1" id="Capa_1" xmlns="http://www.w3.org/2000/svg" xmlns:xlink="http://www.w3.org/1999/xlink" x="0px" y="0px"
	 viewBox="-2476.347 2480.026 24 24" enable-background="new -2476.347 2480.026 24 24" xml:space="preserve">
<g>
	<g opacity="0.5">
		
			<line fill="none" stroke="#F6A531" stroke-width="0.5" stroke-linecap="round" stroke-linejoin="round" stroke-miterlimit="10" x1="-2456.747" y1="2489.328" x2="-2457.183" y2="2488.234"/>
		
			<line fill="none" stroke="#F6A531" stroke-width="0.5" stroke-linecap="round" stroke-linejoin="round" stroke-miterlimit="10" x1="-2457.512" y1="2488.999" x2="-2456.418" y2="2488.563"/>
	</g>
	<g opacity="0.5">
		
			<line fill="none" stroke="#F6A531" stroke-width="0.5" stroke-linecap="round" stroke-linejoin="round" stroke-miterlimit="10" x1="-2469.915" y1="2488.04" x2="-2470.351" y2="2486.946"/>
		
			<line fill="none" stroke="#F6A531" stroke-width="0.5" stroke-linecap="round" stroke-linejoin="round" stroke-miterlimit="10" x1="-2470.68" y1="2487.711" x2="-2469.586" y2="2487.275"/>
	</g>
	<g opacity="0.5">
		
			<line fill="none" stroke="#F6A531" stroke-width="0.5" stroke-linecap="round" stroke-linejoin="round" stroke-miterlimit="10" x1="-2458.947" y1="2500.049" x2="-2459.383" y2="2498.955"/>
		
			<line fill="none" stroke="#F6A531" stroke-width="0.5" stroke-linecap="round" stroke-linejoin="round" stroke-miterlimit="10" x1="-2459.712" y1="2499.72" x2="-2458.618" y2="2499.284"/>
	</g>
	<g opacity="0.5">
		
			<line fill="none" stroke="#2754A2" stroke-width="0.5" stroke-linecap="round" stroke-linejoin="round" stroke-miterlimit="10" x1="-2474.271" y1="2494.66" x2="-2474.707" y2="2493.566"/>
		
			<line fill="none" stroke="#2754A2" stroke-width="0.5" stroke-linecap="round" stroke-linejoin="round" stroke-miterlimit="10" x1="-2475.036" y1="2494.331" x2="-2473.942" y2="2493.895"/>
	</g>
	
		<circle opacity="0.5" fill="none" stroke="#2754A2" stroke-width="0.5" stroke-linecap="round" stroke-linejoin="round" stroke-miterlimit="10" cx="-2457.093" cy="2492.627" r="0.814"/>
	
		<circle opacity="0.5" fill="none" stroke="#2754A2" stroke-width="0.5" stroke-linecap="round" stroke-linejoin="round" stroke-miterlimit="10" cx="-2473.225" cy="2498.09" r="0.603"/>
	
		<circle opacity="0.5" fill="none" stroke="#2754A2" stroke-width="0.5" stroke-linecap="round" stroke-linejoin="round" stroke-miterlimit="10" cx="-2464.565" cy="2485.948" r="0.485"/>
	
		<circle opacity="0.5" fill="none" stroke="#F6A531" stroke-width="0.5" stroke-linecap="round" stroke-linejoin="round" stroke-miterlimit="10" cx="-2469.457" cy="2483.03" r="0.242"/>
	
		<circle opacity="0.5" fill="none" stroke="#F6A531" stroke-width="0.5" stroke-linecap="round" stroke-linejoin="round" stroke-miterlimit="10" cx="-2461.43" cy="2486.149" r="0.064"/>
	
		<circle opacity="0.5" fill="none" stroke="#2754A2" stroke-width="0.5" stroke-linecap="round" stroke-linejoin="round" stroke-miterlimit="10" cx="-2453.722" cy="2491.232" r="0.064"/>
	
		<circle opacity="0.5" fill="none" stroke="#F6A531" stroke-width="0.5" stroke-linecap="round" stroke-linejoin="round" stroke-miterlimit="10" cx="-2457.544" cy="2496.787" r="0.064"/>
</g>
<g>
	<rect x="-2470.475" y="2490.079" fill="#CCCCCC" width="6.589" height="5.477"/>
	<rect x="-2470.772" y="2490.079" fill="#CCCCCC" width="7.183" height="1.29"/>
	<path fill="#FC7A51" d="M-2465.494,2488.393c-0.179-0.179-0.426-0.29-0.698-0.29s-0.52,0.111-0.698,0.29
		c-0.179,0.179-0.29,0.426-0.29,0.698c0-0.273-0.111-0.519-0.29-0.698c-0.179-0.179-0.426-0.29-0.698-0.29s-0.52,0.111-0.698,0.29
		c-0.179,0.179-0.29,0.426-0.29,0.698c0,0.546,0.443,0.988,0.988,0.988h0.367v5.477h1.242v-5.477h0.367
		c0.545,0,0.988-0.443,0.988-0.988C-2465.205,2488.818-2465.315,2488.572-2465.494,2488.393z M-2468.169,2489.542
		c-0.249,0-0.451-0.202-0.451-0.451c0-0.124,0.05-0.237,0.132-0.318c0.081-0.082,0.194-0.132,0.319-0.132
		c0.124,0,0.237,0.05,0.318,0.132c0.082,0.081,0.132,0.194,0.132,0.318v0.451H-2468.169z M-2466.193,2489.542h-0.451v-0.451
		c0-0.124,0.05-0.237,0.132-0.318c0.081-0.082,0.194-0.132,0.319-0.132c0.124,0,0.237,0.05,0.318,0.132
		c0.082,0.081,0.132,0.194,0.132,0.318C-2465.742,2489.34-2465.944,2489.542-2466.193,2489.542z"/>
	<rect x="-2470.475" y="2491.37" opacity="0.2" fill="#4D4D4D" enable-background="new    " width="2.674" height="0.46"/>
	<rect x="-2466.56" y="2491.37" opacity="0.2" fill="#4D4D4D" enable-background="new    " width="2.673" height="0.46"/>
	<g>
		<g>
			<rect x="-2465.679" y="2493.03" fill="#E6E6E6" width="0.745" height="1.185"/>
			<polygon fill="#E6E6E6" points="-2466.048,2493.219 -2464.564,2493.219 -2465.306,2492.477 			"/>
		</g>
		<g>
			<rect x="-2469.428" y="2493.03" fill="#E6E6E6" width="0.745" height="1.185"/>
			<polygon fill="#E6E6E6" points="-2469.797,2493.219 -2468.313,2493.219 -2469.055,2492.477 			"/>
		</g>
	</g>
	<path fill="#E6E6E6" d="M-2468.689,2495.972c0.328,0,0.595,0.267,0.595,0.595s-0.267,0.595-0.595,0.595s-0.595-0.267-0.595-0.595
		S-2469.017,2495.972-2468.689,2495.972z"/>
	<path fill="#666666" d="M-2467.805,2496.568c0,0.019,0,0.039-0.002,0.057c-0.03,0.461-0.413,0.826-0.882,0.826
		s-0.852-0.365-0.882-0.826c-0.001-0.019-0.002-0.038-0.002-0.057c0-0.139,0.032-0.27,0.09-0.387
		c0.143-0.294,0.445-0.496,0.794-0.496C-2468.201,2495.684-2467.805,2496.08-2467.805,2496.568z M-2468.326,2496.568
		c0-0.2-0.163-0.363-0.363-0.363c-0.2,0-0.362,0.163-0.362,0.363s0.163,0.363,0.362,0.363
		C-2468.489,2496.93-2468.326,2496.768-2468.326,2496.568z"/>
	<path fill="#E6E6E6" d="M-2461.386,2495.972c0.328,0,0.595,0.267,0.595,0.595s-0.267,0.595-0.595,0.595
		c-0.328,0-0.596-0.267-0.596-0.595S-2461.715,2495.972-2461.386,2495.972z"/>
	<path fill="#F9DE58" d="M-2459.842,2493.605v2.575h-0.547c-0.01-0.028-0.023-0.055-0.036-0.082c-0.181-0.37-0.549-0.6-0.961-0.6
		c-0.454,0-0.842,0.283-0.998,0.682c-0.046,0.12-0.072,0.25-0.072,0.387c0,0.019,0,0.039,0.001,0.058h-0.838v-5.282
		c0-0.111,0.09-0.201,0.201-0.201h2.272c0.293,0,0.53,0.238,0.53,0.53v1.271c0,0.187,0.115,0.347,0.278,0.414
		C-2459.91,2493.399-2459.842,2493.496-2459.842,2493.605z"/>
	<path fill="#B3B3B3" d="M-2459.62,2496.18v0.445h-0.698c0.001-0.019,0.002-0.038,0.002-0.057c0-0.134-0.024-0.264-0.073-0.387
		H-2459.62z"/>
	<path fill="#666666" d="M-2462.268,2496.625c-0.001-0.019-0.002-0.038-0.002-0.057c0-0.488,0.396-0.884,0.884-0.884
		c0.349,0,0.651,0.202,0.794,0.496c0.057,0.117,0.089,0.249,0.089,0.387c0,0.019,0,0.039-0.002,0.057
		c-0.03,0.461-0.413,0.826-0.882,0.826C-2461.855,2497.451-2462.239,2497.086-2462.268,2496.625z M-2461.024,2496.568
		c0-0.2-0.163-0.363-0.362-0.363c-0.2,0-0.363,0.163-0.363,0.363s0.163,0.363,0.363,0.363
		C-2461.187,2496.93-2461.024,2496.768-2461.024,2496.568z"/>
	<path opacity="0.2" fill="#4D4D4D" enable-background="new    " d="M-2462.936,2491.142v5.038h-0.357v-4.837
		c0-0.111,0.09-0.201,0.201-0.201H-2462.936L-2462.936,2491.142L-2462.936,2491.142z"/>
	<path fill="#FFFFFF" d="M-2460.082,2495.639c-0.258,0-0.467-0.209-0.467-0.467c0-0.258,0.209-0.467,0.467-0.467V2495.639z"/>
	<g>
		<path fill="#FFFFFF" d="M-2461.327,2491.672h-1.205c-0.08,0-0.145,0.065-0.145,0.145v1.227c0,0.08,0.065,0.145,0.145,0.145h1.205
			V2491.672z"/>
		<path fill="#FFFFFF" d="M-2460.76,2491.672h-0.241v1.516h0.241c0.08,0,0.145-0.065,0.145-0.145v-1.227
			C-2460.615,2491.736-2460.68,2491.672-2460.76,2491.672z"/>
	</g>
	<path fill="#B3B3B3" d="M-2462.384,2496.18h-0.909v-0.646h-7.424v0.646v0.026v0.418h0.96c-0.001-0.019-0.002-0.038-0.002-0.057
		c0-0.125,0.021-0.246,0.063-0.361h2.013c0.041,0.113,0.063,0.234,0.063,0.361c0,0.019-0.001,0.039-0.001,0.058h5.167
		c-0.001-0.019-0.002-0.038-0.002-0.058C-2462.456,2496.431-2462.43,2496.3-2462.384,2496.18z"/>
</g>
</svg>
