<?xml version="1.0" encoding="utf-8"?>
<!-- Generator: Adobe Illustrator 22.0.1, SVG Export Plug-In . SVG Version: 6.00 Build 0)  -->
<svg version="1.1" id="Capa_1" xmlns="http://www.w3.org/2000/svg" xmlns:xlink="http://www.w3.org/1999/xlink" x="0px" y="0px"
	 viewBox="-2549.972 2480.026 24 24" enable-background="new -2549.972 2480.026 24 24" xml:space="preserve">
<g>
	<path fill="#29ABE2" d="M-2538.012,2494.882c0,1.141-0.749,2.108-1.782,2.435c-0.243,0.077-0.502,0.119-0.771,0.119
		c-0.611,0-1.173-0.215-1.612-0.574l-1.088,0.212l0.428-1.027c-0.179-0.349-0.28-0.745-0.28-1.164c0-1.16,0.775-2.14,1.835-2.45
		c0.197-0.058,0.405-0.092,0.618-0.101c0.033-0.001,0.066-0.002,0.099-0.002c1.305,0,2.381,0.978,2.534,2.241
		C-2538.018,2494.673-2538.012,2494.777-2538.012,2494.882"/>
	<path fill="#FFFFFF" d="M-2541.013,2495.453c0-0.147,0.024-0.28,0.072-0.397s0.147-0.219,0.298-0.307
		c0.045-0.027,0.101-0.058,0.167-0.092s0.131-0.076,0.194-0.124c0.063-0.048,0.116-0.104,0.16-0.169
		c0.044-0.065,0.065-0.139,0.065-0.223c0-0.063-0.012-0.119-0.036-0.167c-0.024-0.048-0.056-0.089-0.094-0.122
		c-0.039-0.033-0.085-0.058-0.138-0.074c-0.052-0.016-0.106-0.025-0.16-0.025c-0.066,0-0.126,0.011-0.18,0.034
		c-0.054,0.023-0.103,0.051-0.146,0.086c-0.043,0.035-0.083,0.074-0.117,0.117c-0.034,0.044-0.064,0.085-0.088,0.124l-0.392-0.271
		c0.039-0.093,0.091-0.176,0.156-0.248c0.064-0.072,0.138-0.133,0.221-0.183c0.083-0.05,0.172-0.087,0.268-0.113
		c0.096-0.025,0.195-0.038,0.298-0.038c0.114,0,0.227,0.017,0.338,0.05c0.111,0.033,0.211,0.086,0.3,0.158
		c0.089,0.072,0.161,0.165,0.217,0.277c0.055,0.113,0.083,0.247,0.083,0.404c0,0.096-0.011,0.181-0.034,0.255
		c-0.023,0.074-0.055,0.14-0.097,0.2c-0.042,0.06-0.092,0.114-0.149,0.162c-0.057,0.048-0.122,0.095-0.194,0.14
		c-0.06,0.036-0.12,0.071-0.18,0.104c-0.06,0.033-0.115,0.07-0.165,0.111c-0.05,0.041-0.09,0.087-0.122,0.14
		c-0.031,0.052-0.047,0.116-0.047,0.192H-2541.013 M-2541.004,2496.503v-0.622h0.5v0.622H-2541.004"/>
	<polygon fill="#D6B71D" points="-2539.897,2498.874 -2539.619,2499.46 -2537.344,2497.848 -2537.883,2497.446 	"/>
	<polygon fill="#D6B71D" points="-2534.093,2493.07 -2535.52,2495.083 -2535.119,2495.623 -2533.507,2493.347 	"/>
	<path fill="#F9DE58" d="M-2539.619,2499.46l1.312,0.54c1.264-0.415,2.392-1.118,3.308-2.033c0.916-0.916,1.619-2.043,2.034-3.308
		l-0.54-1.312l-1.612,2.276l0.537,0.167c-0.307,0.542-0.685,1.037-1.122,1.473c-0.437,0.437-0.931,0.814-1.473,1.122l-0.167-0.536
		L-2539.619,2499.46z"/>
	<path fill="#3098C4" d="M-2540.565,2492.329c-0.033,0-0.066,0.001-0.099,0.002c0.041,0.336,0.147,0.653,0.306,0.936
		c0.077,0.007,0.153,0.022,0.229,0.044c0.111,0.033,0.211,0.086,0.3,0.158c0.089,0.072,0.161,0.165,0.216,0.277
		c0.056,0.113,0.083,0.247,0.083,0.404c0,0.002,0,0.003,0,0.005c0.193,0.127,0.404,0.228,0.629,0.299
		c0.243,0.077,0.502,0.118,0.771,0.118c0.033,0,0.066,0,0.099-0.002C-2538.184,2493.308-2539.26,2492.329-2540.565,2492.329"/>
	<path fill="#DBDBDB" d="M-2540.358,2493.267c0.201,0.358,0.486,0.663,0.828,0.888c0-0.002,0-0.003,0-0.005
		c0-0.156-0.028-0.291-0.083-0.404c-0.056-0.113-0.128-0.205-0.217-0.277c-0.089-0.072-0.188-0.125-0.3-0.158
		C-2540.205,2493.289-2540.281,2493.274-2540.358,2493.267"/>
	<path fill="#FC7A51" d="M-2540.285,2491.719c0,1.141,0.749,2.108,1.782,2.435c0.243,0.077,0.502,0.118,0.771,0.118
		c0.612,0,1.173-0.215,1.612-0.574l1.088,0.212l-0.428-1.027c0.179-0.349,0.28-0.745,0.28-1.164c0-1.161-0.774-2.14-1.835-2.45
		c-0.228-0.067-0.469-0.102-0.718-0.102C-2539.142,2489.167-2540.285,2490.31-2540.285,2491.719z"/>
	<path fill="#FFFFFF" d="M-2538.646,2491.509c-0.328,0-0.594-0.267-0.594-0.594c0-0.328,0.267-0.594,0.594-0.594
		c0.328,0,0.594,0.267,0.594,0.594C-2538.052,2491.242-2538.319,2491.509-2538.646,2491.509z M-2538.646,2490.573
		c-0.188,0-0.342,0.153-0.342,0.341s0.153,0.342,0.342,0.342c0.188,0,0.341-0.153,0.341-0.342S-2538.458,2490.573-2538.646,2490.573
		z"/>
	<path fill="#FFFFFF" d="M-2536.818,2493.119c-0.328,0-0.594-0.267-0.594-0.594c0-0.328,0.267-0.594,0.594-0.594
		s0.594,0.267,0.594,0.594C-2536.224,2492.853-2536.49,2493.119-2536.818,2493.119z M-2536.818,2492.183
		c-0.188,0-0.341,0.153-0.341,0.341s0.153,0.342,0.341,0.342s0.342-0.153,0.342-0.342
		C-2536.477,2492.336-2536.63,2492.183-2536.818,2492.183z"/>
	
		<rect x="-2539.241" y="2491.593" transform="matrix(0.1947 -0.9809 0.9809 0.1947 -4487.6919 -482.5717)" fill="#FFFFFF" width="3.018" height="0.253"/>
</g>
<g>
	<g opacity="0.5">
		
			<line fill="none" stroke="#F6A531" stroke-width="0.5" stroke-linecap="round" stroke-linejoin="round" stroke-miterlimit="10" x1="-2530.372" y1="2489.328" x2="-2530.808" y2="2488.234"/>
		
			<line fill="none" stroke="#F6A531" stroke-width="0.5" stroke-linecap="round" stroke-linejoin="round" stroke-miterlimit="10" x1="-2531.137" y1="2488.999" x2="-2530.043" y2="2488.563"/>
	</g>
	<g opacity="0.5">
		
			<line fill="none" stroke="#F6A531" stroke-width="0.5" stroke-linecap="round" stroke-linejoin="round" stroke-miterlimit="10" x1="-2543.54" y1="2488.04" x2="-2543.976" y2="2486.946"/>
		
			<line fill="none" stroke="#F6A531" stroke-width="0.5" stroke-linecap="round" stroke-linejoin="round" stroke-miterlimit="10" x1="-2544.305" y1="2487.711" x2="-2543.211" y2="2487.275"/>
	</g>
	<g opacity="0.5">
		
			<line fill="none" stroke="#F6A531" stroke-width="0.5" stroke-linecap="round" stroke-linejoin="round" stroke-miterlimit="10" x1="-2532.572" y1="2500.049" x2="-2533.008" y2="2498.955"/>
		
			<line fill="none" stroke="#F6A531" stroke-width="0.5" stroke-linecap="round" stroke-linejoin="round" stroke-miterlimit="10" x1="-2533.337" y1="2499.72" x2="-2532.243" y2="2499.284"/>
	</g>
	<g opacity="0.5">
		
			<line fill="none" stroke="#2754A2" stroke-width="0.5" stroke-linecap="round" stroke-linejoin="round" stroke-miterlimit="10" x1="-2547.896" y1="2494.66" x2="-2548.332" y2="2493.566"/>
		
			<line fill="none" stroke="#2754A2" stroke-width="0.5" stroke-linecap="round" stroke-linejoin="round" stroke-miterlimit="10" x1="-2548.661" y1="2494.331" x2="-2547.567" y2="2493.895"/>
	</g>
	
		<circle opacity="0.5" fill="none" stroke="#2754A2" stroke-width="0.5" stroke-linecap="round" stroke-linejoin="round" stroke-miterlimit="10" cx="-2530.718" cy="2492.627" r="0.814"/>
	
		<circle opacity="0.5" fill="none" stroke="#2754A2" stroke-width="0.5" stroke-linecap="round" stroke-linejoin="round" stroke-miterlimit="10" cx="-2546.85" cy="2498.09" r="0.603"/>
	
		<circle opacity="0.5" fill="none" stroke="#2754A2" stroke-width="0.5" stroke-linecap="round" stroke-linejoin="round" stroke-miterlimit="10" cx="-2538.19" cy="2485.948" r="0.485"/>
	
		<circle opacity="0.5" fill="none" stroke="#F6A531" stroke-width="0.5" stroke-linecap="round" stroke-linejoin="round" stroke-miterlimit="10" cx="-2543.082" cy="2483.03" r="0.242"/>
	
		<circle opacity="0.5" fill="none" stroke="#F6A531" stroke-width="0.5" stroke-linecap="round" stroke-linejoin="round" stroke-miterlimit="10" cx="-2535.055" cy="2486.149" r="0.064"/>
	
		<circle opacity="0.5" fill="none" stroke="#2754A2" stroke-width="0.5" stroke-linecap="round" stroke-linejoin="round" stroke-miterlimit="10" cx="-2527.347" cy="2491.232" r="0.064"/>
	
		<circle opacity="0.5" fill="none" stroke="#F6A531" stroke-width="0.5" stroke-linecap="round" stroke-linejoin="round" stroke-miterlimit="10" cx="-2531.169" cy="2496.787" r="0.064"/>
</g>
</svg>
