<?xml version="1.0" encoding="utf-8"?>
<!-- Generator: Adobe Illustrator 22.0.1, SVG Export Plug-In . SVG Version: 6.00 Build 0)  -->
<svg version="1.1" id="Capa_1" xmlns="http://www.w3.org/2000/svg" xmlns:xlink="http://www.w3.org/1999/xlink" x="0px" y="0px"
	 viewBox="-2513.347 2480.026 24 24" enable-background="new -2513.347 2480.026 24 24" xml:space="preserve">
<g>
	<polyline fill="#2BE0C6" points="-2498.209,2494.779 -2502.958,2494.779 -2502.864,2492.038 -2502.857,2491.857 
		-2502.772,2489.386 -2498.396,2489.386 -2498.209,2494.779 	"/>
	<polyline fill="#FFFFFF" points="-2498.396,2489.386 -2498.396,2489.386 -2498.209,2494.779 -2499.296,2494.779 
		-2499.296,2494.779 -2498.209,2494.779 -2498.396,2489.386 	"/>
	<polyline fill="#6FEAD8" points="-2498.396,2489.386 -2500.94,2489.386 -2499.296,2494.779 -2498.209,2494.779 -2498.396,2489.386 
			"/>
	<path fill="#FC7A51" d="M-2499.486,2489.948L-2499.486,2489.948c-0.077,0-0.139,0.062-0.139,0.139v0.505
		c0,0.523-0.412,0.964-0.935,0.976c-0.539,0.013-0.981-0.422-0.981-0.958v-0.523c0-0.077-0.062-0.139-0.139-0.139
		s-0.139,0.062-0.139,0.139v0.503c0,0.677,0.536,1.244,1.213,1.257c0.693,0.013,1.26-0.547,1.26-1.236v-0.523
		C-2499.347,2490.011-2499.41,2489.948-2499.486,2489.948z"/>
	<path fill="#29ABE2" d="M-2497.373,2494.261c0,0.51-0.315,0.947-0.76,1.126c-0.14,0.056-0.293,0.087-0.453,0.087
		c-0.67,0-1.214-0.543-1.214-1.214c0-0.584,0.412-1.072,0.962-1.188c0.081-0.017,0.165-0.026,0.252-0.026
		C-2497.917,2493.048-2497.373,2493.591-2497.373,2494.261z"/>
	<polyline fill="#32C3AE" points="-2500.904,2492.205 -2501.315,2492.205 -2501.236,2494.508 -2501.227,2494.779 
		-2500.815,2494.779 -2500.904,2492.205 	"/>
	<polyline fill="#F9DE58" points="-2501.141,2497.25 -2505.891,2497.25 -2505.836,2495.676 -2505.704,2491.857 -2501.328,2491.857 
		-2501.236,2494.508 -2501.141,2497.25 	"/>
	<path fill="#FC7A51" d="M-2504.299,2496.732c0,0.546-0.361,1.008-0.856,1.16c-0.113,0.035-0.233,0.053-0.357,0.053
		c-0.67,0-1.214-0.543-1.214-1.214c0-0.549,0.364-1.012,0.863-1.162c0.111-0.033,0.229-0.052,0.351-0.052
		C-2504.842,2495.518-2504.299,2496.061-2504.299,2496.732z"/>
	<polygon fill="#FFFFFF" points="-2498.686,2494.949 -2499.232,2494.266 -2499.035,2494.107 -2498.711,2494.516 -2498.156,2493.63 
		-2497.943,2493.765 	"/>
	
		<rect x="-2506.401" y="2496.605" transform="matrix(0.7071 -0.7071 0.7071 0.7071 -2499.3035 -1040.3892)" fill="#FFFFFF" width="1.776" height="0.253"/>
	
		<rect x="-2505.639" y="2495.844" transform="matrix(0.7071 -0.7072 0.7072 0.7071 -2499.5537 -1040.3895)" fill="#FFFFFF" width="0.253" height="1.777"/>
	<polyline fill="#FBE98E" points="-2501.328,2491.857 -2504.013,2491.857 -2502.37,2497.25 -2501.141,2497.25 -2501.227,2494.779 
		-2501.236,2494.508 -2501.315,2492.205 -2501.328,2491.857 	"/>
	<path fill="#4D4D4D" d="M-2502.418,2492.633L-2502.418,2492.633c-0.077,0-0.139-0.062-0.139-0.139v-0.505
		c0-0.523-0.412-0.964-0.935-0.976c-0.539-0.013-0.981,0.422-0.981,0.958v0.523c0,0.077-0.062,0.139-0.139,0.139
		s-0.139-0.062-0.139-0.139v-0.502c0-0.677,0.536-1.244,1.213-1.257c0.693-0.013,1.26,0.547,1.26,1.236v0.523
		C-2502.279,2492.571-2502.342,2492.633-2502.418,2492.633z"/>
</g>
<g>
	<g opacity="0.5">
		
			<line fill="none" stroke="#F6A531" stroke-width="0.5" stroke-linecap="round" stroke-linejoin="round" stroke-miterlimit="10" x1="-2493.747" y1="2489.328" x2="-2494.183" y2="2488.234"/>
		
			<line fill="none" stroke="#F6A531" stroke-width="0.5" stroke-linecap="round" stroke-linejoin="round" stroke-miterlimit="10" x1="-2494.512" y1="2488.999" x2="-2493.418" y2="2488.563"/>
	</g>
	<g opacity="0.5">
		
			<line fill="none" stroke="#F6A531" stroke-width="0.5" stroke-linecap="round" stroke-linejoin="round" stroke-miterlimit="10" x1="-2506.915" y1="2488.04" x2="-2507.351" y2="2486.946"/>
		
			<line fill="none" stroke="#F6A531" stroke-width="0.5" stroke-linecap="round" stroke-linejoin="round" stroke-miterlimit="10" x1="-2507.68" y1="2487.711" x2="-2506.586" y2="2487.275"/>
	</g>
	<g opacity="0.5">
		
			<line fill="none" stroke="#F6A531" stroke-width="0.5" stroke-linecap="round" stroke-linejoin="round" stroke-miterlimit="10" x1="-2495.947" y1="2500.049" x2="-2496.383" y2="2498.955"/>
		
			<line fill="none" stroke="#F6A531" stroke-width="0.5" stroke-linecap="round" stroke-linejoin="round" stroke-miterlimit="10" x1="-2496.712" y1="2499.72" x2="-2495.618" y2="2499.284"/>
	</g>
	<g opacity="0.5">
		
			<line fill="none" stroke="#2754A2" stroke-width="0.5" stroke-linecap="round" stroke-linejoin="round" stroke-miterlimit="10" x1="-2511.271" y1="2494.66" x2="-2511.707" y2="2493.566"/>
		
			<line fill="none" stroke="#2754A2" stroke-width="0.5" stroke-linecap="round" stroke-linejoin="round" stroke-miterlimit="10" x1="-2512.036" y1="2494.331" x2="-2510.942" y2="2493.895"/>
	</g>
	
		<circle opacity="0.5" fill="none" stroke="#2754A2" stroke-width="0.5" stroke-linecap="round" stroke-linejoin="round" stroke-miterlimit="10" cx="-2494.093" cy="2492.627" r="0.814"/>
	
		<circle opacity="0.5" fill="none" stroke="#2754A2" stroke-width="0.5" stroke-linecap="round" stroke-linejoin="round" stroke-miterlimit="10" cx="-2510.225" cy="2498.09" r="0.603"/>
	
		<circle opacity="0.5" fill="none" stroke="#2754A2" stroke-width="0.5" stroke-linecap="round" stroke-linejoin="round" stroke-miterlimit="10" cx="-2501.565" cy="2485.948" r="0.485"/>
	
		<circle opacity="0.5" fill="none" stroke="#F6A531" stroke-width="0.5" stroke-linecap="round" stroke-linejoin="round" stroke-miterlimit="10" cx="-2506.457" cy="2483.03" r="0.242"/>
	
		<circle opacity="0.5" fill="none" stroke="#F6A531" stroke-width="0.5" stroke-linecap="round" stroke-linejoin="round" stroke-miterlimit="10" cx="-2498.43" cy="2486.149" r="0.064"/>
	
		<circle opacity="0.5" fill="none" stroke="#2754A2" stroke-width="0.5" stroke-linecap="round" stroke-linejoin="round" stroke-miterlimit="10" cx="-2490.722" cy="2491.232" r="0.064"/>
	
		<circle opacity="0.5" fill="none" stroke="#F6A531" stroke-width="0.5" stroke-linecap="round" stroke-linejoin="round" stroke-miterlimit="10" cx="-2494.544" cy="2496.787" r="0.064"/>
</g>
</svg>
