<?xml version="1.0" encoding="utf-8"?>
<!-- Generator: Adobe Illustrator 22.0.1, SVG Export Plug-In . SVG Version: 6.00 Build 0)  -->
<svg version="1.1" id="Capa_1" xmlns="http://www.w3.org/2000/svg" xmlns:xlink="http://www.w3.org/1999/xlink" x="0px" y="0px"
	 viewBox="-2383.013 2778.943 24 24" enable-background="new -2383.013 2778.943 24 24" xml:space="preserve">
<path fill="none" stroke="#000000" stroke-width="0.75" stroke-linecap="round" stroke-linejoin="round" stroke-miterlimit="10" d="
	M-2361.951,2791.852l0.885,1.812c0.167,0.341,0.035,0.748-0.301,0.926l-1.781,0.945c-0.568,0.301-0.957,0.837-1.068,1.471
	l-0.348,1.986c-0.066,0.374-0.412,0.625-0.788,0.572l-1.997-0.282c-0.637-0.09-1.267,0.115-1.729,0.562l-1.449,1.402
	c-0.273,0.264-0.701,0.264-0.974,0l-1.449-1.402c-0.39-0.378-0.901-0.583-1.434-0.583c-0.098,0-0.196,0.007-0.295,0.021
	l-1.997,0.282c-0.376,0.053-0.722-0.198-0.788-0.572l-0.348-1.986c-0.111-0.633-0.5-1.169-1.069-1.47l-1.781-0.945
	c-0.336-0.178-0.468-0.585-0.301-0.926l0.885-1.812c0.282-0.577,0.282-1.24,0-1.818l0,0l-0.885-1.812
	c-0.167-0.341-0.035-0.748,0.301-0.926l1.781-0.945c0.568-0.301,0.957-0.837,1.068-1.471l0.348-1.986
	c0.066-0.374,0.412-0.625,0.788-0.572l1.996,0.282c0.637,0.09,1.267-0.115,1.729-0.562l1.449-1.402c0.273-0.264,0.701-0.264,0.974,0
	l1.449,1.402c0.462,0.447,1.092,0.652,1.729,0.562l1.996-0.282c0.376-0.053,0.722,0.198,0.788,0.572l0.348,1.986
	c0.111,0.633,0.5,1.169,1.068,1.471l1.781,0.945c0.336,0.178,0.468,0.585,0.301,0.926l-0.885,1.812
	C-2362.233,2790.612-2362.233,2791.274-2361.951,2791.852z"/>
<g>
	<path d="M-2376.042,2793.309h-0.661v-4.807h0.935l1.53,3.475v-3.475h0.652v4.807h-0.765l-1.691-3.887V2793.309z"/>
	<path d="M-2370.482,2790.631v0.48h-1.615v1.71h1.983v0.487h-2.72v-4.807h2.72v0.487h-1.983v1.642H-2370.482z"/>
	<path d="M-2367.679,2793.309h-1.011l-0.907-4.807h0.718l0.774,4.093l0.737-4.086h0.727l0.728,4.093l0.746-4.1h0.643l-0.897,4.807
		h-0.973l-0.633-3.262L-2367.679,2793.309z"/>
</g>
</svg>
