<?xml version="1.0" encoding="utf-8"?>
<!-- Generator: Adobe Illustrator 22.0.1, SVG Export Plug-In . SVG Version: 6.00 Build 0)  -->
<svg version="1.1" id="Layer_1" xmlns="http://www.w3.org/2000/svg" xmlns:xlink="http://www.w3.org/1999/xlink" x="0px" y="0px"
	 viewBox="0 0 512 124" style="enable-background:new 0 0 512 124;" xml:space="preserve">
<style type="text/css">
	.st0{fill:#FFDC69;}
	.st1{fill:#FFC864;}
</style>
<g>
	<path class="st0" d="M44.9,53.5c0.1-0.3,0.2-0.6,0.4-0.8C45.1,53,45,53.2,44.9,53.5z"/>
	<path class="st0" d="M80.3,27.3c-0.9,0.2-1.7,0.8-2.1,1.8l-4.3,8.8l4.3-8.8C78.6,28.1,79.4,27.5,80.3,27.3z"/>
	<path class="st0" d="M47.6,51.2L63,49L47.6,51.2c-0.9,0.1-1.6,0.5-2.1,1.1C46.1,51.8,46.8,51.4,47.6,51.2z"/>
	<path class="st0" d="M44.8,54.4c0-0.2,0-0.3,0.1-0.4C44.8,54.1,44.8,54.3,44.8,54.4z"/>
	<path class="st0" d="M45.8,57c-0.3-0.3-0.6-0.7-0.7-1.1C45.2,56.3,45.4,56.7,45.8,57L61,71.9l-3.2,18.6L61,71.9L45.8,57z"/>
	<path class="st0" d="M57.4,93.4c0-0.1,0-0.1,0-0.2C57.4,93.2,57.4,93.3,57.4,93.4z"/>
	<path class="st0" d="M114.7,51.2l-21.1-3.1l-9.4-19.1c-0.6-1.3-1.8-1.9-3-1.9v59.3l-18.8,9.9c-2.2,1.1-4.7-0.3-4.9-2.6
		c0.3,2.2,2.8,3.7,4.9,2.6l18.8-9.9l18.8,9.9c2.5,1.3,5.4-0.8,4.9-3.6l-3.6-21L116.6,57C118.6,55,117.5,51.6,114.7,51.2z"/>
</g>
<path class="st1" d="M62.3,96.4l18.8-9.9V27.2c-0.3,0-0.6,0-0.9,0.1c-0.9,0.2-1.7,0.8-2.1,1.8l-4.3,8.8l-5.1,10.3L63,49l-15.4,2.2
	c-0.9,0.1-1.6,0.5-2.1,1.1c-0.1,0.1-0.2,0.2-0.3,0.4c-0.2,0.3-0.3,0.5-0.4,0.8c0,0.1-0.1,0.3-0.1,0.4c0,0.1,0,0.3-0.1,0.4
	c0,0.5,0.1,1,0.3,1.5c0.2,0.4,0.4,0.8,0.7,1.1L61,71.9l-3.2,18.6l-0.4,2.4c0,0.1,0,0.2,0,0.3c0,0.1,0,0.1,0,0.2c0,0.2,0,0.3,0,0.5
	C57.7,96.1,60.2,97.5,62.3,96.4z"/>
<g>
	<path class="st0" d="M132.2,54.4c0-0.2,0-0.3,0.1-0.4C132.2,54.1,132.2,54.3,132.2,54.4z"/>
	<path class="st0" d="M167.7,27.3c-0.9,0.2-1.7,0.8-2.1,1.8l-3.4,6.9l3.4-6.9C166,28.1,166.8,27.5,167.7,27.3z"/>
	<path class="st0" d="M150.3,49l-15.2,2.2c-0.7,0.1-1.3,0.4-1.7,0.8c0.5-0.4,1.1-0.7,1.7-0.8L150.3,49z"/>
	<path class="st0" d="M144.8,93.4c0-0.1,0-0.1,0-0.2C144.8,93.2,144.8,93.3,144.8,93.4z"/>
	<path class="st0" d="M133.2,57c-0.3-0.3-0.6-0.7-0.7-1.1C132.6,56.3,132.9,56.7,133.2,57l15.2,14.9l-3.2,18.6l3.2-18.6L133.2,57z"
		/>
	<path class="st0" d="M202.1,51.2L181,48.2l-9.4-19.1c-0.6-1.3-1.8-1.9-3-1.9v59.3l-18.8,9.9c-2.2,1.1-4.7-0.3-4.9-2.6
		c0.3,2.2,2.8,3.7,4.9,2.6l18.8-9.9l18.8,9.9c2.5,1.3,5.4-0.8,4.9-3.6l-3.6-21L204,57C206,55,204.9,51.6,202.1,51.2z"/>
</g>
<path class="st1" d="M149.7,96.4l18.8-9.9V27.2c-0.3,0-0.6,0-0.9,0.1c-0.9,0.2-1.7,0.8-2.1,1.8l-3.4,6.9l-6,12.2l-5.9,0.9l-15.2,2.2
	c-0.7,0.1-1.3,0.4-1.7,0.8c-0.2,0.2-0.4,0.4-0.6,0.7c-0.2,0.4-0.4,0.8-0.5,1.3c0,0.1,0,0.3-0.1,0.4c0,0.5,0.1,1,0.3,1.5
	c0.2,0.4,0.4,0.8,0.7,1.1l15.2,14.9l-3.2,18.6l-0.4,2.4c0,0.1,0,0.2,0,0.3c0,0.1,0,0.1,0,0.2c0,0.2,0,0.3,0,0.5
	C145.1,96.1,147.6,97.5,149.7,96.4z"/>
<g>
	<path class="st0" d="M289.5,51.2l-21.1-3.1L259,29.1c-0.6-1.3-1.8-1.9-3-1.9v59.3l-18.8,9.9c-2.2,1.1-4.7-0.3-4.9-2.6
		c0.3,2.2,2.8,3.7,4.9,2.6l18.8-9.9l18.8,9.9c2.5,1.3,5.4-0.8,4.9-3.6l-3.6-21L291.4,57C293.4,55,292.3,51.6,289.5,51.2z"/>
	<path class="st0" d="M219.9,53.1c0.1-0.3,0.3-0.5,0.5-0.8C220.2,52.6,220,52.8,219.9,53.1z"/>
	<path class="st0" d="M254.9,27.4c-0.8,0.3-1.5,0.8-1.9,1.7l-3.4,6.9l3.4-6.9C253.4,28.2,254.1,27.7,254.9,27.4z"/>
	<path class="st0" d="M222.5,51.2l15.4-2.2L222.5,51.2c-0.9,0.1-1.6,0.5-2.1,1.1C220.9,51.8,221.6,51.4,222.5,51.2z"/>
	<path class="st0" d="M220.6,57c-0.3-0.3-0.6-0.7-0.7-1.1C220,56.3,220.3,56.7,220.6,57l15.2,14.9l-3.2,18.6l3.2-18.6L220.6,57z"/>
	<path class="st0" d="M219.6,54.4c0-0.2,0-0.3,0.1-0.4C219.6,54.1,219.6,54.3,219.6,54.4z"/>
	<path class="st0" d="M232.2,93.4c0-0.1,0-0.1,0-0.2C232.2,93.2,232.2,93.3,232.2,93.4z"/>
</g>
<path class="st1" d="M237.2,96.4l18.8-9.9V27.2c-0.4,0-0.8,0.1-1.1,0.2c-0.8,0.3-1.5,0.8-1.9,1.7l-3.4,6.9l-6,12.2l-5.7,0.8
	l-15.4,2.2c-0.9,0.1-1.6,0.5-2.1,1.1c-0.2,0.2-0.4,0.5-0.5,0.8s-0.2,0.6-0.3,0.9c0,0.1,0,0.3-0.1,0.4c0,0.5,0.1,1,0.3,1.5
	c0.2,0.4,0.4,0.8,0.7,1.1l15.2,14.9l-3.2,18.6l-0.4,2.4c0,0.1,0,0.2,0,0.3c0,0.1,0,0.1,0,0.2c0,0.2,0,0.3,0,0.5
	C232.5,96.1,235,97.5,237.2,96.4z"/>
<g>
	<path class="st0" d="M319.6,93.4c0-0.1,0-0.1,0-0.2C319.6,93.2,319.6,93.3,319.6,93.4z"/>
	<path class="st0" d="M308,57c-0.3-0.3-0.6-0.7-0.7-1.1C307.4,56.3,307.7,56.7,308,57l15.2,14.9l-3.2,18.6l3.2-18.6L308,57z"/>
	<path class="st0" d="M309.9,51.2l15.4-2.2L309.9,51.2c-0.9,0.1-1.6,0.5-2.1,1.1C308.3,51.8,309,51.4,309.9,51.2z"/>
	<path class="st0" d="M307.2,53.5c0.1-0.3,0.2-0.6,0.4-0.8C307.4,53,307.3,53.2,307.2,53.5z"/>
	<path class="st0" d="M307,54.4c0-0.2,0-0.3,0.1-0.4C307,54.1,307,54.3,307,54.4z"/>
	<path class="st0" d="M342.5,27.3c-0.9,0.2-1.7,0.8-2.1,1.8l-4.3,8.8l4.3-8.8C340.9,28.1,341.6,27.5,342.5,27.3z"/>
	<path class="st0" d="M376.9,51.2l-21.1-3.1l-9.4-19.1c-0.6-1.3-1.8-1.9-3-1.9v59.3l-18.8,9.9c-2.2,1.1-4.7-0.3-4.9-2.6
		c0.3,2.2,2.8,3.7,4.9,2.6l18.8-9.9l18.8,9.9c2.5,1.3,5.4-0.8,4.9-3.6l-3.6-21L378.8,57C380.8,55,379.7,51.6,376.9,51.2z"/>
</g>
<path class="st1" d="M324.6,96.4l18.8-9.9V27.2c-0.3,0-0.6,0-0.9,0.1c-0.9,0.2-1.7,0.8-2.1,1.8l-4.3,8.8L331,48.2l-5.7,0.8
	l-15.4,2.2c-0.9,0.1-1.6,0.5-2.1,1.1c-0.1,0.1-0.2,0.2-0.3,0.4c-0.2,0.3-0.3,0.5-0.4,0.8c0,0.1-0.1,0.3-0.1,0.4c0,0.1,0,0.3-0.1,0.4
	c0,0.5,0.1,1,0.3,1.5c0.2,0.4,0.4,0.8,0.7,1.1l15.2,14.9l-3.2,18.6l-0.4,2.4c0,0.1,0,0.2,0,0.3c0,0.1,0,0.1,0,0.2c0,0.2,0,0.3,0,0.5
	C319.9,96.1,322.4,97.5,324.6,96.4z"/>
<g>
	<path class="st0" d="M407,93.4c0-0.1,0-0.1,0-0.2C407,93.2,407,93.3,407,93.4z"/>
	<path class="st0" d="M395.4,57c-0.3-0.3-0.6-0.7-0.7-1.1C394.9,56.3,395.1,56.7,395.4,57l15.2,14.9l-3.2,18.6l3.2-18.6L395.4,57z"
		/>
	<path class="st0" d="M397.3,51.2l15.4-2.2L397.3,51.2c-0.9,0.1-1.6,0.5-2.1,1.1C395.7,51.8,396.4,51.4,397.3,51.2z"/>
	<path class="st0" d="M394.6,53.5c0.1-0.3,0.2-0.6,0.4-0.8C394.8,53,394.7,53.2,394.6,53.5z"/>
	<path class="st0" d="M394.4,54.4c0-0.2,0-0.3,0.1-0.4C394.4,54.1,394.4,54.3,394.4,54.4z"/>
	<path class="st0" d="M429.9,27.3c-0.9,0.2-1.7,0.8-2.1,1.8l-4.3,8.8l4.3-8.8C428.3,28.1,429.1,27.5,429.9,27.3z"/>
	<path class="st0" d="M464.4,51.2l-21.1-3.1l-9.4-19.1c-0.6-1.3-1.8-1.9-3-1.9v59.3L412,96.4c-2.2,1.1-4.7-0.3-4.9-2.6
		c0.3,2.2,2.8,3.7,4.9,2.6l18.8-9.9l18.8,9.9c2.5,1.3,5.4-0.8,4.9-3.6l-3.6-21L466.2,57C468.2,55,467.1,51.6,464.4,51.2z"/>
</g>
<path class="st1" d="M412,96.4l18.8-9.9V27.2c-0.3,0-0.6,0-0.9,0.1c-0.9,0.2-1.7,0.8-2.1,1.8l-4.3,8.8l-5.1,10.3l-5.7,0.8l-15.4,2.2
	c-0.9,0.1-1.6,0.5-2.1,1.1c-0.1,0.1-0.2,0.2-0.3,0.4c-0.2,0.3-0.3,0.5-0.4,0.8c0,0.1-0.1,0.3-0.1,0.4c0,0.1,0,0.3-0.1,0.4
	c0,0.5,0.1,1,0.3,1.5c0.2,0.4,0.4,0.8,0.7,1.1l15.2,14.9l-3.2,18.6l-0.4,2.4c0,0.1,0,0.2,0,0.3c0,0.1,0,0.1,0,0.2c0,0.2,0,0.3,0,0.5
	C407.3,96.1,409.8,97.5,412,96.4z"/>
</svg>
