<?xml version="1.0" encoding="utf-8"?>
<!-- Generator: Adobe Illustrator 22.0.1, SVG Export Plug-In . SVG Version: 6.00 Build 0)  -->
<svg version="1.1" id="Capa_1" xmlns="http://www.w3.org/2000/svg" xmlns:xlink="http://www.w3.org/1999/xlink" x="0px" y="0px"
	 viewBox="0 0 24 24" enable-background="new 0 0 24 24" xml:space="preserve">
<rect y="0" fill="#FFFFFF" width="24" height="24"/>
<g>
	<g>
		<g>
			<g>
				<path fill="#927DFF" d="M17.905,9.962c-0.077,0-0.15-0.046-0.181-0.123l-0.338-0.85c-0.039-0.099,0.009-0.212,0.109-0.252
					c0.098-0.038,0.212,0.009,0.253,0.109l0.338,0.85c0.039,0.099-0.009,0.212-0.109,0.252C17.954,9.958,17.929,9.962,17.905,9.962z
					"/>
			</g>
			<g>
				<path fill="#927DFF" d="M17.311,9.707c-0.077,0-0.15-0.046-0.181-0.122c-0.039-0.1,0.009-0.213,0.109-0.253l0.85-0.339
					c0.098-0.038,0.212,0.009,0.253,0.109c0.039,0.1-0.009,0.213-0.109,0.253l-0.85,0.339C17.359,9.702,17.335,9.707,17.311,9.707z"
					/>
			</g>
		</g>
		<g>
			<g>
				<path fill="#FA6FE1" d="M7.673,8.962c-0.077,0-0.15-0.046-0.181-0.123l-0.338-0.85C7.115,7.89,7.164,7.777,7.263,7.737
					c0.099-0.039,0.212,0.009,0.252,0.109l0.338,0.85c0.039,0.099-0.009,0.212-0.109,0.252C7.722,8.957,7.697,8.962,7.673,8.962z"/>
			</g>
			<g>
				<path fill="#FA6FE1" d="M7.079,8.706c-0.077,0-0.15-0.046-0.181-0.122c-0.039-0.1,0.009-0.213,0.109-0.253l0.85-0.339
					C7.958,7.954,8.07,8.001,8.11,8.101c0.039,0.1-0.009,0.213-0.109,0.253l-0.85,0.339C7.127,8.702,7.103,8.706,7.079,8.706z"/>
			</g>
		</g>
		<g>
			<g>
				<path fill="#927DFF" d="M16.196,18.293c-0.077,0-0.15-0.046-0.181-0.122l-0.339-0.85c-0.039-0.099,0.009-0.212,0.109-0.253
					c0.098-0.039,0.212,0.008,0.253,0.109l0.339,0.85c0.039,0.099-0.009,0.212-0.109,0.253
					C16.245,18.289,16.22,18.293,16.196,18.293z"/>
			</g>
			<g>
				<path fill="#927DFF" d="M15.601,18.037c-0.077,0-0.15-0.046-0.181-0.122c-0.039-0.099,0.009-0.212,0.109-0.253l0.85-0.339
					c0.098-0.038,0.212,0.009,0.253,0.109c0.039,0.099-0.009,0.212-0.109,0.253l-0.85,0.339
					C15.65,18.033,15.626,18.037,15.601,18.037z"/>
			</g>
		</g>
		<g>
			<g>
				<path fill="#FA6FE1" d="M4.289,14.105c-0.077,0-0.15-0.046-0.181-0.122l-0.339-0.85c-0.039-0.099,0.009-0.212,0.109-0.253
					c0.099-0.039,0.212,0.009,0.253,0.109l0.339,0.85c0.039,0.099-0.009,0.212-0.109,0.253C4.338,14.101,4.313,14.105,4.289,14.105z
					"/>
			</g>
			<g>
				<path fill="#FA6FE1" d="M3.695,13.85c-0.077,0-0.15-0.046-0.181-0.122c-0.039-0.1,0.009-0.213,0.109-0.253l0.85-0.338
					c0.099-0.039,0.212,0.009,0.252,0.109c0.039,0.1-0.009,0.213-0.109,0.253l-0.85,0.338C3.743,13.845,3.719,13.85,3.695,13.85z"/>
			</g>
		</g>
		<g>
			<path fill="#FA6FE1" d="M17.636,13.158c-0.456,0-0.827-0.371-0.827-0.827c0-0.456,0.371-0.827,0.827-0.827
				c0.456,0,0.827,0.371,0.827,0.827C18.463,12.787,18.092,13.158,17.636,13.158z M17.636,11.893c-0.242,0-0.439,0.197-0.439,0.438
				s0.197,0.438,0.439,0.438c0.242,0,0.439-0.197,0.439-0.438S17.878,11.893,17.636,11.893z"/>
		</g>
		<g>
			<path fill="#FA6FE1" d="M5.102,17.239c-0.366,0-0.663-0.297-0.663-0.662c0-0.366,0.297-0.663,0.663-0.663
				c0.365,0,0.662,0.297,0.662,0.663C5.764,16.942,5.467,17.239,5.102,17.239z M5.102,16.302c-0.151,0-0.275,0.123-0.275,0.275
				c0,0.151,0.123,0.274,0.275,0.274c0.151,0,0.274-0.123,0.274-0.274C5.376,16.425,5.253,16.302,5.102,16.302z"/>
		</g>
		<g>
			<path fill="#927DFF" d="M11.831,7.713c-0.315,0-0.571-0.256-0.571-0.571s0.256-0.571,0.571-0.571
				c0.315,0,0.571,0.256,0.571,0.571S12.146,7.713,11.831,7.713z M11.831,6.959c-0.101,0-0.183,0.082-0.183,0.182
				c0,0.101,0.082,0.183,0.183,0.183c0.101,0,0.182-0.082,0.182-0.183C12.013,7.041,11.931,6.959,11.831,6.959z"/>
		</g>
		<g>
			<path fill="#927DFF" d="M8.029,5.257c-0.211,0-0.382-0.171-0.382-0.382c0-0.211,0.171-0.382,0.382-0.382
				c0.211,0,0.382,0.171,0.382,0.382C8.412,5.086,8.24,5.257,8.029,5.257z M8.036,4.875L8.029,4.881
				C8.033,4.881,8.036,4.878,8.036,4.875z"/>
		</g>
		<g>
			<path fill="#927DFF" d="M14.267,7.542c-0.134,0-0.244-0.109-0.244-0.244s0.109-0.244,0.244-0.244s0.244,0.109,0.244,0.244
				S14.401,7.542,14.267,7.542z M14.267,7.154c-0.08,0-0.145,0.065-0.145,0.145s0.065,0.145,0.145,0.145s0.145-0.065,0.145-0.145
				S14.346,7.154,14.267,7.154z"/>
		</g>
		<g>
			<path fill="#927DFF" d="M20.256,11.492c-0.135,0-0.244-0.109-0.244-0.244c0-0.135,0.109-0.244,0.244-0.244
				c0.135,0,0.244,0.109,0.244,0.244C20.5,11.382,20.391,11.492,20.256,11.492z M20.256,11.103c-0.08,0-0.144,0.065-0.144,0.145
				s0.064,0.145,0.144,0.145c0.08,0,0.144-0.065,0.144-0.145S20.335,11.103,20.256,11.103z"/>
		</g>
		<g>
			<path fill="#927DFF" d="M17.286,15.808c-0.134,0-0.244-0.109-0.244-0.244c0-0.135,0.109-0.244,0.244-0.244
				c0.135,0,0.244,0.109,0.244,0.244C17.53,15.699,17.421,15.808,17.286,15.808z M17.286,15.42c-0.08,0-0.144,0.065-0.144,0.145
				s0.064,0.144,0.144,0.144c0.08,0,0.145-0.064,0.145-0.144S17.365,15.42,17.286,15.42z"/>
		</g>
	</g>
	<g>
		<g>
			<rect x="7.238" y="10.352" fill="#CCCCCC" width="5.12" height="4.256"/>
		</g>
		<g>
			<rect x="7.008" y="10.352" fill="#CCCCCC" width="5.581" height="1.002"/>
		</g>
		<g>
			<path fill="#FC7A51" d="M11.109,9.042c-0.139-0.139-0.331-0.225-0.542-0.225s-0.404,0.086-0.542,0.225
				C9.885,9.181,9.799,9.373,9.799,9.584c0-0.212-0.086-0.403-0.225-0.542C9.434,8.903,9.242,8.817,9.031,8.817
				S8.627,8.903,8.489,9.042C8.35,9.181,8.263,9.373,8.263,9.584c0,0.424,0.344,0.768,0.768,0.768h0.285v4.256h0.965v-4.256h0.285
				c0.423,0,0.768-0.344,0.768-0.768C11.333,9.372,11.248,9.181,11.109,9.042z M9.03,9.935c-0.193,0-0.35-0.157-0.35-0.35
				c0-0.096,0.039-0.184,0.103-0.247c0.063-0.064,0.151-0.103,0.248-0.103c0.096,0,0.184,0.039,0.247,0.103
				C9.341,9.4,9.38,9.488,9.38,9.584v0.35H9.03z M10.566,9.935h-0.35v-0.35c0-0.096,0.039-0.184,0.103-0.247
				c0.063-0.064,0.151-0.103,0.248-0.103c0.096,0,0.184,0.039,0.247,0.103c0.064,0.063,0.103,0.151,0.103,0.247
				C10.916,9.778,10.759,9.935,10.566,9.935z"/>
		</g>
		<g opacity="0.2" enable-background="new    ">
			<rect x="7.238" y="11.355" fill="#4D4D4D" width="2.078" height="0.357"/>
		</g>
		<g opacity="0.2" enable-background="new    ">
			<rect x="10.28" y="11.355" fill="#4D4D4D" width="2.077" height="0.357"/>
		</g>
		<g>
			<g>
				<g>
					<rect x="10.965" y="12.645" fill="#E6E6E6" width="0.579" height="0.921"/>
				</g>
				<g>
					<polygon fill="#E6E6E6" points="10.678,12.792 11.831,12.792 11.255,12.215 					"/>
				</g>
			</g>
			<g>
				<g>
					<rect x="8.052" y="12.645" fill="#E6E6E6" width="0.579" height="0.921"/>
				</g>
				<g>
					<polygon fill="#E6E6E6" points="7.765,12.792 8.918,12.792 8.342,12.215 					"/>
				</g>
			</g>
		</g>
		<g>
			<path fill="#E6E6E6" d="M8.626,14.931c0.255,0,0.462,0.208,0.462,0.462c0,0.255-0.208,0.462-0.462,0.462
				s-0.462-0.208-0.462-0.462C8.164,15.138,8.371,14.931,8.626,14.931z"/>
		</g>
		<g>
			<path fill="#666666" d="M9.313,15.394c0,0.015,0,0.03-0.002,0.044c-0.023,0.358-0.321,0.642-0.685,0.642
				s-0.662-0.284-0.685-0.642c-0.001-0.015-0.002-0.03-0.002-0.044c0-0.108,0.025-0.21,0.07-0.301
				c0.111-0.228,0.346-0.385,0.617-0.385C9.005,14.707,9.313,15.015,9.313,15.394z M8.908,15.394c0-0.155-0.127-0.282-0.282-0.282
				s-0.281,0.127-0.281,0.282s0.127,0.282,0.281,0.282C8.782,15.675,8.908,15.549,8.908,15.394z"/>
		</g>
		<g>
			<path fill="#E6E6E6" d="M14.301,14.931c0.255,0,0.462,0.208,0.462,0.462c0,0.255-0.208,0.462-0.462,0.462
				s-0.463-0.208-0.463-0.462C13.838,15.138,14.045,14.931,14.301,14.931z"/>
		</g>
		<g>
			<path fill="#F9DE58" d="M15.5,13.092v2.001h-0.425c-0.008-0.022-0.018-0.043-0.028-0.064c-0.141-0.288-0.427-0.466-0.747-0.466
				c-0.353,0-0.654,0.22-0.775,0.53c-0.036,0.093-0.056,0.194-0.056,0.301c0,0.015,0,0.03,0.001,0.045h-0.651v-4.104
				c0-0.086,0.07-0.156,0.156-0.156h1.765c0.228,0,0.412,0.185,0.412,0.412v0.988c0,0.145,0.089,0.27,0.216,0.322
				C15.448,12.931,15.5,13.007,15.5,13.092z"/>
		</g>
		<g>
			<path fill="#B3B3B3" d="M15.673,15.092v0.346H15.13c0.001-0.015,0.002-0.03,0.002-0.044c0-0.104-0.019-0.205-0.057-0.301
				L15.673,15.092L15.673,15.092z"/>
		</g>
		<g>
			<path fill="#666666" d="M13.615,15.438c-0.001-0.015-0.002-0.03-0.002-0.044c0-0.379,0.308-0.687,0.687-0.687
				c0.271,0,0.506,0.157,0.617,0.385c0.044,0.091,0.069,0.193,0.069,0.301c0,0.015,0,0.03-0.002,0.044
				c-0.023,0.358-0.321,0.642-0.685,0.642C13.936,16.08,13.638,15.796,13.615,15.438z M14.582,15.394
				c0-0.155-0.127-0.282-0.281-0.282c-0.155,0-0.282,0.127-0.282,0.282s0.127,0.282,0.282,0.282
				C14.455,15.675,14.582,15.549,14.582,15.394z"/>
		</g>
		<g opacity="0.2" enable-background="new    ">
			<path fill="#4D4D4D" d="M13.096,11.178v3.915h-0.277v-3.758c0-0.086,0.07-0.156,0.156-0.156L13.096,11.178L13.096,11.178
				L13.096,11.178z"/>
		</g>
		<g>
			<path fill="#FFFFFF" d="M15.314,14.672c-0.201,0-0.363-0.162-0.363-0.363c0-0.201,0.162-0.363,0.363-0.363V14.672z"/>
		</g>
		<g>
			<g>
				<path fill="#FFFFFF" d="M14.347,11.59H13.41c-0.062,0-0.113,0.05-0.113,0.113v0.953c0,0.062,0.05,0.113,0.113,0.113h0.936V11.59
					z"/>
			</g>
			<g>
				<path fill="#FFFFFF" d="M14.787,11.59H14.6v1.178h0.187c0.062,0,0.113-0.05,0.113-0.113v-0.953
					C14.9,11.639,14.849,11.59,14.787,11.59z"/>
			</g>
		</g>
		<g>
			<path fill="#B3B3B3" d="M13.525,15.092h-0.706V14.59H7.05v0.502v0.02v0.325h0.746c-0.001-0.015-0.002-0.03-0.002-0.044
				c0-0.097,0.016-0.191,0.049-0.281h1.564c0.032,0.088,0.049,0.182,0.049,0.281c0,0.015-0.001,0.03-0.001,0.045h4.015
				c-0.001-0.015-0.002-0.03-0.002-0.045C13.469,15.287,13.49,15.186,13.525,15.092z"/>
		</g>
	</g>
</g>
</svg>
