<?xml version="1.0" encoding="utf-8"?>
<!-- Generator: Adobe Illustrator 22.0.1, SVG Export Plug-In . SVG Version: 6.00 Build 0)  -->
<svg version="1.1" id="Capa_1" xmlns="http://www.w3.org/2000/svg" xmlns:xlink="http://www.w3.org/1999/xlink" x="0px" y="0px"
	 viewBox="-2364.347 2518.36 24 24" enable-background="new -2364.347 2518.36 24 24" xml:space="preserve">
<g>
	<g>
		<linearGradient id="SVGID_1_" gradientUnits="userSpaceOnUse" x1="-2359.6521" y1="2530.4517" x2="-2353.3015" y2="2530.4517">
			<stop  offset="0" style="stop-color:#80d34c"/>
			<stop  offset="1" style="stop-color:#80d34c"/>
		</linearGradient>
		<path fill="url(#SVGID_1_)" d="M-2359.419,2532.293h5.884c0.129,0,0.233-0.104,0.233-0.233v-3.218
			c0-0.129-0.104-0.233-0.233-0.233h-5.884c-0.129,0-0.233,0.104-0.233,0.233v3.218
			C-2359.652,2532.189-2359.548,2532.293-2359.419,2532.293z M-2359.186,2529.076h5.418v2.751h-5.418V2529.076z"/>
		<linearGradient id="SVGID_2_" gradientUnits="userSpaceOnUse" x1="-2363.1101" y1="2530.3596" x2="-2341.5833" y2="2530.3596">
			<stop  offset="0" style="stop-color:#80d34c"/>
			<stop  offset="1" style="stop-color:#80d34c"/>
		</linearGradient>
		<path fill="url(#SVGID_2_)" d="M-2341.586,2523.611c-0.005-0.454-0.343-0.657-0.675-0.657c-0.012,0-0.021,0-0.028,0.001h-18.144
			c-0.224,0.007-0.557,0.163-0.56,0.568c-0.001,0.155-0.001,3.204-0.001,6.42h-1.884c-0.073,0-0.142,0.034-0.186,0.093
			c-0.044,0.059-0.058,0.134-0.038,0.205l2.111,7.315c0.012,0.118,0.11,0.21,0.231,0.21h18.94c0.129,0,0.233-0.104,0.233-0.233
			C-2341.585,2536.983-2341.581,2524.066-2341.586,2523.611z M-2360.993,2530.408c0,2.032,0,4.078,0.001,5.456l-1.574-5.456
			H-2360.993z M-2342.052,2537.299h-18.469v-7.124c0-0.018-0.002-0.035-0.006-0.052c0-3.281,0-6.443,0.001-6.597
			c0-0.032,0.001-0.098,0.1-0.105h18.144c0.006,0,0.016,0,0.021,0c0.206,0,0.208,0.132,0.208,0.196
			C-2342.047,2524.035-2342.051,2535.508-2342.052,2537.299z"/>
		<linearGradient id="SVGID_3_" gradientUnits="userSpaceOnUse" x1="-2359.6392" y1="2526.6311" x2="-2343.4058" y2="2526.6311">
			<stop  offset="0" style="stop-color:#80d34c"/>
			<stop  offset="1" style="stop-color:#80d34c"/>
		</linearGradient>
		<path fill="url(#SVGID_3_)" d="M-2343.639,2526.398h-15.767c-0.129,0-0.233,0.104-0.233,0.233s0.104,0.233,0.233,0.233h15.767
			c0.129,0,0.233-0.104,0.233-0.233S-2343.51,2526.398-2343.639,2526.398z"/>
		<linearGradient id="SVGID_4_" gradientUnits="userSpaceOnUse" x1="-2352.8542" y1="2528.6987" x2="-2343.4058" y2="2528.6987">
			<stop  offset="0" style="stop-color:#80d34c"/>
			<stop  offset="1" style="stop-color:#80d34c"/>
		</linearGradient>
		<path fill="url(#SVGID_4_)" d="M-2343.639,2528.466h-8.982c-0.129,0-0.233,0.104-0.233,0.233s0.104,0.233,0.233,0.233h8.982
			c0.129,0,0.233-0.104,0.233-0.233S-2343.51,2528.466-2343.639,2528.466z"/>
		<linearGradient id="SVGID_5_" gradientUnits="userSpaceOnUse" x1="-2352.8542" y1="2530.7666" x2="-2343.4058" y2="2530.7666">
			<stop  offset="0" style="stop-color:#80d34c"/>
			<stop  offset="1" style="stop-color:#80d34c"/>
		</linearGradient>
		<path fill="url(#SVGID_5_)" d="M-2343.639,2530.533h-8.982c-0.129,0-0.233,0.104-0.233,0.233s0.104,0.233,0.233,0.233h8.982
			c0.129,0,0.233-0.104,0.233-0.233S-2343.51,2530.533-2343.639,2530.533z"/>
		<linearGradient id="SVGID_6_" gradientUnits="userSpaceOnUse" x1="-2352.8542" y1="2532.8345" x2="-2343.4058" y2="2532.8345">
			<stop  offset="0" style="stop-color:#80d34c"/>
			<stop  offset="1" style="stop-color:#80d34c"/>
		</linearGradient>
		<path fill="url(#SVGID_6_)" d="M-2343.639,2532.601h-8.982c-0.129,0-0.233,0.104-0.233,0.233s0.104,0.233,0.233,0.233h8.982
			c0.129,0,0.233-0.104,0.233-0.233S-2343.51,2532.601-2343.639,2532.601z"/>
		<linearGradient id="SVGID_7_" gradientUnits="userSpaceOnUse" x1="-2359.6392" y1="2534.9023" x2="-2343.4058" y2="2534.9023">
			<stop  offset="0" style="stop-color:#80d34c"/>
			<stop  offset="1" style="stop-color:#80d34c"/>
		</linearGradient>
		<path fill="url(#SVGID_7_)" d="M-2343.639,2534.669h-15.767c-0.129,0-0.233,0.104-0.233,0.233s0.104,0.233,0.233,0.233h15.767
			c0.129,0,0.233-0.104,0.233-0.233S-2343.51,2534.669-2343.639,2534.669z"/>
	</g>
</g>
<rect x="-2364.347" y="2518.36" fill="none" width="24" height="24"/>
</svg>
