<?xml version="1.0" encoding="utf-8"?>
<!-- Generator: Adobe Illustrator 22.0.1, SVG Export Plug-In . SVG Version: 6.00 Build 0)  -->
<svg version="1.1" id="Capa_1" xmlns="http://www.w3.org/2000/svg" xmlns:xlink="http://www.w3.org/1999/xlink" x="0px" y="0px"
	 viewBox="-2626.347 2563.526 24 24" enable-background="new -2626.347 2563.526 24 24" xml:space="preserve">
<g>
	<g>
		<linearGradient id="SVGID_1_" gradientUnits="userSpaceOnUse" x1="-2624.7507" y1="2575.5264" x2="-2603.9426" y2="2575.5264">
			<stop  offset="0" style="stop-color:#80d34c"/>
			<stop  offset="1" style="stop-color:#80d34c"/>
		</linearGradient>
		<path fill="url(#SVGID_1_)" d="M-2606.988,2568.169c-4.058-4.056-10.658-4.056-14.715,0c-1.424,1.422-2.398,3.211-2.817,5.171
			c-0.408,1.91-0.275,3.885,0.386,5.718c0.08,0.221,0.321,0.333,0.543,0.255c0.22-0.08,0.333-0.323,0.254-0.542
			c-0.606-1.684-0.729-3.5-0.354-5.255c0.384-1.798,1.28-3.441,2.587-4.747c3.727-3.728,9.79-3.728,13.517,0
			c1.774,1.773,2.769,4.132,2.797,6.643c0.029,2.502-0.905,4.881-2.629,6.695c-0.021,0.021-0.04,0.043-0.06,0.064
			c-0.035,0.039-0.072,0.077-0.108,0.114c-3.727,3.726-9.79,3.726-13.517,0c-0.021-0.021-0.04-0.039-0.058-0.059
			c-0.001-0.041-0.002-0.08-0.002-0.116c0-0.084,0.001-0.171,0.005-0.255c0.001-0.03,0.003-0.057,0.004-0.084
			c0.003-0.057,0.006-0.112,0.009-0.169c0.003-0.034,0.007-0.066,0.009-0.1c0.005-0.05,0.009-0.1,0.015-0.15
			c0.003-0.036,0.009-0.071,0.014-0.105c0.006-0.05,0.011-0.096,0.018-0.144c0.006-0.036,0.012-0.073,0.017-0.107
			c0.008-0.048,0.016-0.093,0.024-0.139c0.007-0.037,0.015-0.073,0.022-0.11c0.009-0.045,0.018-0.089,0.028-0.134
			c0.008-0.037,0.017-0.073,0.026-0.109c0.01-0.043,0.021-0.087,0.032-0.13c0.01-0.039,0.021-0.073,0.03-0.109
			c0.012-0.043,0.025-0.087,0.037-0.13c0.01-0.036,0.022-0.071,0.033-0.107c0.014-0.043,0.027-0.084,0.042-0.128
			c0.012-0.034,0.024-0.071,0.038-0.105c0.015-0.043,0.03-0.084,0.045-0.125c0.014-0.037,0.027-0.071,0.041-0.105
			c0.017-0.041,0.033-0.082,0.05-0.123c0.016-0.034,0.03-0.069,0.046-0.103c0.018-0.041,0.036-0.08,0.054-0.121
			c0.016-0.034,0.032-0.066,0.048-0.103c0.021-0.039,0.04-0.077,0.059-0.118c0.017-0.032,0.034-0.064,0.051-0.098
			c0.022-0.039,0.043-0.077,0.065-0.116c0.017-0.032,0.035-0.064,0.055-0.096c0.022-0.039,0.044-0.077,0.067-0.114
			c0.019-0.032,0.039-0.066,0.058-0.096c0.024-0.036,0.048-0.075,0.072-0.112c0.021-0.032,0.041-0.062,0.063-0.091
			c0.024-0.039,0.05-0.075,0.075-0.109c0.022-0.032,0.043-0.061,0.065-0.091c0.026-0.036,0.053-0.073,0.08-0.107
			c0.023-0.027,0.046-0.057,0.068-0.087c0.028-0.034,0.056-0.071,0.083-0.105c0.025-0.027,0.048-0.057,0.071-0.084
			c0.03-0.034,0.059-0.068,0.09-0.103c0.024-0.025,0.048-0.052,0.072-0.082c0.032-0.032,0.063-0.064,0.093-0.098
			c0.025-0.025,0.05-0.052,0.075-0.077c0.032-0.032,0.065-0.066,0.098-0.098c0.026-0.022,0.051-0.048,0.077-0.075
			c0.034-0.032,0.068-0.062,0.103-0.094c0.026-0.023,0.052-0.048,0.079-0.071c0.035-0.032,0.072-0.062,0.108-0.094
			c0.026-0.02,0.052-0.043,0.08-0.066c0.037-0.032,0.075-0.061,0.114-0.091c0.027-0.021,0.052-0.041,0.08-0.062
			c0.04-0.032,0.082-0.062,0.123-0.089c0.025-0.018,0.05-0.039,0.078-0.057c0.044-0.032,0.091-0.064,0.137-0.093
			c0.024-0.016,0.045-0.032,0.07-0.046c0.06-0.039,0.121-0.078,0.183-0.116c0.009-0.004,0.018-0.011,0.027-0.016
			c0.073-0.043,0.145-0.087,0.218-0.125c0.025-0.014,0.051-0.027,0.076-0.039c0.049-0.027,0.097-0.055,0.146-0.08
			c0.032-0.014,0.065-0.03,0.097-0.046c0.04-0.021,0.081-0.039,0.121-0.057c0.769,0.731,1.792,1.148,2.854,1.148
			c1.063,0,2.087-0.417,2.855-1.151c1.497,0.695,2.724,1.939,3.39,3.452c0.094,0.214,0.344,0.31,0.558,0.216
			c0.214-0.096,0.311-0.344,0.218-0.558c-0.729-1.655-1.996-2.979-3.602-3.776c0.466-0.684,0.718-1.488,0.718-2.322
			c0-2.281-1.856-4.136-4.137-4.136c-0.234,0-0.424,0.189-0.424,0.424c0,0.232,0.19,0.424,0.424,0.424
			c1.814,0,3.291,1.475,3.291,3.289c0,0.812-0.302,1.593-0.85,2.199c0,0,0,0,0,0.002c-0.625,0.691-1.514,1.089-2.441,1.089
			s-1.815-0.399-2.441-1.089c0-0.002,0-0.002,0-0.002c-0.547-0.606-0.849-1.388-0.849-2.197c0-0.887,0.347-1.716,0.977-2.341
			c0.166-0.164,0.167-0.433,0.003-0.599c-0.165-0.166-0.433-0.166-0.599-0.002c-0.792,0.782-1.227,1.828-1.227,2.94
			c0,0.832,0.25,1.638,0.716,2.32c-0.005,0.002-0.007,0.005-0.011,0.007c-0.034,0.016-0.066,0.034-0.098,0.05
			c-0.05,0.027-0.102,0.052-0.15,0.08c-0.035,0.018-0.069,0.039-0.104,0.059c-0.047,0.025-0.092,0.052-0.138,0.077
			c-0.036,0.023-0.07,0.043-0.106,0.064c-0.043,0.03-0.088,0.055-0.131,0.084c-0.035,0.021-0.07,0.043-0.104,0.068
			c-0.042,0.027-0.083,0.055-0.125,0.084c-0.035,0.025-0.068,0.05-0.102,0.073c-0.04,0.03-0.081,0.059-0.12,0.089
			c-0.034,0.025-0.069,0.05-0.103,0.077c-0.038,0.03-0.075,0.059-0.114,0.091c-0.033,0.025-0.066,0.052-0.099,0.08
			c-0.038,0.032-0.074,0.064-0.11,0.096c-0.033,0.027-0.064,0.055-0.096,0.084c-0.037,0.032-0.073,0.066-0.108,0.098
			c-0.031,0.03-0.062,0.059-0.093,0.087c-0.034,0.034-0.068,0.068-0.104,0.105c-0.03,0.03-0.059,0.057-0.088,0.089
			c-0.034,0.036-0.068,0.071-0.102,0.107c-0.028,0.03-0.056,0.061-0.083,0.091c-0.033,0.037-0.066,0.075-0.099,0.114
			c-0.025,0.03-0.052,0.059-0.077,0.091c-0.034,0.039-0.066,0.08-0.098,0.121c-0.025,0.03-0.049,0.059-0.073,0.089
			c-0.034,0.045-0.066,0.089-0.1,0.132c-0.021,0.03-0.041,0.057-0.062,0.084c-0.042,0.059-0.082,0.116-0.122,0.176
			c-0.011,0.016-0.022,0.032-0.033,0.048c-0.05,0.075-0.098,0.148-0.146,0.226c-0.016,0.025-0.032,0.052-0.048,0.08
			c-0.03,0.05-0.06,0.1-0.09,0.153c-0.019,0.032-0.035,0.064-0.054,0.096c-0.025,0.048-0.052,0.093-0.076,0.141
			c-0.018,0.034-0.035,0.071-0.054,0.105c-0.023,0.046-0.047,0.091-0.068,0.137c-0.019,0.036-0.034,0.075-0.052,0.109
			c-0.021,0.048-0.042,0.091-0.062,0.139c-0.017,0.036-0.033,0.075-0.048,0.111c-0.019,0.048-0.039,0.091-0.057,0.139
			c-0.015,0.039-0.031,0.077-0.045,0.116c-0.017,0.046-0.034,0.091-0.051,0.139c-0.015,0.039-0.027,0.077-0.041,0.118
			c-0.016,0.046-0.031,0.094-0.046,0.142c-0.012,0.039-0.026,0.08-0.038,0.121c-0.014,0.046-0.027,0.096-0.04,0.141
			c-0.013,0.041-0.023,0.082-0.033,0.123c-0.012,0.048-0.024,0.096-0.035,0.146c-0.01,0.041-0.019,0.08-0.029,0.121
			c-0.011,0.05-0.022,0.1-0.031,0.148c-0.009,0.041-0.017,0.082-0.024,0.123c-0.01,0.05-0.018,0.103-0.026,0.153
			c-0.007,0.041-0.014,0.08-0.02,0.121c-0.007,0.052-0.014,0.105-0.021,0.159c-0.006,0.039-0.01,0.077-0.015,0.116
			c-0.006,0.055-0.01,0.112-0.016,0.167c-0.002,0.039-0.007,0.075-0.01,0.112c-0.003,0.064-0.007,0.125-0.009,0.189
			c-0.002,0.032-0.004,0.062-0.006,0.094c-0.004,0.093-0.005,0.189-0.005,0.282c0,0.103,0.003,0.198,0.007,0.305
			c0.001,0.025,0.004,0.05,0.01,0.073c0,0,0,0.002,0,0.004c0.006,0.023,0.013,0.046,0.022,0.066
			c0.001,0.004,0.002,0.004,0.002,0.009c0.009,0.02,0.021,0.041,0.033,0.059c0.001,0.002,0.002,0.004,0.004,0.007
			c0.012,0.018,0.026,0.036,0.041,0.052c0.002,0.002,0.002,0.005,0.002,0.005l0.057,0.059c0.043,0.046,0.084,0.091,0.129,0.135
			c2.028,2.028,4.693,3.042,7.357,3.042s5.329-1.014,7.357-3.042c0.044-0.043,0.086-0.089,0.129-0.135l0.056-0.059
			c1.877-1.974,2.893-4.563,2.861-7.29C-2603.975,2572.67-2605.057,2570.102-2606.988,2568.169z"/>
	</g>
	<rect x="-2626.347" y="2563.526" fill="none" width="24" height="24"/>
</g>
</svg>
