<?xml version="1.0" encoding="UTF-8"?>
<!DOCTYPE svg  PUBLIC '-//W3C//DTD SVG 1.1//EN'  'http://www.w3.org/Graphics/SVG/1.1/DTD/svg11.dtd'>
<svg width="512px" height="512px" enable-background="new 0 0 612 612" version="1.1" viewBox="0 0 612 612" xml:space="preserve" xmlns="http://www.w3.org/2000/svg">
			<path d="m535.5 0h-459c-42.247 0-76.5 34.253-76.5 76.5v459c0 42.247 34.253 76.5 76.5 76.5h459c42.247 0 76.5-34.253 76.5-76.5v-459c0-42.247-34.253-76.5-76.5-76.5zm38.25 535.5c0 21.133-17.117 38.25-38.25 38.25h-459c-21.133 0-38.25-17.117-38.25-38.25v-459c0-21.133 17.117-38.25 38.25-38.25h459c21.133 0 38.25 17.136 38.25 38.25v459zm-152.48-362.08c-9.142-5.278-20.847-2.142-26.125 7l-122.3 211.85-68.429-63.112c-7.229-7.707-19.316-8.108-27.043-0.88-7.708 7.229-8.109 19.316-0.88 27.024l87.439 80.649c7.229 7.708 19.316 8.109 27.043 0.88 2.333-2.18 137.32-237.28 137.32-237.28 5.261-9.14 2.124-20.845-7.017-26.124z" fill="#fff"/>
</svg>
