<?xml version="1.0" encoding="utf-8"?>
<!-- Generator: Adobe Illustrator 22.0.1, SVG Export Plug-In . SVG Version: 6.00 Build 0)  -->
<svg version="1.1" id="Capa_1" xmlns="http://www.w3.org/2000/svg" xmlns:xlink="http://www.w3.org/1999/xlink" x="0px" y="0px"
	 viewBox="-2298.097 2604.026 24 24" enable-background="new -2298.097 2604.026 24 24" xml:space="preserve">
<g>
	<linearGradient id="SVGID_1_" gradientUnits="userSpaceOnUse" x1="-2296.0188" y1="2616.0264" x2="-2276.1746" y2="2616.0264">
		<stop  offset="0" style="stop-color:#80d34c"/>
		<stop  offset="1" style="stop-color:#80d34c"/>
	</linearGradient>
	<path fill="url(#SVGID_1_)" d="M-2278.655,2606.104h-14.883c-1.37,0-2.48,1.111-2.48,2.48v14.883c0,1.37,1.111,2.48,2.48,2.48
		h14.883c1.37,0,2.48-1.111,2.48-2.48v-14.883C-2276.175,2607.215-2277.285,2606.104-2278.655,2606.104z M-2277.415,2623.468
		c0,0.685-0.555,1.24-1.24,1.24h-14.883c-0.685,0-1.24-0.555-1.24-1.24v-14.883c0-0.685,0.555-1.24,1.24-1.24h14.883
		c0.685,0,1.24,0.556,1.24,1.24V2623.468z M-2282.359,2611.728c-0.296-0.171-0.676-0.07-0.847,0.227l-3.966,6.869l-2.219-2.046
		c-0.234-0.25-0.626-0.263-0.877-0.029c-0.25,0.234-0.263,0.626-0.029,0.876l2.835,2.615c0.234,0.25,0.626,0.263,0.877,0.029
		c0.076-0.071,4.453-7.694,4.453-7.694C-2281.961,2612.278-2282.063,2611.899-2282.359,2611.728L-2282.359,2611.728z"/>
</g>
</svg>
